M48
METRIC,LZ,000.000
;FILE_FORMAT=3:3
;TYPE=PLATED
;Layer: PTH_Through
;EasyEDA v6.5.23, 2023-06-28 09:07:18
;df611495b25e4bdeb4d342b309801e4c,9d485ff6e355438eacffb324f9111ecc,10
;Gerber Generator version 0.2
;Holesize 1 = 0.800 mm
T01C0.800
;Holesize 2 = 0.889 mm
T02C0.889
;Holesize 3 = 0.901 mm
T03C0.901
;Holesize 4 = 0.915 mm
T04C0.915
;Holesize 5 = 1.000 mm
T05C1.000
;Holesize 6 = 1.101 mm
T06C1.101
%
G05
G90
T01
X-082550Y051816
X-082550Y054356
X-082550Y043815
X-082550Y046355
X-082550Y035687
X-082550Y038227
T02
X-082550Y013843
X-082550Y016383
X-082550Y018923
X-082550Y021463
X-082550Y024003
X-082550Y026543
X-082550Y029083
T03
X-014859Y073406
X-014859Y075946
X-014859Y078486
X-014859Y081026
X-014859Y083566
X-014859Y086106
T04
X-012954Y015748
X-012954Y018288
X-012954Y020828
X-012954Y023368
X-012954Y025908
X-012954Y028448
X-012954Y030988
X-012954Y033528
X-026670Y059309
X-026670Y056769
X-026670Y054229
X-026670Y051689
X-026670Y049149
X-026670Y046609
X-017653Y000000
X-015113Y000000
X-012573Y000000
X-010033Y000000
X-048568Y078867
X-048567Y076327
X-048567Y073787
X-048567Y071247
T05
X-048768Y012827G85X-048768Y012827
X-048768Y015367G85X-048768Y015367
X-048768Y017907G85X-048768Y017907
X-048768Y020447G85X-048768Y020447
X-048768Y022987G85X-048768Y022987
X-048768Y025527G85X-048768Y025527
X-048768Y028067G85X-048768Y028067
X-048768Y030607G85X-048768Y030607
X-048768Y033147G85X-048768Y033147
X-048768Y035687G85X-048768Y035687
X-048768Y038227G85X-048768Y038227
X-048768Y040767G85X-048768Y040767
X-048768Y043307G85X-048768Y043307
X-048768Y045847G85X-048768Y045847
X-048768Y048387G85X-048768Y048387
X-074168Y012827G85X-074168Y012827
X-074168Y015367G85X-074168Y015367
X-074168Y017907G85X-074168Y017907
X-074168Y020447G85X-074168Y020447
X-074168Y022987G85X-074168Y022987
X-074168Y025527G85X-074168Y025527
X-074168Y028067G85X-074168Y028067
X-074168Y030607G85X-074168Y030607
X-074168Y033147G85X-074168Y033147
X-074168Y035687G85X-074168Y035687
X-074168Y038227G85X-074168Y038227
X-074168Y040767G85X-074168Y040767
X-074168Y043307G85X-074168Y043307
X-074168Y045847G85X-074168Y045847
X-074168Y048387G85X-074168Y048387
T06
X-038100Y068652
X-038100Y090352
X-037973Y035759
X-037973Y057459
X-038100Y003628
X-038100Y025328
M30
