G04 Layer: TopLayer*
G04 EasyEDA v6.5.23, 2023-06-28 09:07:18*
G04 df611495b25e4bdeb4d342b309801e4c,9d485ff6e355438eacffb324f9111ecc,10*
G04 Gerber Generator version 0.2*
G04 Scale: 100 percent, Rotated: No, Reflected: No *
G04 Dimensions in millimeters *
G04 leading zeros omitted , absolute positions ,4 integer and 5 decimal *
%FSLAX45Y45*%
%MOMM*%

%ADD10C,0.4000*%
%ADD11C,0.2540*%
%ADD12C,2.0000*%
%ADD13R,1.5748X1.5748*%
%ADD14C,1.5748*%
%ADD15C,1.9304*%
%ADD16C,1.5240*%
%ADD17R,1.5240X1.5240*%
%ADD18C,1.8000*%
%ADD19C,1.6500*%
%ADD20C,1.8796*%
%ADD21C,0.6100*%
%ADD22C,0.0123*%

%LPD*%
G36*
X-7399680Y-474116D02*
G01*
X-7451547Y-473100D01*
X-7502855Y-470204D01*
X-7554010Y-465429D01*
X-7604963Y-458724D01*
X-7655610Y-450088D01*
X-7705953Y-439572D01*
X-7755788Y-427228D01*
X-7805166Y-413004D01*
X-7853984Y-396900D01*
X-7902194Y-379018D01*
X-7949641Y-359359D01*
X-7996326Y-337921D01*
X-8042198Y-314756D01*
X-8087207Y-289915D01*
X-8131200Y-263347D01*
X-8174177Y-235204D01*
X-8216087Y-205486D01*
X-8256879Y-174193D01*
X-8296402Y-141376D01*
X-8334756Y-107137D01*
X-8371738Y-71475D01*
X-8407400Y-34493D01*
X-8441639Y3860D01*
X-8474405Y43434D01*
X-8505698Y84175D01*
X-8535416Y126085D01*
X-8563559Y169113D01*
X-8590076Y213106D01*
X-8614918Y258114D01*
X-8638082Y303987D01*
X-8659469Y350672D01*
X-8679129Y398170D01*
X-8697010Y446328D01*
X-8713063Y495147D01*
X-8727287Y544525D01*
X-8739682Y594410D01*
X-8750147Y644702D01*
X-8758732Y695401D01*
X-8765438Y746353D01*
X-8770213Y797509D01*
X-8773109Y848817D01*
X-8774074Y900328D01*
X-8774074Y8099653D01*
X-8773109Y8151571D01*
X-8770213Y8202879D01*
X-8765387Y8254034D01*
X-8758682Y8304987D01*
X-8750096Y8355634D01*
X-8739581Y8405926D01*
X-8727186Y8455812D01*
X-8712962Y8505190D01*
X-8696909Y8554008D01*
X-8679027Y8602167D01*
X-8659317Y8649665D01*
X-8637930Y8696350D01*
X-8614765Y8742222D01*
X-8589873Y8787180D01*
X-8563356Y8831224D01*
X-8535212Y8874201D01*
X-8505444Y8916111D01*
X-8474151Y8956852D01*
X-8441385Y8996426D01*
X-8407146Y9034729D01*
X-8371484Y9071762D01*
X-8334451Y9107373D01*
X-8296148Y9141612D01*
X-8256574Y9174378D01*
X-8215782Y9205671D01*
X-8173872Y9235389D01*
X-8130895Y9263532D01*
X-8086852Y9290050D01*
X-8041894Y9314942D01*
X-7996021Y9338056D01*
X-7949285Y9359493D01*
X-7901838Y9379153D01*
X-7853629Y9397034D01*
X-7804810Y9413087D01*
X-7755432Y9427311D01*
X-7705547Y9439656D01*
X-7655255Y9450120D01*
X-7604607Y9458756D01*
X-7553655Y9465462D01*
X-7502499Y9470237D01*
X-7451191Y9473133D01*
X-7399680Y9474047D01*
X-200304Y9474047D01*
X-148437Y9473082D01*
X-97129Y9470186D01*
X-45974Y9465411D01*
X4978Y9458706D01*
X55626Y9450070D01*
X105968Y9439554D01*
X155803Y9427210D01*
X205181Y9412986D01*
X254000Y9396882D01*
X302209Y9379000D01*
X349656Y9359341D01*
X396341Y9337903D01*
X442214Y9314738D01*
X487222Y9289897D01*
X531215Y9263329D01*
X574192Y9235186D01*
X616102Y9205468D01*
X656894Y9174175D01*
X696417Y9141358D01*
X734771Y9107119D01*
X771753Y9071457D01*
X807415Y9034475D01*
X841654Y8996121D01*
X874420Y8956548D01*
X905713Y8915806D01*
X935431Y8873896D01*
X963574Y8830868D01*
X990092Y8786876D01*
X1014933Y8741867D01*
X1038098Y8695994D01*
X1059484Y8649309D01*
X1079144Y8601811D01*
X1097026Y8553653D01*
X1113078Y8504834D01*
X1127302Y8455456D01*
X1139698Y8405571D01*
X1150162Y8355279D01*
X1158748Y8304580D01*
X1165453Y8253628D01*
X1170228Y8202472D01*
X1173124Y8151164D01*
X1174089Y8099653D01*
X1174089Y900328D01*
X1173124Y848410D01*
X1170228Y797102D01*
X1165402Y745947D01*
X1158697Y694994D01*
X1150112Y644347D01*
X1139596Y594055D01*
X1127201Y544169D01*
X1112977Y494792D01*
X1096924Y445973D01*
X1079042Y397814D01*
X1059332Y350316D01*
X1037945Y303631D01*
X1014780Y257759D01*
X989888Y212801D01*
X963371Y168757D01*
X935228Y125780D01*
X905459Y83870D01*
X874166Y43129D01*
X841400Y3556D01*
X807161Y-34747D01*
X771499Y-71780D01*
X734466Y-107391D01*
X696163Y-141630D01*
X656590Y-174396D01*
X615797Y-205689D01*
X573887Y-235407D01*
X530910Y-263550D01*
X486867Y-290068D01*
X441909Y-314960D01*
X396036Y-338074D01*
X349300Y-359511D01*
X301853Y-379171D01*
X253644Y-397052D01*
X204825Y-413105D01*
X155448Y-427329D01*
X105562Y-439674D01*
X55270Y-450138D01*
X4622Y-458774D01*
X-46329Y-465480D01*
X-97485Y-470255D01*
X-148793Y-473151D01*
X-200304Y-474116D01*
G37*

%LPC*%
G36*
X-1559001Y-162153D02*
G01*
X-1117752Y-162102D01*
X-1109014Y-160883D01*
X-1100988Y-158191D01*
X-1093622Y-154076D01*
X-1086713Y-148386D01*
X-1039469Y-101092D01*
X-1036624Y-99060D01*
X-1033322Y-98145D01*
X-1029919Y-98348D01*
X-1020267Y-100685D01*
X-1006703Y-102006D01*
X-993089Y-101549D01*
X-979627Y-99314D01*
X-966622Y-95250D01*
X-954227Y-89509D01*
X-942746Y-82194D01*
X-932332Y-73406D01*
X-923188Y-63246D01*
X-915466Y-52019D01*
X-909319Y-39878D01*
X-904849Y-26974D01*
X-902106Y-13614D01*
X-901192Y0D01*
X-902106Y13614D01*
X-904849Y26974D01*
X-909319Y39878D01*
X-915466Y52019D01*
X-923188Y63246D01*
X-932332Y73406D01*
X-942746Y82194D01*
X-954227Y89509D01*
X-966622Y95250D01*
X-979627Y99314D01*
X-993089Y101549D01*
X-1006703Y102006D01*
X-1020267Y100685D01*
X-1033526Y97485D01*
X-1046276Y92608D01*
X-1058214Y86055D01*
X-1069187Y77978D01*
X-1078992Y68478D01*
X-1087475Y57759D01*
X-1094435Y46024D01*
X-1099718Y33477D01*
X-1103325Y20320D01*
X-1105154Y6807D01*
X-1105154Y-6807D01*
X-1103325Y-20320D01*
X-1101699Y-26263D01*
X-1101394Y-29768D01*
X-1102309Y-33223D01*
X-1104341Y-36118D01*
X-1135583Y-67360D01*
X-1138885Y-69545D01*
X-1142746Y-70307D01*
X-1162710Y-70307D01*
X-1167028Y-69392D01*
X-1170482Y-66700D01*
X-1172514Y-62839D01*
X-1172768Y-58470D01*
X-1171092Y-54406D01*
X-1169466Y-52019D01*
X-1163320Y-39878D01*
X-1158849Y-26974D01*
X-1156106Y-13614D01*
X-1155192Y0D01*
X-1156106Y13614D01*
X-1158849Y26974D01*
X-1163320Y39878D01*
X-1169466Y52019D01*
X-1177188Y63246D01*
X-1186332Y73406D01*
X-1196746Y82194D01*
X-1208227Y89509D01*
X-1220622Y95250D01*
X-1233627Y99314D01*
X-1247089Y101549D01*
X-1260703Y102006D01*
X-1274267Y100685D01*
X-1287526Y97485D01*
X-1300276Y92608D01*
X-1312214Y86055D01*
X-1323187Y77978D01*
X-1332992Y68478D01*
X-1341475Y57759D01*
X-1348435Y46024D01*
X-1353718Y33477D01*
X-1357325Y20320D01*
X-1359154Y6807D01*
X-1359154Y-6807D01*
X-1357325Y-20320D01*
X-1353718Y-33477D01*
X-1348435Y-46024D01*
X-1343101Y-54965D01*
X-1341780Y-59029D01*
X-1342186Y-63246D01*
X-1344269Y-66954D01*
X-1347724Y-69443D01*
X-1351838Y-70307D01*
X-1416710Y-70307D01*
X-1421028Y-69392D01*
X-1424482Y-66700D01*
X-1426514Y-62839D01*
X-1426768Y-58470D01*
X-1425092Y-54406D01*
X-1423466Y-52019D01*
X-1417320Y-39878D01*
X-1412849Y-26974D01*
X-1410106Y-13614D01*
X-1409192Y0D01*
X-1410106Y13614D01*
X-1412849Y26974D01*
X-1417320Y39878D01*
X-1423466Y52019D01*
X-1431188Y63246D01*
X-1440332Y73406D01*
X-1450746Y82194D01*
X-1462227Y89509D01*
X-1474622Y95250D01*
X-1487627Y99314D01*
X-1501089Y101549D01*
X-1514703Y102006D01*
X-1528267Y100685D01*
X-1541526Y97485D01*
X-1544523Y96367D01*
X-1548333Y95656D01*
X-1552143Y96469D01*
X-1555343Y98653D01*
X-3782364Y2325624D01*
X-3788562Y2330754D01*
X-3795268Y2334310D01*
X-3802481Y2336495D01*
X-3810508Y2337308D01*
X-4753762Y2337308D01*
X-4757623Y2338070D01*
X-4760874Y2340254D01*
X-4763109Y2343505D01*
X-4767224Y2353259D01*
X-4774742Y2366314D01*
X-4778146Y2370785D01*
X-4779975Y2374900D01*
X-4779924Y2379370D01*
X-4777943Y2383332D01*
X-4774387Y2386126D01*
X-4770069Y2387092D01*
X-4007865Y2387092D01*
X-4004411Y2386482D01*
X-4001312Y2384704D01*
X-3993845Y2378405D01*
X-3987241Y2374849D01*
X-3979976Y2372664D01*
X-3971950Y2371852D01*
X-1984197Y2371852D01*
X-1976170Y2372664D01*
X-1968957Y2374849D01*
X-1962302Y2378405D01*
X-1956054Y2383536D01*
X-1421079Y2918561D01*
X-1417574Y2920847D01*
X-1413408Y2921508D01*
X-1409395Y2920492D01*
X-1406093Y2917901D01*
X-1404112Y2914192D01*
X-1403807Y2910027D01*
X-1405178Y2906115D01*
X-1406855Y2903321D01*
X-1413103Y2889453D01*
X-1417624Y2874924D01*
X-1420368Y2859989D01*
X-1421282Y2844800D01*
X-1420368Y2829610D01*
X-1417624Y2814675D01*
X-1413103Y2800146D01*
X-1406855Y2786278D01*
X-1398981Y2773273D01*
X-1389634Y2761335D01*
X-1378864Y2750566D01*
X-1366926Y2741218D01*
X-1353921Y2733344D01*
X-1340002Y2727045D01*
X-1336802Y2724861D01*
X-1334719Y2721610D01*
X-1334008Y2717800D01*
X-1334719Y2713990D01*
X-1336802Y2710738D01*
X-1340002Y2708554D01*
X-1353921Y2702255D01*
X-1366926Y2694381D01*
X-1378864Y2685034D01*
X-1389634Y2674264D01*
X-1398981Y2662326D01*
X-1406855Y2649321D01*
X-1413103Y2635453D01*
X-1417624Y2620924D01*
X-1420368Y2605989D01*
X-1421282Y2590800D01*
X-1420368Y2575610D01*
X-1417624Y2560675D01*
X-1413103Y2546146D01*
X-1406855Y2532278D01*
X-1398981Y2519273D01*
X-1389634Y2507335D01*
X-1378864Y2496566D01*
X-1366926Y2487218D01*
X-1353921Y2479344D01*
X-1340002Y2473045D01*
X-1336802Y2470861D01*
X-1334719Y2467610D01*
X-1334008Y2463800D01*
X-1334719Y2459990D01*
X-1336802Y2456738D01*
X-1340002Y2454554D01*
X-1353921Y2448255D01*
X-1366926Y2440381D01*
X-1378864Y2431034D01*
X-1389634Y2420264D01*
X-1398981Y2408326D01*
X-1406855Y2395321D01*
X-1413103Y2381453D01*
X-1417624Y2366924D01*
X-1420368Y2351989D01*
X-1421282Y2336800D01*
X-1420368Y2321610D01*
X-1417624Y2306675D01*
X-1413103Y2292146D01*
X-1406855Y2278278D01*
X-1398981Y2265273D01*
X-1389634Y2253335D01*
X-1378864Y2242566D01*
X-1366926Y2233218D01*
X-1353921Y2225344D01*
X-1340002Y2219045D01*
X-1336802Y2216861D01*
X-1334719Y2213610D01*
X-1334008Y2209800D01*
X-1334719Y2205990D01*
X-1336802Y2202738D01*
X-1340002Y2200554D01*
X-1353921Y2194255D01*
X-1366926Y2186381D01*
X-1378864Y2177034D01*
X-1389634Y2166264D01*
X-1398981Y2154326D01*
X-1406855Y2141321D01*
X-1413103Y2127453D01*
X-1417624Y2112924D01*
X-1420368Y2097989D01*
X-1421282Y2082800D01*
X-1420368Y2067610D01*
X-1417624Y2052675D01*
X-1413103Y2038146D01*
X-1406855Y2024278D01*
X-1398981Y2011273D01*
X-1389634Y1999335D01*
X-1378864Y1988566D01*
X-1366926Y1979218D01*
X-1353921Y1971344D01*
X-1340002Y1965045D01*
X-1336802Y1962861D01*
X-1334719Y1959610D01*
X-1334008Y1955800D01*
X-1334719Y1951989D01*
X-1336802Y1948738D01*
X-1340002Y1946554D01*
X-1353921Y1940255D01*
X-1366926Y1932381D01*
X-1378864Y1923034D01*
X-1389634Y1912264D01*
X-1398981Y1900326D01*
X-1406855Y1887321D01*
X-1413103Y1873453D01*
X-1417624Y1858924D01*
X-1420368Y1843989D01*
X-1421282Y1828800D01*
X-1420368Y1813610D01*
X-1417624Y1798675D01*
X-1413103Y1784146D01*
X-1406855Y1770278D01*
X-1398981Y1757273D01*
X-1389634Y1745335D01*
X-1378864Y1734566D01*
X-1366926Y1725218D01*
X-1353921Y1717344D01*
X-1340002Y1711045D01*
X-1336802Y1708861D01*
X-1334719Y1705610D01*
X-1334008Y1701800D01*
X-1334719Y1697989D01*
X-1336802Y1694738D01*
X-1340002Y1692554D01*
X-1353921Y1686255D01*
X-1366926Y1678381D01*
X-1378864Y1669034D01*
X-1389634Y1658264D01*
X-1398981Y1646326D01*
X-1406855Y1633321D01*
X-1413103Y1619453D01*
X-1417624Y1604924D01*
X-1420368Y1589989D01*
X-1421282Y1574800D01*
X-1420368Y1559610D01*
X-1417624Y1544675D01*
X-1413103Y1530146D01*
X-1406855Y1516278D01*
X-1398981Y1503273D01*
X-1389634Y1491335D01*
X-1378864Y1480566D01*
X-1366926Y1471218D01*
X-1353921Y1463344D01*
X-1340053Y1457096D01*
X-1325524Y1452575D01*
X-1310589Y1449832D01*
X-1295400Y1448917D01*
X-1280210Y1449832D01*
X-1265275Y1452575D01*
X-1250746Y1457096D01*
X-1236878Y1463344D01*
X-1223873Y1471218D01*
X-1211935Y1480566D01*
X-1201166Y1491335D01*
X-1191818Y1503273D01*
X-1183944Y1516278D01*
X-1177696Y1530146D01*
X-1173175Y1544675D01*
X-1170432Y1559610D01*
X-1169517Y1574800D01*
X-1170432Y1589989D01*
X-1173175Y1604924D01*
X-1177696Y1619453D01*
X-1183944Y1633321D01*
X-1191818Y1646326D01*
X-1201166Y1658264D01*
X-1211935Y1669034D01*
X-1223873Y1678381D01*
X-1236878Y1686255D01*
X-1250797Y1692554D01*
X-1253998Y1694738D01*
X-1256080Y1697989D01*
X-1256792Y1701800D01*
X-1256080Y1705610D01*
X-1253998Y1708861D01*
X-1250797Y1711045D01*
X-1236878Y1717344D01*
X-1223873Y1725218D01*
X-1211935Y1734566D01*
X-1201166Y1745335D01*
X-1191818Y1757273D01*
X-1183944Y1770278D01*
X-1177696Y1784146D01*
X-1173175Y1798675D01*
X-1170432Y1813610D01*
X-1169517Y1828800D01*
X-1170432Y1843989D01*
X-1173175Y1858924D01*
X-1177696Y1873453D01*
X-1183944Y1887321D01*
X-1191818Y1900326D01*
X-1201166Y1912264D01*
X-1211935Y1923034D01*
X-1223873Y1932381D01*
X-1236878Y1940255D01*
X-1250797Y1946554D01*
X-1253998Y1948738D01*
X-1256080Y1951989D01*
X-1256792Y1955800D01*
X-1256080Y1959610D01*
X-1253998Y1962861D01*
X-1250797Y1965045D01*
X-1236878Y1971344D01*
X-1223873Y1979218D01*
X-1211935Y1988566D01*
X-1201166Y1999335D01*
X-1191818Y2011273D01*
X-1183944Y2024278D01*
X-1177696Y2038146D01*
X-1173175Y2052675D01*
X-1170432Y2067610D01*
X-1169517Y2082800D01*
X-1170432Y2097989D01*
X-1173175Y2112924D01*
X-1177696Y2127453D01*
X-1183944Y2141321D01*
X-1191818Y2154326D01*
X-1201166Y2166264D01*
X-1211935Y2177034D01*
X-1223873Y2186381D01*
X-1236878Y2194255D01*
X-1250797Y2200554D01*
X-1253998Y2202738D01*
X-1256080Y2205990D01*
X-1256792Y2209800D01*
X-1256080Y2213610D01*
X-1253998Y2216861D01*
X-1250797Y2219045D01*
X-1236878Y2225344D01*
X-1223873Y2233218D01*
X-1211935Y2242566D01*
X-1201166Y2253335D01*
X-1191818Y2265273D01*
X-1183944Y2278278D01*
X-1177696Y2292146D01*
X-1173175Y2306675D01*
X-1170432Y2321610D01*
X-1169517Y2336800D01*
X-1170432Y2351989D01*
X-1173175Y2366924D01*
X-1177696Y2381453D01*
X-1183944Y2395321D01*
X-1191818Y2408326D01*
X-1201166Y2420264D01*
X-1211935Y2431034D01*
X-1223873Y2440381D01*
X-1236878Y2448255D01*
X-1250797Y2454554D01*
X-1253998Y2456738D01*
X-1256080Y2459990D01*
X-1256792Y2463800D01*
X-1256080Y2467610D01*
X-1253998Y2470861D01*
X-1250797Y2473045D01*
X-1236878Y2479344D01*
X-1223873Y2487218D01*
X-1211935Y2496566D01*
X-1201166Y2507335D01*
X-1191818Y2519273D01*
X-1183944Y2532278D01*
X-1177696Y2546146D01*
X-1173175Y2560675D01*
X-1170432Y2575610D01*
X-1169517Y2590800D01*
X-1170432Y2605989D01*
X-1173175Y2620924D01*
X-1177696Y2635453D01*
X-1183944Y2649321D01*
X-1191818Y2662326D01*
X-1201166Y2674264D01*
X-1211935Y2685034D01*
X-1223873Y2694381D01*
X-1236878Y2702255D01*
X-1250797Y2708554D01*
X-1253998Y2710738D01*
X-1256080Y2713990D01*
X-1256792Y2717800D01*
X-1256080Y2721610D01*
X-1253998Y2724861D01*
X-1250797Y2727045D01*
X-1236878Y2733344D01*
X-1223873Y2741218D01*
X-1211935Y2750566D01*
X-1201166Y2761335D01*
X-1191818Y2773273D01*
X-1183944Y2786278D01*
X-1177696Y2800146D01*
X-1173175Y2814675D01*
X-1170432Y2829610D01*
X-1169517Y2844800D01*
X-1170432Y2859989D01*
X-1173175Y2874924D01*
X-1177696Y2889453D01*
X-1183944Y2903321D01*
X-1191818Y2916326D01*
X-1201166Y2928264D01*
X-1211935Y2939034D01*
X-1223873Y2948381D01*
X-1236878Y2956255D01*
X-1250797Y2962554D01*
X-1253998Y2964738D01*
X-1256080Y2967990D01*
X-1256792Y2971800D01*
X-1256080Y2975610D01*
X-1253998Y2978861D01*
X-1250797Y2981045D01*
X-1236878Y2987344D01*
X-1223873Y2995218D01*
X-1211935Y3004566D01*
X-1201166Y3015335D01*
X-1191818Y3027273D01*
X-1183944Y3040278D01*
X-1177696Y3054146D01*
X-1173175Y3068675D01*
X-1170432Y3083610D01*
X-1169517Y3098800D01*
X-1170432Y3113989D01*
X-1173175Y3128924D01*
X-1177696Y3143453D01*
X-1183944Y3157321D01*
X-1191818Y3170326D01*
X-1201166Y3182264D01*
X-1211935Y3193034D01*
X-1223873Y3202381D01*
X-1236878Y3210255D01*
X-1250797Y3216554D01*
X-1253998Y3218738D01*
X-1256080Y3221990D01*
X-1256792Y3225800D01*
X-1256080Y3229610D01*
X-1253998Y3232861D01*
X-1250797Y3235045D01*
X-1236878Y3241344D01*
X-1223873Y3249218D01*
X-1211935Y3258565D01*
X-1201166Y3269335D01*
X-1191818Y3281273D01*
X-1183944Y3294278D01*
X-1177696Y3308146D01*
X-1173175Y3322675D01*
X-1170432Y3337610D01*
X-1169517Y3352800D01*
X-1170432Y3367989D01*
X-1173175Y3382924D01*
X-1177696Y3397453D01*
X-1183944Y3411321D01*
X-1191818Y3424326D01*
X-1201166Y3436264D01*
X-1211935Y3447034D01*
X-1223873Y3456381D01*
X-1236878Y3464255D01*
X-1250746Y3470503D01*
X-1265275Y3475024D01*
X-1280210Y3477768D01*
X-1295400Y3478682D01*
X-1310589Y3477768D01*
X-1325524Y3475024D01*
X-1340053Y3470503D01*
X-1353921Y3464255D01*
X-1366926Y3456381D01*
X-1378864Y3447034D01*
X-1389634Y3436264D01*
X-1398981Y3424326D01*
X-1406855Y3411321D01*
X-1413103Y3397453D01*
X-1417624Y3382924D01*
X-1420368Y3367989D01*
X-1421282Y3352800D01*
X-1420368Y3337610D01*
X-1417624Y3322675D01*
X-1413103Y3308146D01*
X-1406855Y3294278D01*
X-1398981Y3281273D01*
X-1389634Y3269335D01*
X-1378864Y3258565D01*
X-1366926Y3249218D01*
X-1353921Y3241344D01*
X-1340002Y3235045D01*
X-1336802Y3232861D01*
X-1334719Y3229610D01*
X-1334008Y3225800D01*
X-1334719Y3221990D01*
X-1336802Y3218738D01*
X-1340002Y3216554D01*
X-1353921Y3210255D01*
X-1366926Y3202381D01*
X-1378864Y3193034D01*
X-1389634Y3182264D01*
X-1398981Y3170326D01*
X-1406855Y3157321D01*
X-1413103Y3143453D01*
X-1417624Y3128924D01*
X-1420368Y3113989D01*
X-1421282Y3098800D01*
X-1420368Y3083610D01*
X-1417624Y3068675D01*
X-1413103Y3054146D01*
X-1410258Y3047796D01*
X-1409344Y3043834D01*
X-1410106Y3039872D01*
X-1412341Y3036468D01*
X-1996744Y2452065D01*
X-2000046Y2449880D01*
X-2003907Y2449068D01*
X-3703015Y2449068D01*
X-3707282Y2450033D01*
X-3710736Y2452624D01*
X-3712768Y2456484D01*
X-3713073Y2460802D01*
X-3711498Y2464866D01*
X-3706215Y2472842D01*
X-3699611Y2486050D01*
X-3694684Y2499969D01*
X-3691534Y2514396D01*
X-3690162Y2529078D01*
X-3690620Y2543860D01*
X-3692906Y2558440D01*
X-3696970Y2572613D01*
X-3702710Y2586228D01*
X-3710076Y2598978D01*
X-3718966Y2610764D01*
X-3729228Y2621381D01*
X-3740759Y2630627D01*
X-3753307Y2638399D01*
X-3766718Y2644546D01*
X-3780739Y2649016D01*
X-3795268Y2651760D01*
X-3810000Y2652674D01*
X-3824732Y2651760D01*
X-3839260Y2649016D01*
X-3853281Y2644546D01*
X-3856380Y2643124D01*
X-3860342Y2642209D01*
X-3864406Y2642920D01*
X-3867810Y2645206D01*
X-4691278Y3468624D01*
X-4697476Y3473754D01*
X-4704181Y3477310D01*
X-4711395Y3479495D01*
X-4719421Y3480308D01*
X-4769866Y3480308D01*
X-4774133Y3481222D01*
X-4777587Y3483864D01*
X-4779670Y3487674D01*
X-4779924Y3492042D01*
X-4778349Y3496056D01*
X-4770780Y3507486D01*
X-4764074Y3520998D01*
X-4759045Y3535222D01*
X-4755845Y3549904D01*
X-4754473Y3564940D01*
X-4754930Y3579977D01*
X-4757216Y3594862D01*
X-4761331Y3609390D01*
X-4767224Y3623259D01*
X-4774742Y3636314D01*
X-4783836Y3648354D01*
X-4794351Y3659174D01*
X-4806086Y3668623D01*
X-4818888Y3676548D01*
X-4832604Y3682847D01*
X-4842459Y3685997D01*
X-4846218Y3688130D01*
X-4848707Y3691686D01*
X-4849520Y3695954D01*
X-4848453Y3700170D01*
X-4845710Y3703574D01*
X-4841849Y3705504D01*
X-4839716Y3706063D01*
X-4825644Y3711498D01*
X-4812334Y3718610D01*
X-4800041Y3727348D01*
X-4788916Y3737508D01*
X-4779111Y3748938D01*
X-4770780Y3761486D01*
X-4764074Y3774998D01*
X-4759045Y3789222D01*
X-4755845Y3803904D01*
X-4754473Y3818940D01*
X-4754930Y3833977D01*
X-4757216Y3848862D01*
X-4761331Y3863390D01*
X-4764684Y3871264D01*
X-4765497Y3875176D01*
X-4764735Y3879087D01*
X-4762500Y3882390D01*
X-3644595Y5000294D01*
X-3641293Y5002530D01*
X-3637381Y5003292D01*
X-2765552Y5003292D01*
X-2761843Y5002580D01*
X-2758643Y5000548D01*
X-2756357Y4997450D01*
X-2755442Y4993792D01*
X-2755900Y4989982D01*
X-2757728Y4986629D01*
X-2760776Y4983022D01*
X-2768549Y4970729D01*
X-2774746Y4957572D01*
X-2779268Y4943703D01*
X-2781960Y4929428D01*
X-2782874Y4914900D01*
X-2781960Y4900371D01*
X-2779268Y4886096D01*
X-2774746Y4872228D01*
X-2768549Y4859070D01*
X-2760776Y4846777D01*
X-2751480Y4835550D01*
X-2740863Y4825593D01*
X-2729077Y4817059D01*
X-2716326Y4810048D01*
X-2702814Y4804664D01*
X-2688691Y4801057D01*
X-2674264Y4799228D01*
X-2659735Y4799228D01*
X-2645308Y4801057D01*
X-2631186Y4804664D01*
X-2617673Y4810048D01*
X-2604922Y4817059D01*
X-2593136Y4825593D01*
X-2582519Y4835550D01*
X-2573223Y4846777D01*
X-2565450Y4859070D01*
X-2559253Y4872228D01*
X-2554732Y4886096D01*
X-2552039Y4900371D01*
X-2551125Y4914900D01*
X-2552039Y4929428D01*
X-2554732Y4943703D01*
X-2559253Y4957572D01*
X-2565450Y4970729D01*
X-2573223Y4983022D01*
X-2582519Y4994249D01*
X-2589225Y5000548D01*
X-2591562Y5003850D01*
X-2592476Y5007813D01*
X-2591714Y5011775D01*
X-2589479Y5015128D01*
X-2504135Y5100472D01*
X-2499004Y5106720D01*
X-2495448Y5113375D01*
X-2493264Y5120589D01*
X-2492502Y5128615D01*
X-2492502Y5286502D01*
X-2493264Y5294528D01*
X-2495448Y5301742D01*
X-2499004Y5308396D01*
X-2504135Y5314645D01*
X-2557576Y5368036D01*
X-2559812Y5371490D01*
X-2560523Y5375554D01*
X-2559253Y5380228D01*
X-2554732Y5394096D01*
X-2552039Y5408371D01*
X-2551125Y5422900D01*
X-2552039Y5437428D01*
X-2554732Y5451703D01*
X-2559253Y5465572D01*
X-2565450Y5478729D01*
X-2573223Y5491022D01*
X-2582519Y5502249D01*
X-2593136Y5512206D01*
X-2604922Y5520740D01*
X-2617673Y5527751D01*
X-2631186Y5533136D01*
X-2645308Y5536742D01*
X-2659735Y5538571D01*
X-2674264Y5538571D01*
X-2688691Y5536742D01*
X-2702814Y5533136D01*
X-2716326Y5527751D01*
X-2729077Y5520740D01*
X-2740863Y5512206D01*
X-2751480Y5502249D01*
X-2760776Y5491022D01*
X-2768549Y5478729D01*
X-2774746Y5465572D01*
X-2779268Y5451703D01*
X-2781960Y5437428D01*
X-2782874Y5422900D01*
X-2781960Y5408371D01*
X-2779268Y5394096D01*
X-2774746Y5380228D01*
X-2768549Y5367070D01*
X-2760776Y5354777D01*
X-2751480Y5343550D01*
X-2740863Y5333593D01*
X-2729077Y5325059D01*
X-2716326Y5318048D01*
X-2702814Y5312664D01*
X-2688691Y5309057D01*
X-2674264Y5307228D01*
X-2659735Y5307228D01*
X-2645308Y5309057D01*
X-2631186Y5312664D01*
X-2623210Y5315864D01*
X-2619349Y5316575D01*
X-2615539Y5315762D01*
X-2612288Y5313578D01*
X-2572664Y5273954D01*
X-2570480Y5270652D01*
X-2569718Y5266791D01*
X-2569718Y5259679D01*
X-2570429Y5255818D01*
X-2572613Y5252567D01*
X-2575814Y5250332D01*
X-2579624Y5249519D01*
X-2583484Y5250180D01*
X-2586786Y5252262D01*
X-2593136Y5258206D01*
X-2604922Y5266740D01*
X-2617673Y5273751D01*
X-2631186Y5279136D01*
X-2645308Y5282742D01*
X-2659735Y5284571D01*
X-2674264Y5284571D01*
X-2688691Y5282742D01*
X-2702814Y5279136D01*
X-2716326Y5273751D01*
X-2729077Y5266740D01*
X-2740863Y5258206D01*
X-2751480Y5248249D01*
X-2760776Y5237022D01*
X-2768549Y5224729D01*
X-2773934Y5213350D01*
X-2776169Y5210251D01*
X-2779369Y5208219D01*
X-2783128Y5207508D01*
X-4292092Y5207508D01*
X-4300118Y5206695D01*
X-4307382Y5204510D01*
X-4314037Y5200954D01*
X-4320235Y5195824D01*
X-4762500Y4753610D01*
X-4766056Y4751324D01*
X-4770221Y4750663D01*
X-4774285Y4751781D01*
X-4777587Y4754473D01*
X-4779467Y4758232D01*
X-4779670Y4762500D01*
X-4778146Y4766411D01*
X-4770780Y4777486D01*
X-4764074Y4790998D01*
X-4759045Y4805222D01*
X-4755845Y4819904D01*
X-4754473Y4834940D01*
X-4754930Y4849977D01*
X-4757216Y4864862D01*
X-4761331Y4879390D01*
X-4767224Y4893259D01*
X-4774742Y4906314D01*
X-4783836Y4918354D01*
X-4794351Y4929174D01*
X-4806086Y4938623D01*
X-4818888Y4946548D01*
X-4832604Y4952847D01*
X-4846929Y4957419D01*
X-4861763Y4960162D01*
X-4876800Y4961128D01*
X-4891836Y4960162D01*
X-4906670Y4957419D01*
X-4920996Y4952847D01*
X-4934712Y4946548D01*
X-4947513Y4938623D01*
X-4959248Y4929174D01*
X-4969764Y4918354D01*
X-4978857Y4906314D01*
X-4986375Y4893259D01*
X-4992268Y4879390D01*
X-4996383Y4864862D01*
X-4998669Y4849977D01*
X-4999126Y4834940D01*
X-4997754Y4819904D01*
X-4994554Y4805222D01*
X-4989525Y4790998D01*
X-4982819Y4777486D01*
X-4974488Y4764938D01*
X-4964684Y4753508D01*
X-4953558Y4743348D01*
X-4941214Y4734610D01*
X-4927955Y4727498D01*
X-4913884Y4722063D01*
X-4911750Y4721504D01*
X-4907889Y4719574D01*
X-4905146Y4716170D01*
X-4904079Y4711954D01*
X-4904892Y4707686D01*
X-4907381Y4704130D01*
X-4911140Y4701997D01*
X-4920996Y4698847D01*
X-4934712Y4692548D01*
X-4947513Y4684623D01*
X-4959248Y4675174D01*
X-4969764Y4664354D01*
X-4978857Y4652314D01*
X-4986375Y4639259D01*
X-4992268Y4625390D01*
X-4996383Y4610862D01*
X-4998669Y4595977D01*
X-4999126Y4580940D01*
X-4997754Y4565904D01*
X-4994554Y4551222D01*
X-4989525Y4536998D01*
X-4982819Y4523486D01*
X-4974488Y4510938D01*
X-4964684Y4499508D01*
X-4953558Y4489348D01*
X-4941214Y4480610D01*
X-4927955Y4473498D01*
X-4913884Y4468063D01*
X-4911750Y4467504D01*
X-4907889Y4465574D01*
X-4905146Y4462170D01*
X-4904079Y4457954D01*
X-4904892Y4453686D01*
X-4907381Y4450130D01*
X-4911140Y4447997D01*
X-4920996Y4444847D01*
X-4934712Y4438548D01*
X-4947513Y4430623D01*
X-4959248Y4421174D01*
X-4969764Y4410354D01*
X-4978857Y4398314D01*
X-4986375Y4385259D01*
X-4992268Y4371390D01*
X-4996383Y4356862D01*
X-4998669Y4341977D01*
X-4999126Y4326940D01*
X-4997754Y4311904D01*
X-4994554Y4297222D01*
X-4989525Y4282998D01*
X-4982819Y4269486D01*
X-4974488Y4256938D01*
X-4964684Y4245508D01*
X-4953558Y4235348D01*
X-4941214Y4226610D01*
X-4927955Y4219498D01*
X-4913884Y4214063D01*
X-4911750Y4213504D01*
X-4907889Y4211574D01*
X-4905146Y4208170D01*
X-4904079Y4203954D01*
X-4904892Y4199686D01*
X-4907381Y4196130D01*
X-4911140Y4193997D01*
X-4920996Y4190847D01*
X-4934712Y4184548D01*
X-4947513Y4176623D01*
X-4959248Y4167174D01*
X-4969764Y4156354D01*
X-4978857Y4144314D01*
X-4986375Y4131259D01*
X-4992268Y4117390D01*
X-4996383Y4102862D01*
X-4998669Y4087977D01*
X-4999126Y4072940D01*
X-4997754Y4057904D01*
X-4994554Y4043222D01*
X-4989525Y4028998D01*
X-4982819Y4015486D01*
X-4974488Y4002938D01*
X-4964684Y3991508D01*
X-4953558Y3981348D01*
X-4941214Y3972610D01*
X-4927955Y3965498D01*
X-4913884Y3960063D01*
X-4911750Y3959504D01*
X-4907889Y3957574D01*
X-4905146Y3954170D01*
X-4904079Y3949954D01*
X-4904892Y3945686D01*
X-4907381Y3942130D01*
X-4911140Y3939997D01*
X-4920996Y3936847D01*
X-4934712Y3930548D01*
X-4947513Y3922623D01*
X-4959248Y3913174D01*
X-4969764Y3902354D01*
X-4978857Y3890314D01*
X-4986375Y3877259D01*
X-4992268Y3863390D01*
X-4996383Y3848862D01*
X-4998669Y3833977D01*
X-4999126Y3818940D01*
X-4997754Y3803904D01*
X-4994554Y3789222D01*
X-4989525Y3774998D01*
X-4982819Y3761486D01*
X-4974488Y3748938D01*
X-4964684Y3737508D01*
X-4953558Y3727348D01*
X-4941214Y3718610D01*
X-4927955Y3711498D01*
X-4913884Y3706063D01*
X-4911750Y3705504D01*
X-4907889Y3703574D01*
X-4905146Y3700170D01*
X-4904079Y3695954D01*
X-4904892Y3691686D01*
X-4907381Y3688130D01*
X-4911140Y3685997D01*
X-4920996Y3682847D01*
X-4934712Y3676548D01*
X-4947513Y3668623D01*
X-4959248Y3659174D01*
X-4969764Y3648354D01*
X-4978857Y3636314D01*
X-4986375Y3623259D01*
X-4992268Y3609390D01*
X-4996383Y3594862D01*
X-4998669Y3579977D01*
X-4999126Y3564940D01*
X-4997754Y3549904D01*
X-4994554Y3535222D01*
X-4989525Y3520998D01*
X-4982819Y3507486D01*
X-4975250Y3496056D01*
X-4973675Y3492042D01*
X-4973929Y3487674D01*
X-4976012Y3483864D01*
X-4979466Y3481222D01*
X-4983734Y3480308D01*
X-7309866Y3480308D01*
X-7314133Y3481222D01*
X-7317587Y3483864D01*
X-7319670Y3487674D01*
X-7319924Y3492042D01*
X-7318349Y3496056D01*
X-7310780Y3507486D01*
X-7304074Y3520998D01*
X-7299045Y3535222D01*
X-7295845Y3549904D01*
X-7294473Y3564940D01*
X-7294930Y3579977D01*
X-7297216Y3594862D01*
X-7301331Y3609390D01*
X-7307224Y3623259D01*
X-7314742Y3636314D01*
X-7323836Y3648354D01*
X-7334351Y3659174D01*
X-7346086Y3668623D01*
X-7358888Y3676548D01*
X-7372603Y3682847D01*
X-7382459Y3685997D01*
X-7386218Y3688130D01*
X-7388707Y3691686D01*
X-7389520Y3695954D01*
X-7388453Y3700170D01*
X-7385710Y3703574D01*
X-7381849Y3705504D01*
X-7379716Y3706063D01*
X-7365644Y3711498D01*
X-7352334Y3718610D01*
X-7340041Y3727348D01*
X-7328916Y3737508D01*
X-7319111Y3748938D01*
X-7310780Y3761486D01*
X-7304074Y3774998D01*
X-7299045Y3789222D01*
X-7295845Y3803904D01*
X-7294473Y3818940D01*
X-7294930Y3833977D01*
X-7297216Y3848862D01*
X-7301331Y3863390D01*
X-7307224Y3877259D01*
X-7314742Y3890314D01*
X-7323836Y3902354D01*
X-7334351Y3913174D01*
X-7346086Y3922623D01*
X-7358888Y3930548D01*
X-7372603Y3936847D01*
X-7382459Y3939997D01*
X-7386218Y3942130D01*
X-7388707Y3945686D01*
X-7389520Y3949954D01*
X-7388453Y3954170D01*
X-7385710Y3957574D01*
X-7381849Y3959504D01*
X-7379716Y3960063D01*
X-7365644Y3965498D01*
X-7352334Y3972610D01*
X-7340041Y3981348D01*
X-7328916Y3991508D01*
X-7319111Y4002938D01*
X-7310780Y4015486D01*
X-7304074Y4028998D01*
X-7299045Y4043222D01*
X-7295845Y4057904D01*
X-7294473Y4072940D01*
X-7294930Y4087977D01*
X-7297216Y4102862D01*
X-7301331Y4117390D01*
X-7307224Y4131259D01*
X-7314742Y4144314D01*
X-7323836Y4156354D01*
X-7334351Y4167174D01*
X-7346086Y4176623D01*
X-7358888Y4184548D01*
X-7372603Y4190847D01*
X-7382459Y4193997D01*
X-7386218Y4196130D01*
X-7388707Y4199686D01*
X-7389520Y4203954D01*
X-7388453Y4208170D01*
X-7385710Y4211574D01*
X-7381849Y4213504D01*
X-7379716Y4214063D01*
X-7365644Y4219498D01*
X-7352334Y4226610D01*
X-7340041Y4235348D01*
X-7328916Y4245508D01*
X-7319111Y4256938D01*
X-7310780Y4269486D01*
X-7304074Y4282998D01*
X-7299045Y4297222D01*
X-7295845Y4311904D01*
X-7294473Y4326940D01*
X-7294930Y4341977D01*
X-7297216Y4356862D01*
X-7301331Y4371390D01*
X-7307224Y4385259D01*
X-7314742Y4398314D01*
X-7323836Y4410354D01*
X-7334351Y4421174D01*
X-7346086Y4430623D01*
X-7358888Y4438548D01*
X-7372603Y4444847D01*
X-7382459Y4447997D01*
X-7386218Y4450130D01*
X-7388707Y4453686D01*
X-7389520Y4457954D01*
X-7388453Y4462170D01*
X-7385710Y4465574D01*
X-7381849Y4467504D01*
X-7379716Y4468063D01*
X-7365644Y4473498D01*
X-7352334Y4480610D01*
X-7340041Y4489348D01*
X-7328916Y4499508D01*
X-7319111Y4510938D01*
X-7310780Y4523486D01*
X-7304074Y4536998D01*
X-7299045Y4551222D01*
X-7295845Y4565904D01*
X-7294473Y4580940D01*
X-7294930Y4595977D01*
X-7297216Y4610862D01*
X-7301331Y4625390D01*
X-7307224Y4639259D01*
X-7314742Y4652314D01*
X-7323836Y4664354D01*
X-7334351Y4675174D01*
X-7346086Y4684623D01*
X-7358888Y4692548D01*
X-7372603Y4698847D01*
X-7382459Y4701997D01*
X-7386218Y4704130D01*
X-7388707Y4707686D01*
X-7389520Y4711954D01*
X-7388453Y4716170D01*
X-7385710Y4719574D01*
X-7381849Y4721504D01*
X-7379716Y4722063D01*
X-7365644Y4727498D01*
X-7352334Y4734610D01*
X-7340041Y4743348D01*
X-7328916Y4753508D01*
X-7319111Y4764938D01*
X-7310780Y4777486D01*
X-7304074Y4790998D01*
X-7299045Y4805222D01*
X-7295845Y4819904D01*
X-7294473Y4834940D01*
X-7294930Y4849977D01*
X-7297216Y4864862D01*
X-7301331Y4879390D01*
X-7307224Y4893259D01*
X-7314742Y4906314D01*
X-7323836Y4918354D01*
X-7334351Y4929174D01*
X-7346086Y4938623D01*
X-7358888Y4946548D01*
X-7372603Y4952847D01*
X-7386929Y4957419D01*
X-7401763Y4960162D01*
X-7416800Y4961128D01*
X-7431836Y4960162D01*
X-7446670Y4957419D01*
X-7460996Y4952847D01*
X-7474712Y4946548D01*
X-7487513Y4938623D01*
X-7499248Y4929174D01*
X-7509764Y4918354D01*
X-7518857Y4906314D01*
X-7526375Y4893259D01*
X-7532268Y4879390D01*
X-7536383Y4864862D01*
X-7538669Y4849977D01*
X-7539126Y4834940D01*
X-7537754Y4819904D01*
X-7534554Y4805222D01*
X-7529525Y4790998D01*
X-7522819Y4777486D01*
X-7514488Y4764938D01*
X-7504684Y4753508D01*
X-7493558Y4743348D01*
X-7481214Y4734610D01*
X-7467955Y4727498D01*
X-7453884Y4722063D01*
X-7451750Y4721504D01*
X-7447889Y4719574D01*
X-7445146Y4716170D01*
X-7444079Y4711954D01*
X-7444892Y4707686D01*
X-7447381Y4704130D01*
X-7451140Y4701997D01*
X-7460996Y4698847D01*
X-7474712Y4692548D01*
X-7487513Y4684623D01*
X-7499248Y4675174D01*
X-7509764Y4664354D01*
X-7518857Y4652314D01*
X-7526375Y4639259D01*
X-7532268Y4625390D01*
X-7536383Y4610862D01*
X-7538669Y4595977D01*
X-7539126Y4580940D01*
X-7537754Y4565904D01*
X-7534554Y4551222D01*
X-7529525Y4536998D01*
X-7522819Y4523486D01*
X-7514488Y4510938D01*
X-7504684Y4499508D01*
X-7493558Y4489348D01*
X-7481214Y4480610D01*
X-7467955Y4473498D01*
X-7453884Y4468063D01*
X-7451750Y4467504D01*
X-7447889Y4465574D01*
X-7445146Y4462170D01*
X-7444079Y4457954D01*
X-7444892Y4453686D01*
X-7447381Y4450130D01*
X-7451140Y4447997D01*
X-7460996Y4444847D01*
X-7474712Y4438548D01*
X-7487513Y4430623D01*
X-7499248Y4421174D01*
X-7509764Y4410354D01*
X-7518857Y4398314D01*
X-7526375Y4385259D01*
X-7532268Y4371390D01*
X-7536383Y4356862D01*
X-7538669Y4341977D01*
X-7539126Y4326940D01*
X-7537754Y4311904D01*
X-7534554Y4297222D01*
X-7529525Y4282998D01*
X-7522819Y4269486D01*
X-7514488Y4256938D01*
X-7504684Y4245508D01*
X-7493558Y4235348D01*
X-7481214Y4226610D01*
X-7467955Y4219498D01*
X-7453884Y4214063D01*
X-7451750Y4213504D01*
X-7447889Y4211574D01*
X-7445146Y4208170D01*
X-7444079Y4203954D01*
X-7444892Y4199686D01*
X-7447381Y4196130D01*
X-7451140Y4193997D01*
X-7460996Y4190847D01*
X-7474712Y4184548D01*
X-7487513Y4176623D01*
X-7499248Y4167174D01*
X-7509764Y4156354D01*
X-7518857Y4144314D01*
X-7526375Y4131259D01*
X-7532268Y4117390D01*
X-7536383Y4102862D01*
X-7538669Y4087977D01*
X-7539126Y4072940D01*
X-7537754Y4057904D01*
X-7534554Y4043222D01*
X-7529525Y4028998D01*
X-7522819Y4015486D01*
X-7514488Y4002938D01*
X-7504684Y3991508D01*
X-7493558Y3981348D01*
X-7481214Y3972610D01*
X-7467955Y3965498D01*
X-7453884Y3960063D01*
X-7451750Y3959504D01*
X-7447889Y3957574D01*
X-7445146Y3954170D01*
X-7444079Y3949954D01*
X-7444892Y3945686D01*
X-7447381Y3942130D01*
X-7451140Y3939997D01*
X-7460996Y3936847D01*
X-7474712Y3930548D01*
X-7487513Y3922623D01*
X-7499248Y3913174D01*
X-7509764Y3902354D01*
X-7518857Y3890314D01*
X-7526375Y3877259D01*
X-7532268Y3863390D01*
X-7536383Y3848862D01*
X-7538669Y3833977D01*
X-7539126Y3818940D01*
X-7537754Y3803904D01*
X-7534554Y3789222D01*
X-7529525Y3774998D01*
X-7522819Y3761486D01*
X-7514488Y3748938D01*
X-7504684Y3737508D01*
X-7493558Y3727348D01*
X-7481214Y3718610D01*
X-7467955Y3711498D01*
X-7453884Y3706063D01*
X-7451750Y3705504D01*
X-7447889Y3703574D01*
X-7445146Y3700170D01*
X-7444079Y3695954D01*
X-7444892Y3691686D01*
X-7447381Y3688130D01*
X-7451140Y3685997D01*
X-7460996Y3682847D01*
X-7474712Y3676548D01*
X-7487513Y3668623D01*
X-7499248Y3659174D01*
X-7509764Y3648354D01*
X-7518857Y3636314D01*
X-7526375Y3623259D01*
X-7532268Y3609390D01*
X-7536383Y3594862D01*
X-7538669Y3579977D01*
X-7539126Y3564940D01*
X-7537754Y3549904D01*
X-7534554Y3535222D01*
X-7529525Y3520998D01*
X-7522819Y3507486D01*
X-7515250Y3496056D01*
X-7513675Y3492042D01*
X-7513929Y3487674D01*
X-7516012Y3483864D01*
X-7519466Y3481222D01*
X-7523734Y3480308D01*
X-8107781Y3480308D01*
X-8111693Y3481070D01*
X-8114995Y3483305D01*
X-8151418Y3519728D01*
X-8153552Y3522827D01*
X-8154416Y3526485D01*
X-8153857Y3530193D01*
X-8150301Y3540658D01*
X-8147558Y3554577D01*
X-8146592Y3568700D01*
X-8147558Y3582822D01*
X-8150301Y3596741D01*
X-8154873Y3610152D01*
X-8161121Y3622903D01*
X-8168995Y3634689D01*
X-8178342Y3645357D01*
X-8189010Y3654704D01*
X-8200796Y3662578D01*
X-8213547Y3668826D01*
X-8226958Y3673398D01*
X-8240877Y3676142D01*
X-8255000Y3677107D01*
X-8269122Y3676142D01*
X-8283041Y3673398D01*
X-8296452Y3668826D01*
X-8309203Y3662578D01*
X-8320989Y3654704D01*
X-8331657Y3645357D01*
X-8341004Y3634689D01*
X-8348878Y3622903D01*
X-8355126Y3610152D01*
X-8359698Y3596741D01*
X-8362442Y3582822D01*
X-8363407Y3568700D01*
X-8362442Y3554577D01*
X-8359698Y3540658D01*
X-8355126Y3527247D01*
X-8348878Y3514496D01*
X-8341004Y3502710D01*
X-8331657Y3492042D01*
X-8320989Y3482695D01*
X-8309203Y3474821D01*
X-8296452Y3468573D01*
X-8283041Y3464001D01*
X-8269122Y3461258D01*
X-8255000Y3460292D01*
X-8240877Y3461258D01*
X-8226958Y3464001D01*
X-8216493Y3467557D01*
X-8212785Y3468065D01*
X-8209127Y3467252D01*
X-8206028Y3465118D01*
X-8155635Y3414725D01*
X-8149437Y3409645D01*
X-8142782Y3406089D01*
X-8135518Y3403854D01*
X-8127492Y3403092D01*
X-7523530Y3403092D01*
X-7519212Y3402126D01*
X-7515656Y3399332D01*
X-7513675Y3395370D01*
X-7513624Y3390900D01*
X-7515453Y3386785D01*
X-7518857Y3382314D01*
X-7526375Y3369259D01*
X-7532268Y3355390D01*
X-7536383Y3340862D01*
X-7538669Y3325977D01*
X-7539126Y3310940D01*
X-7537754Y3295904D01*
X-7534554Y3281222D01*
X-7529525Y3266998D01*
X-7522819Y3253486D01*
X-7514488Y3240938D01*
X-7504684Y3229508D01*
X-7493558Y3219348D01*
X-7481214Y3210610D01*
X-7467955Y3203498D01*
X-7453884Y3198063D01*
X-7451750Y3197504D01*
X-7447889Y3195574D01*
X-7445146Y3192170D01*
X-7444079Y3187954D01*
X-7444892Y3183686D01*
X-7447381Y3180130D01*
X-7451140Y3177997D01*
X-7460996Y3174847D01*
X-7474712Y3168548D01*
X-7487513Y3160623D01*
X-7499248Y3151174D01*
X-7509764Y3140354D01*
X-7518857Y3128314D01*
X-7526375Y3115259D01*
X-7532268Y3101390D01*
X-7536383Y3086862D01*
X-7538669Y3071977D01*
X-7539126Y3056940D01*
X-7537754Y3041904D01*
X-7534554Y3027222D01*
X-7529525Y3012998D01*
X-7522819Y2999486D01*
X-7514488Y2986938D01*
X-7504684Y2975508D01*
X-7493558Y2965348D01*
X-7481214Y2956610D01*
X-7467955Y2949498D01*
X-7453884Y2944063D01*
X-7451750Y2943504D01*
X-7447889Y2941574D01*
X-7445146Y2938170D01*
X-7444079Y2933954D01*
X-7444892Y2929686D01*
X-7447381Y2926130D01*
X-7451140Y2923997D01*
X-7460996Y2920847D01*
X-7474712Y2914548D01*
X-7487513Y2906623D01*
X-7499248Y2897174D01*
X-7509764Y2886354D01*
X-7518857Y2874314D01*
X-7526375Y2861259D01*
X-7530490Y2851505D01*
X-7532725Y2848254D01*
X-7535976Y2846070D01*
X-7539837Y2845308D01*
X-8102092Y2845308D01*
X-8110118Y2844495D01*
X-8117382Y2842310D01*
X-8124037Y2838754D01*
X-8130235Y2833624D01*
X-8208975Y2754934D01*
X-8212074Y2752801D01*
X-8215731Y2751937D01*
X-8219440Y2752496D01*
X-8227923Y2755341D01*
X-8241334Y2758033D01*
X-8255000Y2758948D01*
X-8268665Y2758033D01*
X-8282076Y2755341D01*
X-8295030Y2750972D01*
X-8307324Y2744927D01*
X-8318703Y2737307D01*
X-8328964Y2728264D01*
X-8338007Y2718003D01*
X-8345627Y2706624D01*
X-8351672Y2694330D01*
X-8356041Y2681376D01*
X-8358733Y2667965D01*
X-8359648Y2654300D01*
X-8358733Y2640634D01*
X-8356041Y2627223D01*
X-8351672Y2614269D01*
X-8345627Y2601976D01*
X-8338007Y2590596D01*
X-8328964Y2580335D01*
X-8318703Y2571292D01*
X-8307324Y2563672D01*
X-8295030Y2557627D01*
X-8282076Y2553258D01*
X-8268665Y2550566D01*
X-8255000Y2549652D01*
X-8241334Y2550566D01*
X-8227923Y2553258D01*
X-8214969Y2557627D01*
X-8202675Y2563672D01*
X-8191296Y2571292D01*
X-8181035Y2580335D01*
X-8171992Y2590596D01*
X-8164372Y2601976D01*
X-8158327Y2614269D01*
X-8153958Y2627223D01*
X-8151266Y2640634D01*
X-8150352Y2654300D01*
X-8151266Y2667965D01*
X-8153958Y2681376D01*
X-8156803Y2689860D01*
X-8157362Y2693568D01*
X-8156498Y2697226D01*
X-8154365Y2700324D01*
X-8089595Y2765094D01*
X-8086293Y2767330D01*
X-8082381Y2768092D01*
X-7539939Y2768092D01*
X-7535875Y2767228D01*
X-7532471Y2764840D01*
X-7530338Y2761284D01*
X-7529525Y2758998D01*
X-7522819Y2745486D01*
X-7514488Y2732938D01*
X-7504684Y2721508D01*
X-7493558Y2711348D01*
X-7481214Y2702610D01*
X-7467955Y2695498D01*
X-7453884Y2690063D01*
X-7451750Y2689504D01*
X-7447889Y2687574D01*
X-7445146Y2684170D01*
X-7444079Y2679954D01*
X-7444892Y2675686D01*
X-7447381Y2672130D01*
X-7451140Y2669997D01*
X-7460996Y2666847D01*
X-7474712Y2660548D01*
X-7487513Y2652623D01*
X-7499248Y2643174D01*
X-7509764Y2632354D01*
X-7518857Y2620314D01*
X-7526375Y2607259D01*
X-7532268Y2593390D01*
X-7536383Y2578862D01*
X-7538669Y2563977D01*
X-7539126Y2548940D01*
X-7537754Y2533904D01*
X-7534554Y2519222D01*
X-7529525Y2504998D01*
X-7522819Y2491486D01*
X-7514488Y2478938D01*
X-7504684Y2467508D01*
X-7493558Y2457348D01*
X-7481214Y2448610D01*
X-7467955Y2441498D01*
X-7453884Y2436063D01*
X-7451750Y2435504D01*
X-7447889Y2433574D01*
X-7445146Y2430170D01*
X-7444079Y2425954D01*
X-7444892Y2421686D01*
X-7447381Y2418130D01*
X-7451140Y2415997D01*
X-7460996Y2412847D01*
X-7474712Y2406548D01*
X-7487513Y2398623D01*
X-7499248Y2389174D01*
X-7509764Y2378354D01*
X-7518857Y2366314D01*
X-7526375Y2353259D01*
X-7530490Y2343505D01*
X-7532725Y2340254D01*
X-7535976Y2338070D01*
X-7539837Y2337308D01*
X-8133181Y2337308D01*
X-8137093Y2338070D01*
X-8140395Y2340305D01*
X-8154365Y2354275D01*
X-8156498Y2357374D01*
X-8157362Y2361031D01*
X-8156803Y2364740D01*
X-8153958Y2373223D01*
X-8151266Y2386634D01*
X-8150352Y2400300D01*
X-8151266Y2413965D01*
X-8153958Y2427376D01*
X-8158327Y2440330D01*
X-8164372Y2452624D01*
X-8171992Y2464003D01*
X-8181035Y2474264D01*
X-8191296Y2483307D01*
X-8202675Y2490927D01*
X-8214969Y2496972D01*
X-8227923Y2501341D01*
X-8241334Y2504033D01*
X-8255000Y2504948D01*
X-8268665Y2504033D01*
X-8282076Y2501341D01*
X-8295030Y2496972D01*
X-8307324Y2490927D01*
X-8318703Y2483307D01*
X-8328964Y2474264D01*
X-8338007Y2464003D01*
X-8345627Y2452624D01*
X-8351672Y2440330D01*
X-8356041Y2427376D01*
X-8358733Y2413965D01*
X-8359648Y2400300D01*
X-8358733Y2386634D01*
X-8356041Y2373223D01*
X-8351672Y2360269D01*
X-8345627Y2347976D01*
X-8338007Y2336596D01*
X-8328964Y2326335D01*
X-8318703Y2317292D01*
X-8307324Y2309672D01*
X-8295030Y2303627D01*
X-8282076Y2299258D01*
X-8268665Y2296566D01*
X-8255000Y2295652D01*
X-8241334Y2296566D01*
X-8227923Y2299258D01*
X-8219440Y2302103D01*
X-8215731Y2302662D01*
X-8212074Y2301798D01*
X-8208975Y2299665D01*
X-8181035Y2271725D01*
X-8174837Y2266645D01*
X-8168182Y2263089D01*
X-8160918Y2260854D01*
X-8152892Y2260092D01*
X-7539939Y2260092D01*
X-7535875Y2259228D01*
X-7532471Y2256840D01*
X-7530338Y2253284D01*
X-7529525Y2250998D01*
X-7522819Y2237486D01*
X-7514488Y2224938D01*
X-7504684Y2213508D01*
X-7493558Y2203348D01*
X-7481214Y2194610D01*
X-7467955Y2187498D01*
X-7453884Y2182063D01*
X-7451750Y2181504D01*
X-7447889Y2179574D01*
X-7445146Y2176170D01*
X-7444079Y2171954D01*
X-7444892Y2167686D01*
X-7447381Y2164130D01*
X-7451140Y2161997D01*
X-7460996Y2158847D01*
X-7474712Y2152548D01*
X-7487513Y2144623D01*
X-7499248Y2135174D01*
X-7509764Y2124354D01*
X-7518857Y2112314D01*
X-7526375Y2099259D01*
X-7530490Y2089505D01*
X-7532725Y2086254D01*
X-7535976Y2084070D01*
X-7539837Y2083307D01*
X-8102092Y2083307D01*
X-8110118Y2082495D01*
X-8117382Y2080310D01*
X-8124037Y2076754D01*
X-8130235Y2071624D01*
X-8208975Y1992934D01*
X-8212074Y1990801D01*
X-8215731Y1989937D01*
X-8219440Y1990496D01*
X-8227923Y1993341D01*
X-8241334Y1996033D01*
X-8255000Y1996948D01*
X-8268665Y1996033D01*
X-8282076Y1993341D01*
X-8295030Y1988972D01*
X-8307324Y1982927D01*
X-8318703Y1975307D01*
X-8328964Y1966264D01*
X-8338007Y1956003D01*
X-8345627Y1944624D01*
X-8351672Y1932330D01*
X-8356041Y1919376D01*
X-8358733Y1905965D01*
X-8359648Y1892300D01*
X-8358733Y1878634D01*
X-8356041Y1865223D01*
X-8351672Y1852269D01*
X-8345627Y1839975D01*
X-8338007Y1828596D01*
X-8328964Y1818335D01*
X-8318703Y1809292D01*
X-8307324Y1801672D01*
X-8295030Y1795627D01*
X-8282076Y1791258D01*
X-8268665Y1788566D01*
X-8255000Y1787652D01*
X-8241334Y1788566D01*
X-8227923Y1791258D01*
X-8214969Y1795627D01*
X-8202675Y1801672D01*
X-8191296Y1809292D01*
X-8181035Y1818335D01*
X-8171992Y1828596D01*
X-8164372Y1839975D01*
X-8158327Y1852269D01*
X-8153958Y1865223D01*
X-8151266Y1878634D01*
X-8150352Y1892300D01*
X-8151266Y1905965D01*
X-8153958Y1919376D01*
X-8156803Y1927860D01*
X-8157362Y1931568D01*
X-8156498Y1935225D01*
X-8154365Y1938324D01*
X-8089595Y2003094D01*
X-8086293Y2005330D01*
X-8082381Y2006092D01*
X-7539939Y2006092D01*
X-7535875Y2005228D01*
X-7532471Y2002840D01*
X-7530338Y1999284D01*
X-7529525Y1996998D01*
X-7522819Y1983486D01*
X-7514488Y1970938D01*
X-7504684Y1959508D01*
X-7493558Y1949348D01*
X-7481214Y1940610D01*
X-7467955Y1933498D01*
X-7453884Y1928063D01*
X-7451750Y1927504D01*
X-7447889Y1925574D01*
X-7445146Y1922170D01*
X-7444079Y1917954D01*
X-7444892Y1913686D01*
X-7447381Y1910130D01*
X-7451140Y1907997D01*
X-7460996Y1904847D01*
X-7474712Y1898548D01*
X-7487513Y1890623D01*
X-7499248Y1881174D01*
X-7509764Y1870354D01*
X-7518857Y1858314D01*
X-7526375Y1845259D01*
X-7532268Y1831390D01*
X-7536383Y1816862D01*
X-7538669Y1801977D01*
X-7539126Y1786940D01*
X-7537754Y1771904D01*
X-7534554Y1757222D01*
X-7529525Y1742998D01*
X-7522819Y1729486D01*
X-7514488Y1716938D01*
X-7504684Y1705508D01*
X-7493558Y1695348D01*
X-7481214Y1686610D01*
X-7467955Y1679498D01*
X-7453884Y1674063D01*
X-7439304Y1670354D01*
X-7424318Y1668525D01*
X-7409281Y1668525D01*
X-7394295Y1670354D01*
X-7379716Y1674063D01*
X-7365644Y1679498D01*
X-7352334Y1686610D01*
X-7340041Y1695348D01*
X-7328916Y1705508D01*
X-7319111Y1716938D01*
X-7310780Y1729486D01*
X-7304074Y1742998D01*
X-7299045Y1757222D01*
X-7295845Y1771904D01*
X-7294473Y1786940D01*
X-7294930Y1801977D01*
X-7297216Y1816862D01*
X-7301331Y1831390D01*
X-7307224Y1845259D01*
X-7314742Y1858314D01*
X-7323836Y1870354D01*
X-7334351Y1881174D01*
X-7346086Y1890623D01*
X-7358888Y1898548D01*
X-7372603Y1904847D01*
X-7382459Y1907997D01*
X-7386218Y1910130D01*
X-7388707Y1913686D01*
X-7389520Y1917954D01*
X-7388453Y1922170D01*
X-7385710Y1925574D01*
X-7381849Y1927504D01*
X-7379716Y1928063D01*
X-7365644Y1933498D01*
X-7352334Y1940610D01*
X-7340041Y1949348D01*
X-7328916Y1959508D01*
X-7319111Y1970938D01*
X-7310780Y1983486D01*
X-7304074Y1996998D01*
X-7299045Y2011222D01*
X-7295845Y2025904D01*
X-7294473Y2040940D01*
X-7294930Y2055977D01*
X-7297216Y2070862D01*
X-7301331Y2085390D01*
X-7307224Y2099259D01*
X-7314742Y2112314D01*
X-7323836Y2124354D01*
X-7334351Y2135174D01*
X-7346086Y2144623D01*
X-7358888Y2152548D01*
X-7372603Y2158847D01*
X-7382459Y2161997D01*
X-7386218Y2164130D01*
X-7388707Y2167686D01*
X-7389520Y2171954D01*
X-7388453Y2176170D01*
X-7385710Y2179574D01*
X-7381849Y2181504D01*
X-7379716Y2182063D01*
X-7365644Y2187498D01*
X-7352334Y2194610D01*
X-7340041Y2203348D01*
X-7328916Y2213508D01*
X-7319111Y2224938D01*
X-7310780Y2237486D01*
X-7304074Y2250998D01*
X-7299045Y2265222D01*
X-7295845Y2279904D01*
X-7294473Y2294940D01*
X-7294930Y2309977D01*
X-7297216Y2324862D01*
X-7301331Y2339390D01*
X-7307224Y2353259D01*
X-7314742Y2366314D01*
X-7323836Y2378354D01*
X-7334351Y2389174D01*
X-7346086Y2398623D01*
X-7358888Y2406548D01*
X-7372603Y2412847D01*
X-7382459Y2415997D01*
X-7386218Y2418130D01*
X-7388707Y2421686D01*
X-7389520Y2425954D01*
X-7388453Y2430170D01*
X-7385710Y2433574D01*
X-7381849Y2435504D01*
X-7379716Y2436063D01*
X-7365644Y2441498D01*
X-7352334Y2448610D01*
X-7340041Y2457348D01*
X-7328916Y2467508D01*
X-7319111Y2478938D01*
X-7310780Y2491486D01*
X-7304074Y2504998D01*
X-7299045Y2519222D01*
X-7295845Y2533904D01*
X-7294473Y2548940D01*
X-7294930Y2563977D01*
X-7297216Y2578862D01*
X-7301331Y2593390D01*
X-7307224Y2607259D01*
X-7314742Y2620314D01*
X-7323836Y2632354D01*
X-7334351Y2643174D01*
X-7346086Y2652623D01*
X-7358888Y2660548D01*
X-7372603Y2666847D01*
X-7382459Y2669997D01*
X-7386218Y2672130D01*
X-7388707Y2675686D01*
X-7389520Y2679954D01*
X-7388453Y2684170D01*
X-7385710Y2687574D01*
X-7381849Y2689504D01*
X-7379716Y2690063D01*
X-7365644Y2695498D01*
X-7352334Y2702610D01*
X-7340041Y2711348D01*
X-7328916Y2721508D01*
X-7319111Y2732938D01*
X-7310780Y2745486D01*
X-7304074Y2758998D01*
X-7299045Y2773222D01*
X-7295845Y2787904D01*
X-7294473Y2802940D01*
X-7294930Y2817977D01*
X-7297216Y2832862D01*
X-7301331Y2847390D01*
X-7307224Y2861259D01*
X-7314742Y2874314D01*
X-7323836Y2886354D01*
X-7334351Y2897174D01*
X-7346086Y2906623D01*
X-7358888Y2914548D01*
X-7372603Y2920847D01*
X-7382459Y2923997D01*
X-7386218Y2926130D01*
X-7388707Y2929686D01*
X-7389520Y2933954D01*
X-7388453Y2938170D01*
X-7385710Y2941574D01*
X-7381849Y2943504D01*
X-7379716Y2944063D01*
X-7365644Y2949498D01*
X-7352334Y2956610D01*
X-7340041Y2965348D01*
X-7328916Y2975508D01*
X-7319111Y2986938D01*
X-7310780Y2999486D01*
X-7304074Y3012998D01*
X-7299045Y3027222D01*
X-7295845Y3041904D01*
X-7294473Y3056940D01*
X-7294930Y3071977D01*
X-7297216Y3086862D01*
X-7301331Y3101390D01*
X-7307224Y3115259D01*
X-7314742Y3128314D01*
X-7323836Y3140354D01*
X-7334351Y3151174D01*
X-7346086Y3160623D01*
X-7358888Y3168548D01*
X-7372603Y3174847D01*
X-7382459Y3177997D01*
X-7386218Y3180130D01*
X-7388707Y3183686D01*
X-7389520Y3187954D01*
X-7388453Y3192170D01*
X-7385710Y3195574D01*
X-7381849Y3197504D01*
X-7379716Y3198063D01*
X-7365644Y3203498D01*
X-7352334Y3210610D01*
X-7340041Y3219348D01*
X-7328916Y3229508D01*
X-7319111Y3240938D01*
X-7310780Y3253486D01*
X-7304074Y3266998D01*
X-7299045Y3281222D01*
X-7295845Y3295904D01*
X-7294473Y3310940D01*
X-7294930Y3325977D01*
X-7297216Y3340862D01*
X-7301331Y3355390D01*
X-7307224Y3369259D01*
X-7314742Y3382314D01*
X-7318146Y3386785D01*
X-7319975Y3390900D01*
X-7319924Y3395370D01*
X-7317943Y3399332D01*
X-7314387Y3402126D01*
X-7310069Y3403092D01*
X-4983530Y3403092D01*
X-4979212Y3402126D01*
X-4975656Y3399332D01*
X-4973675Y3395370D01*
X-4973624Y3390900D01*
X-4975453Y3386785D01*
X-4978857Y3382314D01*
X-4986375Y3369259D01*
X-4992268Y3355390D01*
X-4996383Y3340862D01*
X-4998669Y3325977D01*
X-4999126Y3310940D01*
X-4997754Y3295904D01*
X-4994554Y3281222D01*
X-4989525Y3266998D01*
X-4982819Y3253486D01*
X-4974488Y3240938D01*
X-4964684Y3229508D01*
X-4953558Y3219348D01*
X-4941214Y3210610D01*
X-4927955Y3203498D01*
X-4913884Y3198063D01*
X-4911750Y3197504D01*
X-4907889Y3195574D01*
X-4905146Y3192170D01*
X-4904079Y3187954D01*
X-4904892Y3183686D01*
X-4907381Y3180130D01*
X-4911140Y3177997D01*
X-4920996Y3174847D01*
X-4934712Y3168548D01*
X-4947513Y3160623D01*
X-4959248Y3151174D01*
X-4969764Y3140354D01*
X-4978857Y3128314D01*
X-4986375Y3115259D01*
X-4992268Y3101390D01*
X-4996383Y3086862D01*
X-4998669Y3071977D01*
X-4999126Y3056940D01*
X-4997754Y3041904D01*
X-4994554Y3027222D01*
X-4989525Y3012998D01*
X-4982819Y2999486D01*
X-4974488Y2986938D01*
X-4964684Y2975508D01*
X-4953558Y2965348D01*
X-4941214Y2956610D01*
X-4927955Y2949498D01*
X-4913884Y2944063D01*
X-4911750Y2943504D01*
X-4907889Y2941574D01*
X-4905146Y2938170D01*
X-4904079Y2933954D01*
X-4904892Y2929686D01*
X-4907381Y2926130D01*
X-4911140Y2923997D01*
X-4920996Y2920847D01*
X-4934712Y2914548D01*
X-4947513Y2906623D01*
X-4959248Y2897174D01*
X-4969764Y2886354D01*
X-4978857Y2874314D01*
X-4986375Y2861259D01*
X-4992268Y2847390D01*
X-4996383Y2832862D01*
X-4998669Y2817977D01*
X-4999126Y2802940D01*
X-4997754Y2787904D01*
X-4994554Y2773222D01*
X-4989525Y2758998D01*
X-4982819Y2745486D01*
X-4974488Y2732938D01*
X-4964684Y2721508D01*
X-4953558Y2711348D01*
X-4941214Y2702610D01*
X-4927955Y2695498D01*
X-4913884Y2690063D01*
X-4911750Y2689504D01*
X-4907889Y2687574D01*
X-4905146Y2684170D01*
X-4904079Y2679954D01*
X-4904892Y2675686D01*
X-4907381Y2672130D01*
X-4911140Y2669997D01*
X-4920996Y2666847D01*
X-4934712Y2660548D01*
X-4947513Y2652623D01*
X-4959248Y2643174D01*
X-4969764Y2632354D01*
X-4978857Y2620314D01*
X-4986375Y2607259D01*
X-4992268Y2593390D01*
X-4996383Y2578862D01*
X-4998669Y2563977D01*
X-4999126Y2548940D01*
X-4997754Y2533904D01*
X-4994554Y2519222D01*
X-4989525Y2504998D01*
X-4982819Y2491486D01*
X-4974488Y2478938D01*
X-4967630Y2470912D01*
X-4965700Y2467406D01*
X-4965242Y2463444D01*
X-4966360Y2459583D01*
X-4968900Y2456484D01*
X-4973574Y2452624D01*
X-5039461Y2386736D01*
X-5044592Y2380538D01*
X-5048148Y2373833D01*
X-5050332Y2366619D01*
X-5051145Y2358593D01*
X-5051145Y1418894D01*
X-5050332Y1410868D01*
X-5048148Y1403654D01*
X-5044592Y1397000D01*
X-5039461Y1390751D01*
X-4991100Y1342390D01*
X-4988864Y1339088D01*
X-4988102Y1335176D01*
X-4988915Y1331264D01*
X-4992268Y1323390D01*
X-4996383Y1308862D01*
X-4998669Y1293977D01*
X-4999126Y1278940D01*
X-4997754Y1263904D01*
X-4994554Y1249222D01*
X-4989525Y1234998D01*
X-4982819Y1221486D01*
X-4974488Y1208938D01*
X-4964684Y1197508D01*
X-4953558Y1187348D01*
X-4941214Y1178610D01*
X-4927955Y1171498D01*
X-4913884Y1166063D01*
X-4899304Y1162354D01*
X-4884318Y1160526D01*
X-4869281Y1160526D01*
X-4854295Y1162354D01*
X-4839716Y1166063D01*
X-4825644Y1171498D01*
X-4812334Y1178610D01*
X-4800041Y1187348D01*
X-4788916Y1197508D01*
X-4779111Y1208938D01*
X-4770780Y1221486D01*
X-4764074Y1234998D01*
X-4759045Y1249222D01*
X-4755845Y1263904D01*
X-4754473Y1278940D01*
X-4754930Y1293977D01*
X-4757216Y1308862D01*
X-4761331Y1323390D01*
X-4765192Y1332484D01*
X-4766005Y1336395D01*
X-4765243Y1340307D01*
X-4763058Y1343609D01*
X-4759756Y1345844D01*
X-4755845Y1346606D01*
X-4751984Y1345844D01*
X-4748682Y1343660D01*
X-4043934Y638962D01*
X-4036872Y633628D01*
X-4029303Y629869D01*
X-4021175Y627532D01*
X-4012285Y626719D01*
X-2296668Y626719D01*
X-2292756Y625957D01*
X-2289454Y623773D01*
X-1782267Y116585D01*
X-1779981Y112979D01*
X-1779320Y108762D01*
X-1780489Y104648D01*
X-1783283Y101346D01*
X-1787143Y99517D01*
X-1795525Y97485D01*
X-1808276Y92608D01*
X-1820214Y86055D01*
X-1831187Y77978D01*
X-1840992Y68478D01*
X-1849475Y57759D01*
X-1859127Y41554D01*
X-1862429Y39370D01*
X-1866290Y38608D01*
X-3427018Y38608D01*
X-3430879Y39370D01*
X-3434181Y41605D01*
X-3697478Y304850D01*
X-3699611Y307949D01*
X-3700424Y311658D01*
X-3699865Y315417D01*
X-3694684Y329996D01*
X-3691534Y344424D01*
X-3690162Y359105D01*
X-3690620Y373837D01*
X-3692906Y388416D01*
X-3696970Y402640D01*
X-3702710Y416204D01*
X-3710076Y429006D01*
X-3718966Y440791D01*
X-3729228Y451358D01*
X-3740759Y460654D01*
X-3753307Y468376D01*
X-3766718Y474573D01*
X-3780739Y479043D01*
X-3795268Y481736D01*
X-3810000Y482650D01*
X-3824732Y481736D01*
X-3839260Y479043D01*
X-3853281Y474573D01*
X-3866692Y468376D01*
X-3879240Y460654D01*
X-3890772Y451358D01*
X-3901033Y440791D01*
X-3909923Y429006D01*
X-3917289Y416204D01*
X-3923029Y402640D01*
X-3927094Y388416D01*
X-3929379Y373837D01*
X-3929786Y359105D01*
X-3928465Y344424D01*
X-3925315Y329996D01*
X-3920388Y316077D01*
X-3913784Y302869D01*
X-3905656Y290576D01*
X-3896055Y279349D01*
X-3885133Y269392D01*
X-3873093Y260858D01*
X-3860088Y253898D01*
X-3846322Y248564D01*
X-3832047Y244957D01*
X-3817365Y243128D01*
X-3802634Y243128D01*
X-3787952Y244957D01*
X-3773678Y248564D01*
X-3763060Y252679D01*
X-3759250Y253339D01*
X-3755440Y252577D01*
X-3752189Y250393D01*
X-3474872Y-26974D01*
X-3468624Y-32054D01*
X-3461969Y-35610D01*
X-3454755Y-37846D01*
X-3446729Y-38608D01*
X-1866290Y-38608D01*
X-1862429Y-39370D01*
X-1859127Y-41554D01*
X-1849475Y-57759D01*
X-1840992Y-68478D01*
X-1831187Y-77978D01*
X-1820214Y-86055D01*
X-1808276Y-92608D01*
X-1795525Y-97485D01*
X-1782267Y-100685D01*
X-1768703Y-102006D01*
X-1755089Y-101549D01*
X-1741627Y-99314D01*
X-1728622Y-95250D01*
X-1716227Y-89509D01*
X-1704746Y-82194D01*
X-1694332Y-73406D01*
X-1688338Y-66751D01*
X-1684832Y-64262D01*
X-1680616Y-63449D01*
X-1676400Y-64414D01*
X-1672996Y-67106D01*
X-1670456Y-70205D01*
X-1590649Y-149910D01*
X-1583588Y-155244D01*
X-1576019Y-159004D01*
X-1567891Y-161340D01*
G37*
G36*
X381000Y253492D02*
G01*
X396392Y254457D01*
X411530Y257200D01*
X426212Y261772D01*
X440232Y268122D01*
X453440Y276098D01*
X465531Y285597D01*
X476402Y296468D01*
X485901Y308559D01*
X493877Y321767D01*
X500227Y335788D01*
X504799Y350469D01*
X507542Y365607D01*
X508508Y381000D01*
X507542Y396392D01*
X504799Y411530D01*
X500227Y426212D01*
X493877Y440232D01*
X485901Y453440D01*
X476402Y465531D01*
X465531Y476402D01*
X453440Y485901D01*
X440232Y493877D01*
X426212Y500227D01*
X411530Y504799D01*
X396392Y507542D01*
X381000Y508508D01*
X365607Y507542D01*
X350469Y504799D01*
X335788Y500227D01*
X321767Y493877D01*
X308559Y485901D01*
X296468Y476402D01*
X285597Y465531D01*
X276098Y453440D01*
X268122Y440232D01*
X261772Y426212D01*
X257200Y411530D01*
X254457Y396392D01*
X253492Y381000D01*
X254457Y365607D01*
X257200Y350469D01*
X261772Y335788D01*
X268122Y321767D01*
X276098Y308559D01*
X285597Y296468D01*
X296468Y285597D01*
X308559Y276098D01*
X321767Y268122D01*
X335788Y261772D01*
X350469Y257200D01*
X365607Y254457D01*
G37*
G36*
X-8001000Y253492D02*
G01*
X-7985607Y254457D01*
X-7970469Y257200D01*
X-7955788Y261772D01*
X-7941767Y268122D01*
X-7928559Y276098D01*
X-7916468Y285597D01*
X-7905597Y296468D01*
X-7896098Y308559D01*
X-7888122Y321767D01*
X-7881772Y335788D01*
X-7877200Y350469D01*
X-7874457Y365607D01*
X-7873492Y381000D01*
X-7874457Y396392D01*
X-7877200Y411530D01*
X-7881772Y426212D01*
X-7888122Y440232D01*
X-7896098Y453440D01*
X-7905597Y465531D01*
X-7916468Y476402D01*
X-7928559Y485901D01*
X-7941767Y493877D01*
X-7955788Y500227D01*
X-7970469Y504799D01*
X-7985607Y507542D01*
X-8001000Y508508D01*
X-8016392Y507542D01*
X-8031530Y504799D01*
X-8046212Y500227D01*
X-8060232Y493877D01*
X-8073440Y485901D01*
X-8085531Y476402D01*
X-8096402Y465531D01*
X-8105902Y453440D01*
X-8113877Y440232D01*
X-8120227Y426212D01*
X-8124799Y411530D01*
X-8127542Y396392D01*
X-8128508Y381000D01*
X-8127542Y365607D01*
X-8124799Y350469D01*
X-8120227Y335788D01*
X-8113877Y321767D01*
X-8105902Y308559D01*
X-8096402Y296468D01*
X-8085531Y285597D01*
X-8073440Y276098D01*
X-8060232Y268122D01*
X-8046212Y261772D01*
X-8031530Y257200D01*
X-8016392Y254457D01*
G37*
G36*
X-7424318Y1160526D02*
G01*
X-7409281Y1160526D01*
X-7394295Y1162354D01*
X-7379716Y1166063D01*
X-7365644Y1171498D01*
X-7352334Y1178610D01*
X-7340041Y1187348D01*
X-7328916Y1197508D01*
X-7319111Y1208938D01*
X-7310780Y1221486D01*
X-7304074Y1234998D01*
X-7299045Y1249222D01*
X-7295845Y1263904D01*
X-7294473Y1278940D01*
X-7294930Y1293977D01*
X-7297216Y1308862D01*
X-7301585Y1324000D01*
X-7302398Y1327912D01*
X-7301636Y1331823D01*
X-7299452Y1335125D01*
X-6487414Y2147163D01*
X-6484112Y2149398D01*
X-6480200Y2150160D01*
X-5530342Y2150160D01*
X-5527294Y2149652D01*
X-5522976Y2147214D01*
X-5514086Y2143099D01*
X-5504586Y2140559D01*
X-5494782Y2139696D01*
X-5484977Y2140559D01*
X-5475528Y2143099D01*
X-5466588Y2147214D01*
X-5458561Y2152853D01*
X-5451602Y2159812D01*
X-5445963Y2167890D01*
X-5441797Y2176780D01*
X-5439257Y2186279D01*
X-5438394Y2196033D01*
X-5439257Y2205837D01*
X-5441797Y2215337D01*
X-5445963Y2224227D01*
X-5451602Y2232304D01*
X-5458561Y2239213D01*
X-5466588Y2244852D01*
X-5475528Y2249017D01*
X-5484977Y2251557D01*
X-5494782Y2252421D01*
X-5504586Y2251557D01*
X-5514086Y2249017D01*
X-5522976Y2244852D01*
X-5527294Y2242413D01*
X-5530342Y2241956D01*
X-6505194Y2241905D01*
X-6513931Y2240686D01*
X-6521957Y2237994D01*
X-6529374Y2233879D01*
X-6536232Y2228189D01*
X-7288428Y1475994D01*
X-7291831Y1473758D01*
X-7295794Y1472996D01*
X-7299807Y1473911D01*
X-7303058Y1476298D01*
X-7305192Y1479753D01*
X-7305497Y1482090D01*
X-7362190Y1482090D01*
X-7362190Y1425600D01*
X-7358583Y1424533D01*
X-7355586Y1422146D01*
X-7353706Y1418894D01*
X-7353147Y1415135D01*
X-7353960Y1411478D01*
X-7356094Y1408328D01*
X-7364425Y1399997D01*
X-7367473Y1397914D01*
X-7371029Y1397050D01*
X-7374686Y1397508D01*
X-7386929Y1401419D01*
X-7401763Y1404162D01*
X-7416800Y1405128D01*
X-7431836Y1404162D01*
X-7446670Y1401419D01*
X-7460996Y1396847D01*
X-7474712Y1390548D01*
X-7487513Y1382623D01*
X-7499248Y1373174D01*
X-7509764Y1362354D01*
X-7518857Y1350314D01*
X-7526375Y1337259D01*
X-7532268Y1323390D01*
X-7536383Y1308862D01*
X-7538669Y1293977D01*
X-7539126Y1278940D01*
X-7537754Y1263904D01*
X-7534554Y1249222D01*
X-7529525Y1234998D01*
X-7522819Y1221486D01*
X-7514488Y1208938D01*
X-7504684Y1197508D01*
X-7493558Y1187348D01*
X-7481214Y1178610D01*
X-7467955Y1171498D01*
X-7453884Y1166063D01*
X-7439304Y1162354D01*
G37*
G36*
X-8209280Y1279652D02*
G01*
X-8176818Y1279652D01*
X-8170519Y1280363D01*
X-8165033Y1282293D01*
X-8160156Y1285341D01*
X-8156041Y1289456D01*
X-8152993Y1294333D01*
X-8151063Y1299819D01*
X-8150352Y1306118D01*
X-8150352Y1338580D01*
X-8209280Y1338580D01*
G37*
G36*
X-8333181Y1279652D02*
G01*
X-8300720Y1279652D01*
X-8300720Y1338580D01*
X-8359648Y1338580D01*
X-8359648Y1306118D01*
X-8358936Y1299819D01*
X-8357006Y1294333D01*
X-8353958Y1289456D01*
X-8349843Y1285341D01*
X-8344966Y1282293D01*
X-8339480Y1280363D01*
G37*
G36*
X-7471409Y1427327D02*
G01*
X-7471409Y1482090D01*
X-7526070Y1482090D01*
X-7522819Y1475486D01*
X-7514488Y1462938D01*
X-7504684Y1451508D01*
X-7493558Y1441348D01*
X-7481214Y1432610D01*
G37*
G36*
X-8359648Y1430020D02*
G01*
X-8300720Y1430020D01*
X-8300720Y1488948D01*
X-8333181Y1488948D01*
X-8339480Y1488236D01*
X-8344966Y1486306D01*
X-8349843Y1483258D01*
X-8353958Y1479143D01*
X-8357006Y1474266D01*
X-8358936Y1468780D01*
X-8359648Y1462481D01*
G37*
G36*
X-8209280Y1430020D02*
G01*
X-8150352Y1430020D01*
X-8150352Y1462481D01*
X-8151063Y1468780D01*
X-8152993Y1474266D01*
X-8156041Y1479143D01*
X-8160156Y1483258D01*
X-8165033Y1486306D01*
X-8170519Y1488236D01*
X-8176818Y1488948D01*
X-8209280Y1488948D01*
G37*
G36*
X-8255000Y1533652D02*
G01*
X-8241334Y1534566D01*
X-8227923Y1537258D01*
X-8214969Y1541627D01*
X-8202675Y1547672D01*
X-8191296Y1555292D01*
X-8181035Y1564335D01*
X-8171992Y1574596D01*
X-8164372Y1585976D01*
X-8158327Y1598269D01*
X-8153958Y1611223D01*
X-8151266Y1624634D01*
X-8150352Y1638300D01*
X-8151266Y1651965D01*
X-8153958Y1665376D01*
X-8158327Y1678330D01*
X-8164372Y1690624D01*
X-8171992Y1702003D01*
X-8181035Y1712264D01*
X-8191296Y1721307D01*
X-8202675Y1728927D01*
X-8214969Y1734972D01*
X-8227923Y1739341D01*
X-8241334Y1742033D01*
X-8255000Y1742948D01*
X-8268665Y1742033D01*
X-8282076Y1739341D01*
X-8295030Y1734972D01*
X-8307324Y1728927D01*
X-8318703Y1721307D01*
X-8328964Y1712264D01*
X-8338007Y1702003D01*
X-8345627Y1690624D01*
X-8351672Y1678330D01*
X-8356041Y1665376D01*
X-8358733Y1651965D01*
X-8359648Y1638300D01*
X-8358733Y1624634D01*
X-8356041Y1611223D01*
X-8351672Y1598269D01*
X-8345627Y1585976D01*
X-8338007Y1574596D01*
X-8328964Y1564335D01*
X-8318703Y1555292D01*
X-8307324Y1547672D01*
X-8295030Y1541627D01*
X-8282076Y1537258D01*
X-8268665Y1534566D01*
G37*
G36*
X-7526324Y1591310D02*
G01*
X-7471409Y1591310D01*
X-7471409Y1646072D01*
X-7474712Y1644548D01*
X-7487513Y1636623D01*
X-7499248Y1627174D01*
X-7509764Y1616354D01*
X-7518857Y1604314D01*
G37*
G36*
X-7362190Y1591310D02*
G01*
X-7307275Y1591310D01*
X-7314742Y1604314D01*
X-7323836Y1616354D01*
X-7334351Y1627174D01*
X-7346086Y1636623D01*
X-7358888Y1644548D01*
X-7362190Y1646072D01*
G37*
G36*
X-8255000Y2041652D02*
G01*
X-8241334Y2042566D01*
X-8227923Y2045258D01*
X-8214969Y2049627D01*
X-8202675Y2055672D01*
X-8191296Y2063292D01*
X-8181035Y2072335D01*
X-8171992Y2082596D01*
X-8164372Y2093975D01*
X-8158327Y2106269D01*
X-8153958Y2119223D01*
X-8151266Y2132634D01*
X-8150352Y2146300D01*
X-8151266Y2159965D01*
X-8153958Y2173376D01*
X-8158327Y2186330D01*
X-8164372Y2198624D01*
X-8171992Y2210003D01*
X-8181035Y2220264D01*
X-8191296Y2229307D01*
X-8202675Y2236927D01*
X-8214969Y2242972D01*
X-8227923Y2247341D01*
X-8241334Y2250033D01*
X-8255000Y2250948D01*
X-8268665Y2250033D01*
X-8282076Y2247341D01*
X-8295030Y2242972D01*
X-8307324Y2236927D01*
X-8318703Y2229307D01*
X-8328964Y2220264D01*
X-8338007Y2210003D01*
X-8345627Y2198624D01*
X-8351672Y2186330D01*
X-8356041Y2173376D01*
X-8358733Y2159965D01*
X-8359648Y2146300D01*
X-8358733Y2132634D01*
X-8356041Y2119223D01*
X-8351672Y2106269D01*
X-8345627Y2093975D01*
X-8338007Y2082596D01*
X-8328964Y2072335D01*
X-8318703Y2063292D01*
X-8307324Y2055672D01*
X-8295030Y2049627D01*
X-8282076Y2045258D01*
X-8268665Y2042566D01*
G37*
G36*
X-8255000Y2803652D02*
G01*
X-8241334Y2804566D01*
X-8227923Y2807258D01*
X-8214969Y2811627D01*
X-8202675Y2817672D01*
X-8191296Y2825292D01*
X-8181035Y2834335D01*
X-8171992Y2844596D01*
X-8164372Y2855976D01*
X-8158327Y2868269D01*
X-8153958Y2881223D01*
X-8151266Y2894634D01*
X-8150352Y2908300D01*
X-8151266Y2921965D01*
X-8153958Y2935376D01*
X-8158327Y2948330D01*
X-8164372Y2960624D01*
X-8171992Y2972003D01*
X-8181035Y2982264D01*
X-8191296Y2991307D01*
X-8202675Y2998927D01*
X-8214969Y3004972D01*
X-8227923Y3009341D01*
X-8241334Y3012033D01*
X-8255000Y3012948D01*
X-8268665Y3012033D01*
X-8282076Y3009341D01*
X-8295030Y3004972D01*
X-8307324Y2998927D01*
X-8318703Y2991307D01*
X-8328964Y2982264D01*
X-8338007Y2972003D01*
X-8345627Y2960624D01*
X-8351672Y2948330D01*
X-8356041Y2935376D01*
X-8358733Y2921965D01*
X-8359648Y2908300D01*
X-8358733Y2894634D01*
X-8356041Y2881223D01*
X-8351672Y2868269D01*
X-8345627Y2855976D01*
X-8338007Y2844596D01*
X-8328964Y2834335D01*
X-8318703Y2825292D01*
X-8307324Y2817672D01*
X-8295030Y2811627D01*
X-8282076Y2807258D01*
X-8268665Y2804566D01*
G37*
G36*
X-3804665Y3456228D02*
G01*
X-3789934Y3456228D01*
X-3775252Y3458057D01*
X-3760978Y3461664D01*
X-3747211Y3466998D01*
X-3734206Y3473958D01*
X-3722166Y3482492D01*
X-3711244Y3492449D01*
X-3701643Y3503676D01*
X-3693515Y3515969D01*
X-3686911Y3529177D01*
X-3681984Y3543096D01*
X-3678834Y3557524D01*
X-3677462Y3572205D01*
X-3677920Y3586937D01*
X-3680206Y3601516D01*
X-3684270Y3615740D01*
X-3690010Y3629304D01*
X-3697376Y3642106D01*
X-3706266Y3653891D01*
X-3716528Y3664458D01*
X-3728059Y3673754D01*
X-3740607Y3681476D01*
X-3754018Y3687673D01*
X-3768039Y3692144D01*
X-3782568Y3694836D01*
X-3797300Y3695750D01*
X-3812032Y3694836D01*
X-3826560Y3692144D01*
X-3840581Y3687673D01*
X-3853992Y3681476D01*
X-3866540Y3673754D01*
X-3878072Y3664458D01*
X-3888333Y3653891D01*
X-3897223Y3642106D01*
X-3904589Y3629304D01*
X-3910329Y3615740D01*
X-3914394Y3601516D01*
X-3916679Y3586937D01*
X-3917086Y3572205D01*
X-3915765Y3557524D01*
X-3912615Y3543096D01*
X-3907688Y3529177D01*
X-3901084Y3515969D01*
X-3892956Y3503676D01*
X-3883355Y3492449D01*
X-3872433Y3482492D01*
X-3860393Y3473958D01*
X-3847388Y3466998D01*
X-3833622Y3461664D01*
X-3819347Y3458057D01*
G37*
G36*
X-8255000Y3714292D02*
G01*
X-8240877Y3715258D01*
X-8226958Y3718001D01*
X-8213547Y3722573D01*
X-8200796Y3728821D01*
X-8189010Y3736695D01*
X-8178342Y3746042D01*
X-8168995Y3756710D01*
X-8161121Y3768496D01*
X-8154873Y3781247D01*
X-8150301Y3794658D01*
X-8147558Y3808577D01*
X-8146592Y3822700D01*
X-8147558Y3836822D01*
X-8150301Y3850741D01*
X-8154873Y3864152D01*
X-8161121Y3876903D01*
X-8168995Y3888689D01*
X-8178342Y3899357D01*
X-8189010Y3908704D01*
X-8200796Y3916578D01*
X-8213547Y3922826D01*
X-8226958Y3927398D01*
X-8240877Y3930142D01*
X-8255000Y3931107D01*
X-8269122Y3930142D01*
X-8283041Y3927398D01*
X-8296452Y3922826D01*
X-8309203Y3916578D01*
X-8320989Y3908704D01*
X-8331657Y3899357D01*
X-8341004Y3888689D01*
X-8348878Y3876903D01*
X-8355126Y3864152D01*
X-8359698Y3850741D01*
X-8362442Y3836822D01*
X-8363407Y3822700D01*
X-8362442Y3808577D01*
X-8359698Y3794658D01*
X-8355126Y3781247D01*
X-8348878Y3768496D01*
X-8341004Y3756710D01*
X-8331657Y3746042D01*
X-8320989Y3736695D01*
X-8309203Y3728821D01*
X-8296452Y3722573D01*
X-8283041Y3718001D01*
X-8269122Y3715258D01*
G37*
G36*
X-8255000Y4273092D02*
G01*
X-8240877Y4274058D01*
X-8226958Y4276801D01*
X-8213547Y4281373D01*
X-8200796Y4287621D01*
X-8189010Y4295495D01*
X-8178342Y4304842D01*
X-8168995Y4315510D01*
X-8161121Y4327296D01*
X-8154873Y4340047D01*
X-8150301Y4353458D01*
X-8147558Y4367377D01*
X-8146592Y4381500D01*
X-8147558Y4395622D01*
X-8150301Y4409541D01*
X-8153857Y4420006D01*
X-8154416Y4423714D01*
X-8153552Y4427372D01*
X-8151418Y4430471D01*
X-6877608Y5704281D01*
X-6874306Y5706516D01*
X-6870395Y5707278D01*
X-3917746Y5707278D01*
X-3913682Y5706414D01*
X-3910279Y5704027D01*
X-3901084Y5685942D01*
X-3892956Y5673648D01*
X-3883355Y5662422D01*
X-3872433Y5652516D01*
X-3860393Y5643981D01*
X-3847388Y5636971D01*
X-3833622Y5631637D01*
X-3819347Y5628030D01*
X-3804665Y5626252D01*
X-3789934Y5626252D01*
X-3775252Y5628030D01*
X-3760978Y5631637D01*
X-3747211Y5636971D01*
X-3734206Y5643981D01*
X-3722166Y5652516D01*
X-3711244Y5662422D01*
X-3701643Y5673648D01*
X-3693515Y5685942D01*
X-3686911Y5699150D01*
X-3681984Y5713069D01*
X-3678834Y5727496D01*
X-3677462Y5742178D01*
X-3677920Y5756960D01*
X-3680206Y5771540D01*
X-3684270Y5785713D01*
X-3690010Y5799328D01*
X-3697376Y5812078D01*
X-3706266Y5823864D01*
X-3716528Y5834481D01*
X-3728059Y5843727D01*
X-3740607Y5851499D01*
X-3754018Y5857646D01*
X-3768039Y5862116D01*
X-3782568Y5864860D01*
X-3797300Y5865774D01*
X-3812032Y5864860D01*
X-3826560Y5862116D01*
X-3840581Y5857646D01*
X-3853992Y5851499D01*
X-3866540Y5843727D01*
X-3878072Y5834481D01*
X-3888333Y5823864D01*
X-3897223Y5812078D01*
X-3904589Y5799328D01*
X-3908247Y5790692D01*
X-3910482Y5787440D01*
X-3913733Y5785256D01*
X-3917594Y5784494D01*
X-6890105Y5784494D01*
X-6898131Y5783681D01*
X-6905396Y5781497D01*
X-6912051Y5777941D01*
X-6918248Y5772810D01*
X-8206028Y4485081D01*
X-8209127Y4482947D01*
X-8212785Y4482084D01*
X-8216493Y4482642D01*
X-8226958Y4486198D01*
X-8240877Y4488942D01*
X-8255000Y4489907D01*
X-8269122Y4488942D01*
X-8283041Y4486198D01*
X-8296452Y4481626D01*
X-8309203Y4475378D01*
X-8320989Y4467504D01*
X-8331657Y4458157D01*
X-8341004Y4447489D01*
X-8348878Y4435703D01*
X-8355126Y4422952D01*
X-8359698Y4409541D01*
X-8362442Y4395622D01*
X-8363407Y4381500D01*
X-8362442Y4367377D01*
X-8359698Y4353458D01*
X-8355126Y4340047D01*
X-8348878Y4327296D01*
X-8341004Y4315510D01*
X-8331657Y4304842D01*
X-8320989Y4295495D01*
X-8309203Y4287621D01*
X-8296452Y4281373D01*
X-8283041Y4276801D01*
X-8269122Y4274058D01*
G37*
G36*
X-8255000Y4527092D02*
G01*
X-8240877Y4528058D01*
X-8226958Y4530801D01*
X-8213547Y4535373D01*
X-8200796Y4541621D01*
X-8189010Y4549495D01*
X-8178342Y4558842D01*
X-8168995Y4569510D01*
X-8161121Y4581296D01*
X-8154873Y4594047D01*
X-8150301Y4607458D01*
X-8147558Y4621377D01*
X-8146592Y4635500D01*
X-8147558Y4649622D01*
X-8150301Y4663541D01*
X-8154873Y4676952D01*
X-8161121Y4689703D01*
X-8168995Y4701489D01*
X-8178342Y4712157D01*
X-8189010Y4721504D01*
X-8200796Y4729378D01*
X-8213547Y4735626D01*
X-8226958Y4740198D01*
X-8240877Y4742942D01*
X-8255000Y4743907D01*
X-8269122Y4742942D01*
X-8283041Y4740198D01*
X-8296452Y4735626D01*
X-8309203Y4729378D01*
X-8320989Y4721504D01*
X-8331657Y4712157D01*
X-8341004Y4701489D01*
X-8348878Y4689703D01*
X-8355126Y4676952D01*
X-8359698Y4663541D01*
X-8362442Y4649622D01*
X-8363407Y4635500D01*
X-8362442Y4621377D01*
X-8359698Y4607458D01*
X-8355126Y4594047D01*
X-8348878Y4581296D01*
X-8341004Y4569510D01*
X-8331657Y4558842D01*
X-8320989Y4549495D01*
X-8309203Y4541621D01*
X-8296452Y4535373D01*
X-8283041Y4530801D01*
X-8269122Y4528058D01*
G37*
G36*
X-2674264Y4545228D02*
G01*
X-2659735Y4545228D01*
X-2645308Y4547057D01*
X-2631186Y4550664D01*
X-2617673Y4556048D01*
X-2604922Y4563059D01*
X-2593136Y4571593D01*
X-2582519Y4581550D01*
X-2573223Y4592777D01*
X-2565450Y4605070D01*
X-2559253Y4618228D01*
X-2554732Y4632096D01*
X-2552039Y4646371D01*
X-2551125Y4660900D01*
X-2552039Y4675428D01*
X-2554732Y4689703D01*
X-2559253Y4703572D01*
X-2565450Y4716729D01*
X-2573223Y4729022D01*
X-2582519Y4740249D01*
X-2593136Y4750206D01*
X-2604922Y4758740D01*
X-2617673Y4765751D01*
X-2631186Y4771136D01*
X-2645308Y4774742D01*
X-2659735Y4776571D01*
X-2674264Y4776571D01*
X-2688691Y4774742D01*
X-2702814Y4771136D01*
X-2716326Y4765751D01*
X-2729077Y4758740D01*
X-2740863Y4750206D01*
X-2751480Y4740249D01*
X-2760776Y4729022D01*
X-2768549Y4716729D01*
X-2774746Y4703572D01*
X-2779268Y4689703D01*
X-2781960Y4675428D01*
X-2782874Y4660900D01*
X-2781960Y4646371D01*
X-2779268Y4632096D01*
X-2774746Y4618228D01*
X-2768549Y4605070D01*
X-2760776Y4592777D01*
X-2751480Y4581550D01*
X-2740863Y4571593D01*
X-2729077Y4563059D01*
X-2716326Y4556048D01*
X-2702814Y4550664D01*
X-2688691Y4547057D01*
G37*
G36*
X-8255000Y5073192D02*
G01*
X-8240877Y5074158D01*
X-8226958Y5076901D01*
X-8213547Y5081473D01*
X-8200796Y5087721D01*
X-8189010Y5095595D01*
X-8178342Y5104942D01*
X-8168995Y5115610D01*
X-8161121Y5127396D01*
X-8156244Y5137302D01*
X-8154009Y5140299D01*
X-8150809Y5142280D01*
X-8147151Y5142992D01*
X-7765999Y5142992D01*
X-7757972Y5143754D01*
X-7750759Y5145989D01*
X-7744053Y5149545D01*
X-7737856Y5154625D01*
X-4964328Y7928152D01*
X-4961026Y7930388D01*
X-4957114Y7931150D01*
X-4901234Y7931150D01*
X-4901234Y7987030D01*
X-4900472Y7990890D01*
X-4898288Y7994192D01*
X-3923944Y8968536D01*
X-3920185Y8970924D01*
X-3915765Y8971432D01*
X-3911549Y8970060D01*
X-3908298Y8966962D01*
X-3905656Y8962948D01*
X-3896055Y8951722D01*
X-3885133Y8941816D01*
X-3873093Y8933281D01*
X-3860088Y8926271D01*
X-3846322Y8920937D01*
X-3832047Y8917330D01*
X-3817365Y8915552D01*
X-3802634Y8915552D01*
X-3787952Y8917330D01*
X-3773678Y8920937D01*
X-3759911Y8926271D01*
X-3746906Y8933281D01*
X-3734866Y8941816D01*
X-3723944Y8951722D01*
X-3714343Y8962948D01*
X-3706215Y8975242D01*
X-3699611Y8988450D01*
X-3694684Y9002369D01*
X-3691534Y9016796D01*
X-3690162Y9031478D01*
X-3690620Y9046260D01*
X-3692906Y9060840D01*
X-3696970Y9075013D01*
X-3702710Y9088628D01*
X-3710076Y9101378D01*
X-3718966Y9113164D01*
X-3729228Y9123781D01*
X-3740759Y9133027D01*
X-3753307Y9140799D01*
X-3766718Y9146946D01*
X-3780739Y9151416D01*
X-3795268Y9154160D01*
X-3810000Y9155074D01*
X-3824732Y9154160D01*
X-3839260Y9151416D01*
X-3853281Y9146946D01*
X-3866692Y9140799D01*
X-3879240Y9133027D01*
X-3890772Y9123781D01*
X-3901033Y9113164D01*
X-3909923Y9101378D01*
X-3917289Y9088628D01*
X-3922928Y9075369D01*
X-3924757Y9072473D01*
X-3927449Y9070390D01*
X-3933342Y9067241D01*
X-3939540Y9062110D01*
X-7778496Y5223205D01*
X-7781798Y5220970D01*
X-7785709Y5220208D01*
X-8147151Y5220208D01*
X-8150809Y5220919D01*
X-8154009Y5222849D01*
X-8156244Y5225846D01*
X-8161121Y5235803D01*
X-8168995Y5247589D01*
X-8178342Y5258257D01*
X-8189010Y5267604D01*
X-8200796Y5275478D01*
X-8213547Y5281726D01*
X-8226958Y5286298D01*
X-8240877Y5289042D01*
X-8255000Y5290007D01*
X-8269122Y5289042D01*
X-8283041Y5286298D01*
X-8296452Y5281726D01*
X-8309203Y5275478D01*
X-8320989Y5267604D01*
X-8331657Y5258257D01*
X-8341004Y5247589D01*
X-8348878Y5235803D01*
X-8355126Y5223052D01*
X-8359698Y5209641D01*
X-8362442Y5195722D01*
X-8363407Y5181600D01*
X-8362442Y5167477D01*
X-8359698Y5153558D01*
X-8355126Y5140147D01*
X-8348878Y5127396D01*
X-8341004Y5115610D01*
X-8331657Y5104942D01*
X-8320989Y5095595D01*
X-8309203Y5087721D01*
X-8296452Y5081473D01*
X-8283041Y5076901D01*
X-8269122Y5074158D01*
G37*
G36*
X-8255000Y5327192D02*
G01*
X-8240877Y5328158D01*
X-8226958Y5330901D01*
X-8213547Y5335473D01*
X-8200796Y5341721D01*
X-8189010Y5349595D01*
X-8178342Y5358942D01*
X-8168995Y5369610D01*
X-8161121Y5381396D01*
X-8154873Y5394147D01*
X-8150301Y5407558D01*
X-8147558Y5421477D01*
X-8146592Y5435600D01*
X-8147558Y5449722D01*
X-8150301Y5463641D01*
X-8154873Y5477052D01*
X-8161121Y5489803D01*
X-8168995Y5501589D01*
X-8178342Y5512257D01*
X-8189010Y5521604D01*
X-8200796Y5529478D01*
X-8213547Y5535726D01*
X-8226958Y5540298D01*
X-8240877Y5543042D01*
X-8255000Y5544007D01*
X-8269122Y5543042D01*
X-8283041Y5540298D01*
X-8296452Y5535726D01*
X-8309203Y5529478D01*
X-8320989Y5521604D01*
X-8331657Y5512257D01*
X-8341004Y5501589D01*
X-8348878Y5489803D01*
X-8355126Y5477052D01*
X-8359698Y5463641D01*
X-8362442Y5449722D01*
X-8363407Y5435600D01*
X-8362442Y5421477D01*
X-8359698Y5407558D01*
X-8355126Y5394147D01*
X-8348878Y5381396D01*
X-8341004Y5369610D01*
X-8331657Y5358942D01*
X-8320989Y5349595D01*
X-8309203Y5341721D01*
X-8296452Y5335473D01*
X-8283041Y5330901D01*
X-8269122Y5328158D01*
G37*
G36*
X-2674264Y5561228D02*
G01*
X-2659735Y5561228D01*
X-2645308Y5563057D01*
X-2631186Y5566664D01*
X-2617673Y5572048D01*
X-2604922Y5579059D01*
X-2593136Y5587593D01*
X-2582519Y5597550D01*
X-2573223Y5608777D01*
X-2565450Y5621070D01*
X-2559253Y5634228D01*
X-2554732Y5648096D01*
X-2552039Y5662371D01*
X-2551125Y5676900D01*
X-2552039Y5691428D01*
X-2554732Y5705703D01*
X-2559253Y5719572D01*
X-2565450Y5732729D01*
X-2573223Y5745022D01*
X-2582519Y5756249D01*
X-2593136Y5766206D01*
X-2604922Y5774740D01*
X-2617673Y5781751D01*
X-2631186Y5787136D01*
X-2645308Y5790742D01*
X-2659735Y5792571D01*
X-2674264Y5792571D01*
X-2688691Y5790742D01*
X-2702814Y5787136D01*
X-2716326Y5781751D01*
X-2729077Y5774740D01*
X-2740863Y5766206D01*
X-2751480Y5756249D01*
X-2760776Y5745022D01*
X-2768549Y5732729D01*
X-2774746Y5719572D01*
X-2779268Y5705703D01*
X-2781960Y5691428D01*
X-2782874Y5676900D01*
X-2781960Y5662371D01*
X-2779268Y5648096D01*
X-2774746Y5634228D01*
X-2768549Y5621070D01*
X-2760776Y5608777D01*
X-2751480Y5597550D01*
X-2740863Y5587593D01*
X-2729077Y5579059D01*
X-2716326Y5572048D01*
X-2702814Y5566664D01*
X-2688691Y5563057D01*
G37*
G36*
X-2615641Y5827166D02*
G01*
X-2604922Y5833059D01*
X-2593136Y5841593D01*
X-2582519Y5851550D01*
X-2573223Y5862777D01*
X-2565450Y5875070D01*
X-2563317Y5879541D01*
X-2615641Y5879541D01*
G37*
G36*
X-2718358Y5827166D02*
G01*
X-2718358Y5879541D01*
X-2770682Y5879541D01*
X-2768549Y5875070D01*
X-2760776Y5862777D01*
X-2751480Y5851550D01*
X-2740863Y5841593D01*
X-2729077Y5833059D01*
G37*
G36*
X-2770682Y5982258D02*
G01*
X-2718358Y5982258D01*
X-2718358Y6034633D01*
X-2729077Y6028740D01*
X-2740863Y6020206D01*
X-2751480Y6010249D01*
X-2760776Y5999022D01*
X-2768549Y5986729D01*
G37*
G36*
X-2615641Y5982258D02*
G01*
X-2563317Y5982258D01*
X-2565450Y5986729D01*
X-2573223Y5999022D01*
X-2582519Y6010249D01*
X-2593136Y6020206D01*
X-2604922Y6028740D01*
X-2615641Y6034633D01*
G37*
G36*
X-4893564Y6349492D02*
G01*
X-4878171Y6350457D01*
X-4863033Y6353200D01*
X-4848352Y6357772D01*
X-4834331Y6364122D01*
X-4821123Y6372098D01*
X-4809032Y6381597D01*
X-4798161Y6392468D01*
X-4788662Y6404559D01*
X-4780686Y6417767D01*
X-4774336Y6431788D01*
X-4769764Y6446469D01*
X-4767021Y6461607D01*
X-4766056Y6477000D01*
X-4767021Y6492392D01*
X-4769764Y6507530D01*
X-4774336Y6522212D01*
X-4780686Y6536232D01*
X-4788662Y6549440D01*
X-4798161Y6561531D01*
X-4809032Y6572402D01*
X-4821123Y6581902D01*
X-4834331Y6589877D01*
X-4848352Y6596227D01*
X-4863033Y6600799D01*
X-4878171Y6603542D01*
X-4893564Y6604508D01*
X-4908956Y6603542D01*
X-4924094Y6600799D01*
X-4938776Y6596227D01*
X-4952796Y6589877D01*
X-4966004Y6581902D01*
X-4978095Y6572402D01*
X-4988966Y6561531D01*
X-4998466Y6549440D01*
X-5006441Y6536232D01*
X-5012791Y6522212D01*
X-5017363Y6507530D01*
X-5020106Y6492392D01*
X-5021072Y6477000D01*
X-5020106Y6461607D01*
X-5017363Y6446469D01*
X-5012791Y6431788D01*
X-5006441Y6417767D01*
X-4998466Y6404559D01*
X-4988966Y6392468D01*
X-4978095Y6381597D01*
X-4966004Y6372098D01*
X-4952796Y6364122D01*
X-4938776Y6357772D01*
X-4924094Y6353200D01*
X-4908956Y6350457D01*
G37*
G36*
X-7213600Y6349492D02*
G01*
X-7198207Y6350457D01*
X-7183069Y6353200D01*
X-7168388Y6357772D01*
X-7154367Y6364122D01*
X-7141159Y6372098D01*
X-7129068Y6381597D01*
X-7118197Y6392468D01*
X-7108698Y6404559D01*
X-7100722Y6417767D01*
X-7094372Y6431788D01*
X-7089800Y6446469D01*
X-7087057Y6461607D01*
X-7086092Y6477000D01*
X-7087057Y6492392D01*
X-7089800Y6507530D01*
X-7094372Y6522212D01*
X-7100722Y6536232D01*
X-7108698Y6549440D01*
X-7118197Y6561531D01*
X-7129068Y6572402D01*
X-7141159Y6581902D01*
X-7154367Y6589877D01*
X-7168388Y6596227D01*
X-7183069Y6600799D01*
X-7198207Y6603542D01*
X-7213600Y6604508D01*
X-7228992Y6603542D01*
X-7244130Y6600799D01*
X-7258812Y6596227D01*
X-7272832Y6589877D01*
X-7286040Y6581902D01*
X-7298131Y6572402D01*
X-7309002Y6561531D01*
X-7318502Y6549440D01*
X-7326477Y6536232D01*
X-7332827Y6522212D01*
X-7337399Y6507530D01*
X-7340142Y6492392D01*
X-7341108Y6477000D01*
X-7340142Y6461607D01*
X-7337399Y6446469D01*
X-7332827Y6431788D01*
X-7326477Y6417767D01*
X-7318502Y6404559D01*
X-7309002Y6392468D01*
X-7298131Y6381597D01*
X-7286040Y6372098D01*
X-7272832Y6364122D01*
X-7258812Y6357772D01*
X-7244130Y6353200D01*
X-7228992Y6350457D01*
G37*
G36*
X-3817365Y6745528D02*
G01*
X-3802634Y6745528D01*
X-3787952Y6747357D01*
X-3773678Y6750964D01*
X-3759911Y6756298D01*
X-3746906Y6763258D01*
X-3734866Y6771792D01*
X-3723944Y6781749D01*
X-3714343Y6792975D01*
X-3706215Y6805269D01*
X-3699611Y6818477D01*
X-3694684Y6832396D01*
X-3691534Y6846824D01*
X-3690162Y6861505D01*
X-3690620Y6876237D01*
X-3692906Y6890816D01*
X-3696970Y6905040D01*
X-3702710Y6918604D01*
X-3710076Y6931406D01*
X-3718966Y6943191D01*
X-3729228Y6953758D01*
X-3740759Y6963054D01*
X-3753307Y6970775D01*
X-3766718Y6976973D01*
X-3780739Y6981444D01*
X-3795268Y6984136D01*
X-3810000Y6985050D01*
X-3824732Y6984136D01*
X-3839260Y6981444D01*
X-3853281Y6976973D01*
X-3866692Y6970775D01*
X-3879240Y6963054D01*
X-3890772Y6953758D01*
X-3901033Y6943191D01*
X-3909923Y6931406D01*
X-3917289Y6918604D01*
X-3923029Y6905040D01*
X-3927094Y6890816D01*
X-3929379Y6876237D01*
X-3929786Y6861505D01*
X-3928465Y6846824D01*
X-3925315Y6832396D01*
X-3920388Y6818477D01*
X-3913784Y6805269D01*
X-3905656Y6792975D01*
X-3896055Y6781749D01*
X-3885133Y6771792D01*
X-3873093Y6763258D01*
X-3860088Y6756298D01*
X-3846322Y6750964D01*
X-3832047Y6747357D01*
G37*
G36*
X-4856734Y7022592D02*
G01*
X-4843119Y7023506D01*
X-4829759Y7026249D01*
X-4816856Y7030720D01*
X-4804714Y7036866D01*
X-4793488Y7044588D01*
X-4783328Y7053732D01*
X-4774539Y7064146D01*
X-4767224Y7075627D01*
X-4761484Y7088022D01*
X-4757420Y7101027D01*
X-4755184Y7114489D01*
X-4754727Y7128103D01*
X-4756048Y7141667D01*
X-4759248Y7154925D01*
X-4760366Y7157923D01*
X-4761077Y7161733D01*
X-4760264Y7165543D01*
X-4758080Y7168743D01*
X-4119829Y7806994D01*
X-4116527Y7809230D01*
X-4112615Y7809992D01*
X-1586738Y7809992D01*
X-1582978Y7809280D01*
X-1579778Y7807198D01*
X-1577543Y7804099D01*
X-1575409Y7799527D01*
X-1568094Y7788046D01*
X-1559306Y7777632D01*
X-1549146Y7768488D01*
X-1537919Y7760766D01*
X-1525778Y7754620D01*
X-1512874Y7750149D01*
X-1499514Y7747406D01*
X-1485900Y7746492D01*
X-1472285Y7747406D01*
X-1458925Y7750149D01*
X-1446022Y7754620D01*
X-1433880Y7760766D01*
X-1422654Y7768488D01*
X-1412494Y7777632D01*
X-1403705Y7788046D01*
X-1396390Y7799527D01*
X-1390650Y7811922D01*
X-1386586Y7824927D01*
X-1384350Y7838389D01*
X-1383893Y7852003D01*
X-1385214Y7865567D01*
X-1388414Y7878825D01*
X-1393291Y7891576D01*
X-1399844Y7903514D01*
X-1407922Y7914487D01*
X-1417421Y7924292D01*
X-1428140Y7932775D01*
X-1439875Y7939735D01*
X-1452422Y7945018D01*
X-1465580Y7948625D01*
X-1479092Y7950453D01*
X-1492707Y7950453D01*
X-1506220Y7948625D01*
X-1519377Y7945018D01*
X-1531924Y7939735D01*
X-1543659Y7932775D01*
X-1554378Y7924292D01*
X-1563878Y7914487D01*
X-1571955Y7903514D01*
X-1578000Y7892491D01*
X-1580286Y7889697D01*
X-1583385Y7887868D01*
X-1586890Y7887208D01*
X-4132326Y7887208D01*
X-4140352Y7886395D01*
X-4147616Y7884210D01*
X-4154271Y7880654D01*
X-4160469Y7875524D01*
X-4812538Y7223506D01*
X-4815433Y7221474D01*
X-4818888Y7220559D01*
X-4822444Y7220864D01*
X-4836414Y7224725D01*
X-4849926Y7226553D01*
X-4863541Y7226553D01*
X-4877054Y7224725D01*
X-4890211Y7221118D01*
X-4902758Y7215835D01*
X-4914493Y7208875D01*
X-4925212Y7200392D01*
X-4934712Y7190587D01*
X-4942789Y7179614D01*
X-4949342Y7167676D01*
X-4954219Y7154925D01*
X-4957419Y7141667D01*
X-4958740Y7128103D01*
X-4958283Y7114489D01*
X-4956048Y7101027D01*
X-4951984Y7088022D01*
X-4946243Y7075627D01*
X-4938928Y7064146D01*
X-4930140Y7053732D01*
X-4919980Y7044588D01*
X-4908753Y7036866D01*
X-4896612Y7030720D01*
X-4883708Y7026249D01*
X-4870348Y7023506D01*
G37*
G36*
X-1485900Y7238492D02*
G01*
X-1472285Y7239406D01*
X-1458925Y7242149D01*
X-1446022Y7246620D01*
X-1433880Y7252766D01*
X-1422654Y7260488D01*
X-1412494Y7269632D01*
X-1403705Y7280046D01*
X-1396390Y7291527D01*
X-1390650Y7303922D01*
X-1386586Y7316927D01*
X-1384350Y7330389D01*
X-1383893Y7344003D01*
X-1385214Y7357567D01*
X-1388414Y7370825D01*
X-1393291Y7383576D01*
X-1399844Y7395514D01*
X-1407922Y7406487D01*
X-1417421Y7416292D01*
X-1428140Y7424775D01*
X-1439875Y7431735D01*
X-1452422Y7437018D01*
X-1465580Y7440625D01*
X-1479092Y7442453D01*
X-1492707Y7442453D01*
X-1506220Y7440625D01*
X-1519377Y7437018D01*
X-1531924Y7431735D01*
X-1543659Y7424775D01*
X-1554378Y7416292D01*
X-1563878Y7406487D01*
X-1571955Y7395514D01*
X-1578508Y7383576D01*
X-1583385Y7370825D01*
X-1586585Y7357567D01*
X-1587906Y7344003D01*
X-1587449Y7330389D01*
X-1585214Y7316927D01*
X-1581150Y7303922D01*
X-1575409Y7291527D01*
X-1568094Y7280046D01*
X-1559306Y7269632D01*
X-1549146Y7260488D01*
X-1537919Y7252766D01*
X-1525778Y7246620D01*
X-1512874Y7242149D01*
X-1499514Y7239406D01*
G37*
G36*
X-4856734Y7276592D02*
G01*
X-4843119Y7277506D01*
X-4829759Y7280249D01*
X-4816856Y7284720D01*
X-4804714Y7290866D01*
X-4793488Y7298588D01*
X-4783328Y7307732D01*
X-4774539Y7318146D01*
X-4767224Y7329627D01*
X-4761484Y7342022D01*
X-4757420Y7355027D01*
X-4755184Y7368489D01*
X-4754727Y7382103D01*
X-4756048Y7395667D01*
X-4759248Y7408925D01*
X-4760366Y7411923D01*
X-4761077Y7415733D01*
X-4760264Y7419543D01*
X-4758080Y7422743D01*
X-4119829Y8060994D01*
X-4116527Y8063230D01*
X-4112615Y8063992D01*
X-1586738Y8063992D01*
X-1582978Y8063280D01*
X-1579778Y8061198D01*
X-1577543Y8058099D01*
X-1575409Y8053527D01*
X-1568094Y8042046D01*
X-1559306Y8031632D01*
X-1549146Y8022488D01*
X-1537919Y8014766D01*
X-1525778Y8008620D01*
X-1512874Y8004149D01*
X-1499514Y8001406D01*
X-1485900Y8000492D01*
X-1472285Y8001406D01*
X-1458925Y8004149D01*
X-1446022Y8008620D01*
X-1433880Y8014766D01*
X-1422654Y8022488D01*
X-1412494Y8031632D01*
X-1403705Y8042046D01*
X-1396390Y8053527D01*
X-1390650Y8065922D01*
X-1386586Y8078927D01*
X-1384350Y8092389D01*
X-1383893Y8106003D01*
X-1385214Y8119567D01*
X-1388414Y8132825D01*
X-1393291Y8145576D01*
X-1399844Y8157514D01*
X-1407922Y8168487D01*
X-1417421Y8178292D01*
X-1428140Y8186775D01*
X-1439875Y8193735D01*
X-1452422Y8199018D01*
X-1465580Y8202625D01*
X-1479092Y8204453D01*
X-1492707Y8204453D01*
X-1506220Y8202625D01*
X-1519377Y8199018D01*
X-1531924Y8193735D01*
X-1543659Y8186775D01*
X-1554378Y8178292D01*
X-1563878Y8168487D01*
X-1571955Y8157514D01*
X-1578000Y8146491D01*
X-1580286Y8143697D01*
X-1583385Y8141868D01*
X-1586890Y8141208D01*
X-4132326Y8141208D01*
X-4140352Y8140395D01*
X-4147616Y8138210D01*
X-4154271Y8134654D01*
X-4160469Y8129524D01*
X-4812538Y7477506D01*
X-4815433Y7475474D01*
X-4818888Y7474559D01*
X-4822444Y7474864D01*
X-4836414Y7478725D01*
X-4849926Y7480553D01*
X-4863541Y7480553D01*
X-4877054Y7478725D01*
X-4890211Y7475118D01*
X-4902758Y7469835D01*
X-4914493Y7462875D01*
X-4925212Y7454392D01*
X-4934712Y7444587D01*
X-4942789Y7433614D01*
X-4949342Y7421676D01*
X-4954219Y7408925D01*
X-4957419Y7395667D01*
X-4958740Y7382103D01*
X-4958283Y7368489D01*
X-4956048Y7355027D01*
X-4951984Y7342022D01*
X-4946243Y7329627D01*
X-4938928Y7318146D01*
X-4930140Y7307732D01*
X-4919980Y7298588D01*
X-4908753Y7290866D01*
X-4896612Y7284720D01*
X-4883708Y7280249D01*
X-4870348Y7277506D01*
G37*
G36*
X-1485900Y7492492D02*
G01*
X-1472285Y7493406D01*
X-1458925Y7496149D01*
X-1446022Y7500620D01*
X-1433880Y7506766D01*
X-1422654Y7514488D01*
X-1412494Y7523632D01*
X-1403705Y7534046D01*
X-1396390Y7545527D01*
X-1390650Y7557922D01*
X-1386586Y7570927D01*
X-1384350Y7584389D01*
X-1383893Y7598003D01*
X-1385214Y7611567D01*
X-1388414Y7624825D01*
X-1393291Y7637576D01*
X-1399844Y7649514D01*
X-1407922Y7660487D01*
X-1417421Y7670292D01*
X-1428140Y7678775D01*
X-1439875Y7685735D01*
X-1452422Y7691018D01*
X-1465580Y7694625D01*
X-1479092Y7696453D01*
X-1492707Y7696453D01*
X-1506220Y7694625D01*
X-1519377Y7691018D01*
X-1531924Y7685735D01*
X-1543659Y7678775D01*
X-1554378Y7670292D01*
X-1563878Y7660487D01*
X-1571955Y7649514D01*
X-1578508Y7637576D01*
X-1583385Y7624825D01*
X-1586585Y7611567D01*
X-1587906Y7598003D01*
X-1587449Y7584389D01*
X-1585214Y7570927D01*
X-1581150Y7557922D01*
X-1575409Y7545527D01*
X-1568094Y7534046D01*
X-1559306Y7523632D01*
X-1549146Y7514488D01*
X-1537919Y7506766D01*
X-1525778Y7500620D01*
X-1512874Y7496149D01*
X-1499514Y7493406D01*
G37*
G36*
X-4856734Y7530592D02*
G01*
X-4843119Y7531506D01*
X-4829759Y7534249D01*
X-4816856Y7538720D01*
X-4804714Y7544866D01*
X-4793488Y7552588D01*
X-4783328Y7561732D01*
X-4774539Y7572146D01*
X-4767224Y7583627D01*
X-4761484Y7596022D01*
X-4757420Y7609027D01*
X-4755184Y7622489D01*
X-4754727Y7636103D01*
X-4756048Y7649667D01*
X-4758385Y7659319D01*
X-4758588Y7662722D01*
X-4757674Y7666024D01*
X-4755642Y7668869D01*
X-3862781Y8561730D01*
X-3859479Y8563914D01*
X-3855618Y8564676D01*
X-1598168Y8564676D01*
X-1594256Y8563914D01*
X-1591005Y8561730D01*
X-1588770Y8558428D01*
X-1588008Y8554516D01*
X-1588008Y8534958D01*
X-1587296Y8528659D01*
X-1585366Y8523173D01*
X-1582318Y8518296D01*
X-1578203Y8514181D01*
X-1573326Y8511133D01*
X-1567840Y8509203D01*
X-1561541Y8508492D01*
X-1410258Y8508492D01*
X-1403959Y8509203D01*
X-1398473Y8511133D01*
X-1393596Y8514181D01*
X-1389481Y8518296D01*
X-1386433Y8523173D01*
X-1384503Y8528659D01*
X-1383792Y8534958D01*
X-1383792Y8686241D01*
X-1384503Y8692540D01*
X-1386433Y8698026D01*
X-1389481Y8702903D01*
X-1393596Y8707018D01*
X-1398473Y8710066D01*
X-1403959Y8711996D01*
X-1410258Y8712708D01*
X-1561541Y8712708D01*
X-1567840Y8711996D01*
X-1573326Y8710066D01*
X-1578203Y8707018D01*
X-1582318Y8702903D01*
X-1585366Y8698026D01*
X-1587296Y8692540D01*
X-1588008Y8686241D01*
X-1588008Y8666683D01*
X-1588770Y8662771D01*
X-1591005Y8659469D01*
X-1594256Y8657285D01*
X-1598168Y8656523D01*
X-3880612Y8656472D01*
X-3889349Y8655253D01*
X-3897376Y8652560D01*
X-3904742Y8648446D01*
X-3911650Y8642705D01*
X-4737354Y7817002D01*
X-4740656Y7814818D01*
X-4744516Y7814005D01*
X-4748428Y7814818D01*
X-4751730Y7817002D01*
X-4753914Y7820304D01*
X-4754676Y7824165D01*
X-4754676Y7842250D01*
X-4812334Y7842250D01*
X-4812334Y7784592D01*
X-4794300Y7784592D01*
X-4790389Y7783830D01*
X-4787087Y7781594D01*
X-4784902Y7778343D01*
X-4784140Y7774431D01*
X-4784902Y7770520D01*
X-4787087Y7767269D01*
X-4820615Y7733741D01*
X-4823510Y7731709D01*
X-4826965Y7730794D01*
X-4830470Y7731099D01*
X-4836414Y7732725D01*
X-4849926Y7734553D01*
X-4863541Y7734553D01*
X-4877054Y7732725D01*
X-4890211Y7729118D01*
X-4902758Y7723835D01*
X-4914493Y7716875D01*
X-4925212Y7708392D01*
X-4934712Y7698587D01*
X-4942789Y7687614D01*
X-4949342Y7675676D01*
X-4954219Y7662925D01*
X-4957419Y7649667D01*
X-4958740Y7636103D01*
X-4958283Y7622489D01*
X-4956048Y7609027D01*
X-4951984Y7596022D01*
X-4946243Y7583627D01*
X-4938928Y7572146D01*
X-4930140Y7561732D01*
X-4919980Y7552588D01*
X-4908753Y7544866D01*
X-4896612Y7538720D01*
X-4883708Y7534249D01*
X-4870348Y7531506D01*
G37*
G36*
X-4932426Y7784592D02*
G01*
X-4901234Y7784592D01*
X-4901234Y7842250D01*
X-4958892Y7842250D01*
X-4958892Y7811058D01*
X-4958181Y7804759D01*
X-4956302Y7799273D01*
X-4953203Y7794396D01*
X-4949139Y7790281D01*
X-4944211Y7787233D01*
X-4938776Y7785303D01*
G37*
G36*
X-4812334Y7931150D02*
G01*
X-4754676Y7931150D01*
X-4754676Y7962341D01*
X-4755438Y7968640D01*
X-4757318Y7974126D01*
X-4760417Y7979003D01*
X-4764481Y7983118D01*
X-4769408Y7986166D01*
X-4774844Y7988096D01*
X-4781194Y7988808D01*
X-4812334Y7988808D01*
G37*
G36*
X-1530350Y8264804D02*
G01*
X-1530350Y8312150D01*
X-1577695Y8312150D01*
X-1577035Y8310575D01*
X-1570075Y8298840D01*
X-1561592Y8288121D01*
X-1551787Y8278622D01*
X-1540814Y8270544D01*
G37*
G36*
X-1441450Y8264956D02*
G01*
X-1436827Y8267090D01*
X-1425346Y8274405D01*
X-1414932Y8283194D01*
X-1405788Y8293353D01*
X-1398066Y8304580D01*
X-1394256Y8312150D01*
X-1441450Y8312150D01*
G37*
G36*
X381000Y8381492D02*
G01*
X396392Y8382457D01*
X411530Y8385200D01*
X426212Y8389772D01*
X440232Y8396122D01*
X453440Y8404098D01*
X465531Y8413597D01*
X476402Y8424468D01*
X485901Y8436559D01*
X493877Y8449767D01*
X500227Y8463788D01*
X504799Y8478469D01*
X507542Y8493607D01*
X508508Y8509000D01*
X507542Y8524392D01*
X504799Y8539530D01*
X500227Y8554212D01*
X493877Y8568232D01*
X485901Y8581440D01*
X476402Y8593531D01*
X465531Y8604402D01*
X453440Y8613902D01*
X440232Y8621877D01*
X426212Y8628227D01*
X411530Y8632799D01*
X396392Y8635542D01*
X381000Y8636508D01*
X365607Y8635542D01*
X350469Y8632799D01*
X335788Y8628227D01*
X321767Y8621877D01*
X308559Y8613902D01*
X296468Y8604402D01*
X285597Y8593531D01*
X276098Y8581440D01*
X268122Y8568232D01*
X261772Y8554212D01*
X257200Y8539530D01*
X254457Y8524392D01*
X253492Y8509000D01*
X254457Y8493607D01*
X257200Y8478469D01*
X261772Y8463788D01*
X268122Y8449767D01*
X276098Y8436559D01*
X285597Y8424468D01*
X296468Y8413597D01*
X308559Y8404098D01*
X321767Y8396122D01*
X335788Y8389772D01*
X350469Y8385200D01*
X365607Y8382457D01*
G37*
G36*
X-8001000Y8381492D02*
G01*
X-7985607Y8382457D01*
X-7970469Y8385200D01*
X-7955788Y8389772D01*
X-7941767Y8396122D01*
X-7928559Y8404098D01*
X-7916468Y8413597D01*
X-7905597Y8424468D01*
X-7896098Y8436559D01*
X-7888122Y8449767D01*
X-7881772Y8463788D01*
X-7877200Y8478469D01*
X-7874457Y8493607D01*
X-7873492Y8509000D01*
X-7874457Y8524392D01*
X-7877200Y8539530D01*
X-7881772Y8554212D01*
X-7888122Y8568232D01*
X-7896098Y8581440D01*
X-7905597Y8593531D01*
X-7916468Y8604402D01*
X-7928559Y8613902D01*
X-7941767Y8621877D01*
X-7955788Y8628227D01*
X-7970469Y8632799D01*
X-7985607Y8635542D01*
X-8001000Y8636508D01*
X-8016392Y8635542D01*
X-8031530Y8632799D01*
X-8046212Y8628227D01*
X-8060232Y8621877D01*
X-8073440Y8613902D01*
X-8085531Y8604402D01*
X-8096402Y8593531D01*
X-8105902Y8581440D01*
X-8113877Y8568232D01*
X-8120227Y8554212D01*
X-8124799Y8539530D01*
X-8127542Y8524392D01*
X-8128508Y8509000D01*
X-8127542Y8493607D01*
X-8124799Y8478469D01*
X-8120227Y8463788D01*
X-8113877Y8449767D01*
X-8105902Y8436559D01*
X-8096402Y8424468D01*
X-8085531Y8413597D01*
X-8073440Y8404098D01*
X-8060232Y8396122D01*
X-8046212Y8389772D01*
X-8031530Y8385200D01*
X-8016392Y8382457D01*
G37*
G36*
X-1441450Y8401050D02*
G01*
X-1394256Y8401050D01*
X-1398066Y8408619D01*
X-1405788Y8419846D01*
X-1414932Y8430006D01*
X-1425346Y8438794D01*
X-1436827Y8446109D01*
X-1441450Y8448243D01*
G37*
G36*
X-1577695Y8401050D02*
G01*
X-1530350Y8401050D01*
X-1530350Y8448395D01*
X-1540814Y8442655D01*
X-1551787Y8434578D01*
X-1561592Y8425078D01*
X-1570075Y8414359D01*
X-1577035Y8402624D01*
G37*
G36*
X-7213600Y8419592D02*
G01*
X-7198207Y8420557D01*
X-7183069Y8423300D01*
X-7168388Y8427872D01*
X-7154367Y8434222D01*
X-7141159Y8442198D01*
X-7129068Y8451697D01*
X-7118197Y8462568D01*
X-7108698Y8474659D01*
X-7100722Y8487867D01*
X-7094372Y8501888D01*
X-7089800Y8516569D01*
X-7087057Y8531707D01*
X-7086092Y8547100D01*
X-7087057Y8562492D01*
X-7089800Y8577630D01*
X-7094372Y8592312D01*
X-7100722Y8606332D01*
X-7108698Y8619540D01*
X-7118197Y8631631D01*
X-7129068Y8642502D01*
X-7141159Y8652002D01*
X-7154367Y8659977D01*
X-7168388Y8666327D01*
X-7183069Y8670899D01*
X-7198207Y8673642D01*
X-7213600Y8674608D01*
X-7228992Y8673642D01*
X-7244130Y8670899D01*
X-7258812Y8666327D01*
X-7272832Y8659977D01*
X-7286040Y8652002D01*
X-7298131Y8642502D01*
X-7309002Y8631631D01*
X-7318502Y8619540D01*
X-7326477Y8606332D01*
X-7332827Y8592312D01*
X-7337399Y8577630D01*
X-7340142Y8562492D01*
X-7341108Y8547100D01*
X-7340142Y8531707D01*
X-7337399Y8516569D01*
X-7332827Y8501888D01*
X-7326477Y8487867D01*
X-7318502Y8474659D01*
X-7309002Y8462568D01*
X-7298131Y8451697D01*
X-7286040Y8442198D01*
X-7272832Y8434222D01*
X-7258812Y8427872D01*
X-7244130Y8423300D01*
X-7228992Y8420557D01*
G37*
G36*
X-4893564Y8419592D02*
G01*
X-4878171Y8420557D01*
X-4863033Y8423300D01*
X-4848352Y8427872D01*
X-4834331Y8434222D01*
X-4821123Y8442198D01*
X-4809032Y8451697D01*
X-4798161Y8462568D01*
X-4788662Y8474659D01*
X-4780686Y8487867D01*
X-4774336Y8501888D01*
X-4769764Y8516569D01*
X-4767021Y8531707D01*
X-4766056Y8547100D01*
X-4767021Y8562492D01*
X-4769764Y8577630D01*
X-4774336Y8592312D01*
X-4780686Y8606332D01*
X-4788662Y8619540D01*
X-4798161Y8631631D01*
X-4809032Y8642502D01*
X-4821123Y8652002D01*
X-4834331Y8659977D01*
X-4848352Y8666327D01*
X-4863033Y8670899D01*
X-4878171Y8673642D01*
X-4893564Y8674608D01*
X-4908956Y8673642D01*
X-4924094Y8670899D01*
X-4938776Y8666327D01*
X-4952796Y8659977D01*
X-4966004Y8652002D01*
X-4978095Y8642502D01*
X-4988966Y8631631D01*
X-4998466Y8619540D01*
X-5006441Y8606332D01*
X-5012791Y8592312D01*
X-5017363Y8577630D01*
X-5020106Y8562492D01*
X-5021072Y8547100D01*
X-5020106Y8531707D01*
X-5017363Y8516569D01*
X-5012791Y8501888D01*
X-5006441Y8487867D01*
X-4998466Y8474659D01*
X-4988966Y8462568D01*
X-4978095Y8451697D01*
X-4966004Y8442198D01*
X-4952796Y8434222D01*
X-4938776Y8427872D01*
X-4924094Y8423300D01*
X-4908956Y8420557D01*
G37*

%LPD*%
D10*
X-5494784Y2196056D02*
G01*
X-6503443Y2196056D01*
X-7416802Y1282697D01*
X-4856736Y7632697D02*
G01*
X-3878836Y8610597D01*
X-1485902Y8610597D01*
X-4876802Y1536697D02*
G01*
X-4012745Y672640D01*
X-2273429Y672640D01*
X-1638302Y37513D01*
X-1638302Y-37391D01*
X-1559460Y-116232D01*
X-1119532Y-116232D01*
X-1003302Y-2D01*
D11*
X-1511302Y-2D02*
G01*
X-3810002Y2298697D01*
X-4876802Y2298697D01*
D10*
X-8255002Y1384297D02*
G01*
X-8140245Y1384297D01*
X-7416802Y1536697D02*
G01*
X-7987845Y1536697D01*
X-8140245Y1384297D01*
X-2667002Y5930897D02*
G01*
X-3270074Y5327825D01*
X-5713300Y5327825D01*
X-6854522Y4186603D01*
X-1485902Y8356597D02*
G01*
X-2277087Y8356597D01*
D11*
X-1765302Y-2D02*
G01*
X-3447214Y-2D01*
X-3810002Y362785D01*
X-1485902Y8102597D02*
G01*
X-4132836Y8102597D01*
X-4856736Y7378697D01*
X-2667002Y5168897D02*
G01*
X-4292602Y5168897D01*
X-4876802Y4584697D01*
X-4876802Y3822697D02*
G01*
X-3657602Y5041897D01*
X-2617320Y5041897D01*
X-2531087Y5128130D01*
X-2531087Y5286982D01*
X-2667002Y5422897D01*
X-4856736Y7124697D02*
G01*
X-4132836Y7848597D01*
X-1485902Y7848597D01*
X-3810002Y2532783D02*
G01*
X-4718916Y3441697D01*
X-8128002Y3441697D01*
X-8255002Y3568697D01*
X-4876802Y1282697D02*
G01*
X-5012514Y1418409D01*
X-5012514Y2359098D01*
X-4945915Y2425697D01*
X-3987675Y2425697D01*
X-3972460Y2410482D01*
X-1983717Y2410482D01*
X-1295402Y3098797D01*
X-3810002Y9035183D02*
G01*
X-3911907Y9035183D01*
X-7765493Y5181597D01*
X-8255002Y5181597D01*
X-3797302Y5745883D02*
G01*
X-6890616Y5745883D01*
X-8255002Y4381497D01*
X-7416802Y2044697D02*
G01*
X-8102602Y2044697D01*
X-8255002Y1892297D01*
X-7416802Y2298697D02*
G01*
X-8153402Y2298697D01*
X-8255002Y2400297D01*
X-7416802Y2806697D02*
G01*
X-8102602Y2806697D01*
X-8255002Y2654297D01*
D12*
G01*
X-1295400Y1574800D03*
G01*
X-1295400Y1828800D03*
G01*
X-1295400Y2082800D03*
G01*
X-1295400Y2336800D03*
G01*
X-1295400Y2590800D03*
G01*
X-1295400Y2844800D03*
G01*
X-1295400Y3098800D03*
G01*
X-1295400Y3352800D03*
D13*
G01*
X-8255000Y1384300D03*
D14*
G01*
X-8255000Y1638300D03*
G01*
X-8255000Y1892300D03*
G01*
X-8255000Y2146300D03*
G01*
X-8255000Y2400300D03*
G01*
X-8255000Y2654300D03*
G01*
X-8255000Y2908300D03*
D15*
G01*
X-4876800Y1282700D03*
G01*
X-4876800Y1536700D03*
G01*
X-4876800Y1790700D03*
G01*
X-4876800Y2044700D03*
G01*
X-4876800Y2298700D03*
G01*
X-4876800Y2552700D03*
G01*
X-4876800Y2806700D03*
G01*
X-4876800Y3060700D03*
G01*
X-4876800Y3314700D03*
G01*
X-4876800Y3568700D03*
G01*
X-4876800Y3822700D03*
G01*
X-4876800Y4076700D03*
G01*
X-4876800Y4330700D03*
G01*
X-4876800Y4584700D03*
G01*
X-4876800Y4838700D03*
G01*
X-7416800Y1282700D03*
G01*
X-7416800Y1536700D03*
G01*
X-7416800Y1790700D03*
G01*
X-7416800Y2044700D03*
G01*
X-7416800Y2298700D03*
G01*
X-7416800Y2552700D03*
G01*
X-7416800Y2806700D03*
G01*
X-7416800Y3060700D03*
G01*
X-7416800Y3314700D03*
G01*
X-7416800Y3568700D03*
G01*
X-7416800Y3822700D03*
G01*
X-7416800Y4076700D03*
G01*
X-7416800Y4330700D03*
G01*
X-7416800Y4584700D03*
G01*
X-7416800Y4838700D03*
D16*
G01*
X-1485900Y7340600D03*
G01*
X-1485900Y7594600D03*
G01*
X-1485900Y7848600D03*
G01*
X-1485900Y8102600D03*
G01*
X-1485900Y8356600D03*
D17*
G01*
X-1485900Y8610600D03*
D18*
G01*
X-2667000Y5930900D03*
G01*
X-2667000Y5676900D03*
G01*
X-2667000Y5422900D03*
G01*
X-2667000Y5168900D03*
G01*
X-2667000Y4914900D03*
G01*
X-2667000Y4660900D03*
D19*
G01*
X-8255000Y5181600D03*
G01*
X-8255000Y5435600D03*
G01*
X-8255000Y4381500D03*
G01*
X-8255000Y4635500D03*
G01*
X-8255000Y3568700D03*
G01*
X-8255000Y3822700D03*
D20*
G01*
X-3810000Y6865188D03*
G01*
X-3810000Y9035186D03*
G01*
X-3797300Y3575888D03*
G01*
X-3797300Y5745886D03*
G01*
X-3810000Y362788D03*
G01*
X-3810000Y2532786D03*
D16*
G01*
X-1765300Y0D03*
G01*
X-1511300Y0D03*
G01*
X-1257300Y0D03*
G01*
X-1003300Y0D03*
D17*
G01*
X-4856810Y7886700D03*
D16*
G01*
X-4856734Y7632700D03*
G01*
X-4856734Y7378700D03*
G01*
X-4856734Y7124700D03*
D21*
G01*
X-5494781Y2196058D03*
G01*
X-6854520Y4186605D03*
G01*
X-2277084Y8356600D03*
M02*
