G04 Layer: TopSilkscreenLayer*
G04 EasyEDA v6.5.23, 2023-06-28 09:07:18*
G04 df611495b25e4bdeb4d342b309801e4c,9d485ff6e355438eacffb324f9111ecc,10*
G04 Gerber Generator version 0.2*
G04 Scale: 100 percent, Rotated: No, Reflected: No *
G04 Dimensions in millimeters *
G04 leading zeros omitted , absolute positions ,4 integer and 5 decimal *
%FSLAX45Y45*%
%MOMM*%

%ADD10C,0.2032*%
%ADD11C,0.1524*%
%ADD12C,0.0813*%
%ADD13C,0.1016*%
%ADD14C,0.1000*%
%ADD15C,0.2540*%
%ADD16C,0.2030*%
%ADD17C,0.1270*%
%ADD18C,0.4064*%
%ADD19C,0.5000*%
%ADD20C,0.0140*%

%LPD*%
D10*
X-8661400Y2475737D02*
G01*
X-8661400Y2380234D01*
X-8661400Y2475737D02*
G01*
X-8629650Y2475737D01*
X-8615934Y2471165D01*
X-8606789Y2462276D01*
X-8602218Y2453131D01*
X-8597645Y2439415D01*
X-8597645Y2416810D01*
X-8602218Y2403094D01*
X-8606789Y2393950D01*
X-8615934Y2384805D01*
X-8629650Y2380234D01*
X-8661400Y2380234D01*
X-8567674Y2457704D02*
G01*
X-8558784Y2462276D01*
X-8545068Y2475737D01*
X-8545068Y2380234D01*
X-8469629Y2475737D02*
G01*
X-8515095Y2412237D01*
X-8446770Y2412237D01*
X-8469629Y2475737D02*
G01*
X-8469629Y2380234D01*
X-8618728Y1411731D02*
G01*
X-8623045Y1420876D01*
X-8632189Y1429765D01*
X-8641334Y1434337D01*
X-8659621Y1434337D01*
X-8668512Y1429765D01*
X-8677655Y1420876D01*
X-8682228Y1411731D01*
X-8686800Y1398015D01*
X-8686800Y1375410D01*
X-8682228Y1361694D01*
X-8677655Y1352550D01*
X-8668512Y1343405D01*
X-8659621Y1338834D01*
X-8641334Y1338834D01*
X-8632189Y1343405D01*
X-8623045Y1352550D01*
X-8618728Y1361694D01*
X-8618728Y1375410D01*
X-8641334Y1375410D02*
G01*
X-8618728Y1375410D01*
X-8588502Y1434337D02*
G01*
X-8588502Y1338834D01*
X-8588502Y1434337D02*
G01*
X-8525002Y1338834D01*
X-8525002Y1434337D02*
G01*
X-8525002Y1338834D01*
X-8495029Y1434337D02*
G01*
X-8495029Y1338834D01*
X-8495029Y1434337D02*
G01*
X-8463279Y1434337D01*
X-8449563Y1429765D01*
X-8440420Y1420876D01*
X-8435847Y1411731D01*
X-8431276Y1398015D01*
X-8431276Y1375410D01*
X-8435847Y1361694D01*
X-8440420Y1352550D01*
X-8449563Y1343405D01*
X-8463279Y1338834D01*
X-8495029Y1338834D01*
X-8661400Y2209037D02*
G01*
X-8661400Y2113534D01*
X-8661400Y2209037D02*
G01*
X-8629650Y2209037D01*
X-8615934Y2204465D01*
X-8606789Y2195576D01*
X-8602218Y2186431D01*
X-8597645Y2172715D01*
X-8597645Y2150110D01*
X-8602218Y2136394D01*
X-8606789Y2127250D01*
X-8615934Y2118105D01*
X-8629650Y2113534D01*
X-8661400Y2113534D01*
X-8567674Y2191004D02*
G01*
X-8558784Y2195576D01*
X-8545068Y2209037D01*
X-8545068Y2113534D01*
X-8505952Y2209037D02*
G01*
X-8455913Y2209037D01*
X-8483092Y2172715D01*
X-8469629Y2172715D01*
X-8460486Y2168144D01*
X-8455913Y2163571D01*
X-8451342Y2150110D01*
X-8451342Y2140965D01*
X-8455913Y2127250D01*
X-8465058Y2118105D01*
X-8478774Y2113534D01*
X-8492236Y2113534D01*
X-8505952Y2118105D01*
X-8510524Y2122678D01*
X-8515095Y2131821D01*
X-8648700Y1967737D02*
G01*
X-8648700Y1872234D01*
X-8648700Y1967737D02*
G01*
X-8616950Y1967737D01*
X-8603234Y1963165D01*
X-8594089Y1954276D01*
X-8589518Y1945131D01*
X-8584945Y1931415D01*
X-8584945Y1908810D01*
X-8589518Y1895094D01*
X-8594089Y1885950D01*
X-8603234Y1876805D01*
X-8616950Y1872234D01*
X-8648700Y1872234D01*
X-8554974Y1949704D02*
G01*
X-8546084Y1954276D01*
X-8532368Y1967737D01*
X-8532368Y1872234D01*
X-8497824Y1945131D02*
G01*
X-8497824Y1949704D01*
X-8493252Y1958594D01*
X-8488679Y1963165D01*
X-8479536Y1967737D01*
X-8461502Y1967737D01*
X-8452358Y1963165D01*
X-8447786Y1958594D01*
X-8443213Y1949704D01*
X-8443213Y1940560D01*
X-8447786Y1931415D01*
X-8456929Y1917700D01*
X-8502395Y1872234D01*
X-8438642Y1872234D01*
X-8686800Y2945637D02*
G01*
X-8686800Y2850134D01*
X-8686800Y2945637D02*
G01*
X-8655050Y2945637D01*
X-8641334Y2941065D01*
X-8632189Y2932176D01*
X-8627618Y2923031D01*
X-8623045Y2909315D01*
X-8623045Y2886710D01*
X-8627618Y2872994D01*
X-8632189Y2863850D01*
X-8641334Y2854705D01*
X-8655050Y2850134D01*
X-8686800Y2850134D01*
X-8588502Y2923031D02*
G01*
X-8588502Y2927604D01*
X-8584184Y2936494D01*
X-8579612Y2941065D01*
X-8570468Y2945637D01*
X-8552179Y2945637D01*
X-8543289Y2941065D01*
X-8538718Y2936494D01*
X-8534145Y2927604D01*
X-8534145Y2918460D01*
X-8538718Y2909315D01*
X-8547608Y2895600D01*
X-8593074Y2850134D01*
X-8529574Y2850134D01*
X-8435847Y2945637D02*
G01*
X-8481313Y2850134D01*
X-8499602Y2945637D02*
G01*
X-8435847Y2945637D01*
X-8686800Y2704337D02*
G01*
X-8686800Y2608834D01*
X-8686800Y2704337D02*
G01*
X-8655050Y2704337D01*
X-8641334Y2699765D01*
X-8632189Y2690876D01*
X-8627618Y2681731D01*
X-8623045Y2668015D01*
X-8623045Y2645410D01*
X-8627618Y2631694D01*
X-8632189Y2622550D01*
X-8641334Y2613405D01*
X-8655050Y2608834D01*
X-8686800Y2608834D01*
X-8588502Y2681731D02*
G01*
X-8588502Y2686304D01*
X-8584184Y2695194D01*
X-8579612Y2699765D01*
X-8570468Y2704337D01*
X-8552179Y2704337D01*
X-8543289Y2699765D01*
X-8538718Y2695194D01*
X-8534145Y2686304D01*
X-8534145Y2677160D01*
X-8538718Y2668015D01*
X-8547608Y2654300D01*
X-8593074Y2608834D01*
X-8529574Y2608834D01*
X-8444992Y2690876D02*
G01*
X-8449563Y2699765D01*
X-8463279Y2704337D01*
X-8472170Y2704337D01*
X-8485886Y2699765D01*
X-8495029Y2686304D01*
X-8499602Y2663444D01*
X-8499602Y2640837D01*
X-8495029Y2622550D01*
X-8485886Y2613405D01*
X-8472170Y2608834D01*
X-8467597Y2608834D01*
X-8454136Y2613405D01*
X-8444992Y2622550D01*
X-8440420Y2636265D01*
X-8440420Y2640837D01*
X-8444992Y2654300D01*
X-8454136Y2663444D01*
X-8467597Y2668015D01*
X-8472170Y2668015D01*
X-8485886Y2663444D01*
X-8495029Y2654300D01*
X-8499602Y2640837D01*
X-8568689Y1701037D02*
G01*
X-8614155Y1701037D01*
X-8618728Y1660144D01*
X-8614155Y1664715D01*
X-8600694Y1669287D01*
X-8586978Y1669287D01*
X-8573262Y1664715D01*
X-8564118Y1655571D01*
X-8559545Y1642110D01*
X-8559545Y1632965D01*
X-8564118Y1619250D01*
X-8573262Y1610105D01*
X-8586978Y1605534D01*
X-8600694Y1605534D01*
X-8614155Y1610105D01*
X-8618728Y1614678D01*
X-8623300Y1623821D01*
X-8529574Y1701037D02*
G01*
X-8493252Y1605534D01*
X-8456929Y1701037D02*
G01*
X-8493252Y1605534D01*
D11*
X-849121Y3645407D02*
G01*
X-854455Y3655821D01*
X-864870Y3666236D01*
X-875029Y3671315D01*
X-895857Y3671315D01*
X-906271Y3666236D01*
X-916686Y3655821D01*
X-922020Y3645407D01*
X-927100Y3629660D01*
X-927100Y3603752D01*
X-922020Y3588257D01*
X-916686Y3577844D01*
X-906271Y3567429D01*
X-895857Y3562350D01*
X-875029Y3562350D01*
X-864870Y3567429D01*
X-854455Y3577844D01*
X-849121Y3588257D01*
X-736854Y3645407D02*
G01*
X-742187Y3655821D01*
X-752602Y3666236D01*
X-763015Y3671315D01*
X-783589Y3671315D01*
X-794004Y3666236D01*
X-804418Y3655821D01*
X-809752Y3645407D01*
X-814831Y3629660D01*
X-814831Y3603752D01*
X-809752Y3588257D01*
X-804418Y3577844D01*
X-794004Y3567429D01*
X-783589Y3562350D01*
X-763015Y3562350D01*
X-752602Y3567429D01*
X-742187Y3577844D01*
X-736854Y3588257D01*
X-629920Y3655821D02*
G01*
X-640334Y3666236D01*
X-655828Y3671315D01*
X-676655Y3671315D01*
X-692150Y3666236D01*
X-702563Y3655821D01*
X-702563Y3645407D01*
X-697484Y3634994D01*
X-692150Y3629660D01*
X-681989Y3624579D01*
X-650747Y3614165D01*
X-640334Y3609086D01*
X-635000Y3603752D01*
X-629920Y3593337D01*
X-629920Y3577844D01*
X-640334Y3567429D01*
X-655828Y3562350D01*
X-676655Y3562350D01*
X-692150Y3567429D01*
X-702563Y3577844D01*
X-569721Y3671315D02*
G01*
X-585215Y3666236D01*
X-590550Y3655821D01*
X-590550Y3645407D01*
X-585215Y3634994D01*
X-574802Y3629660D01*
X-553973Y3624579D01*
X-538479Y3619500D01*
X-528065Y3609086D01*
X-522986Y3598671D01*
X-522986Y3582923D01*
X-528065Y3572510D01*
X-533400Y3567429D01*
X-548894Y3562350D01*
X-569721Y3562350D01*
X-585215Y3567429D01*
X-590550Y3572510D01*
X-595629Y3582923D01*
X-595629Y3598671D01*
X-590550Y3609086D01*
X-580136Y3619500D01*
X-564387Y3624579D01*
X-543560Y3629660D01*
X-533400Y3634994D01*
X-528065Y3645407D01*
X-528065Y3655821D01*
X-533400Y3666236D01*
X-548894Y3671315D01*
X-569721Y3671315D01*
X-488695Y3650487D02*
G01*
X-478281Y3655821D01*
X-462534Y3671315D01*
X-462534Y3562350D01*
X-428244Y3650487D02*
G01*
X-417829Y3655821D01*
X-402336Y3671315D01*
X-402336Y3562350D01*
D10*
X-1168400Y3429000D02*
G01*
X-1113789Y3285744D01*
X-1059434Y3429000D02*
G01*
X-1113789Y3285744D01*
X-912113Y3394963D02*
G01*
X-918971Y3408679D01*
X-932434Y3422142D01*
X-946150Y3429000D01*
X-973328Y3429000D01*
X-987044Y3422142D01*
X-1000760Y3408679D01*
X-1007618Y3394963D01*
X-1014221Y3374389D01*
X-1014221Y3340354D01*
X-1007618Y3320034D01*
X-1000760Y3306318D01*
X-987044Y3292602D01*
X-973328Y3285744D01*
X-946150Y3285744D01*
X-932434Y3292602D01*
X-918971Y3306318D01*
X-912113Y3320034D01*
X-764794Y3394963D02*
G01*
X-771652Y3408679D01*
X-785113Y3422142D01*
X-798829Y3429000D01*
X-826007Y3429000D01*
X-839723Y3422142D01*
X-853439Y3408679D01*
X-860297Y3394963D01*
X-867155Y3374389D01*
X-867155Y3340354D01*
X-860297Y3320034D01*
X-853439Y3306318D01*
X-839723Y3292602D01*
X-826007Y3285744D01*
X-798829Y3285744D01*
X-785113Y3292602D01*
X-771652Y3306318D01*
X-764794Y3320034D01*
X-1154684Y3173984D02*
G01*
X-1079754Y3173984D01*
X-1120647Y3119373D01*
X-1100328Y3119373D01*
X-1086612Y3112515D01*
X-1079754Y3105657D01*
X-1072895Y3085337D01*
X-1072895Y3071621D01*
X-1079754Y3051302D01*
X-1093470Y3037586D01*
X-1113789Y3030728D01*
X-1134363Y3030728D01*
X-1154684Y3037586D01*
X-1161542Y3044444D01*
X-1168400Y3058160D01*
X-1021079Y3064763D02*
G01*
X-1027937Y3058160D01*
X-1021079Y3051302D01*
X-1014221Y3058160D01*
X-1021079Y3064763D01*
X-955547Y3173984D02*
G01*
X-880618Y3173984D01*
X-921512Y3119373D01*
X-901192Y3119373D01*
X-887476Y3112515D01*
X-880618Y3105657D01*
X-873760Y3085337D01*
X-873760Y3071621D01*
X-880618Y3051302D01*
X-894334Y3037586D01*
X-914654Y3030728D01*
X-935228Y3030728D01*
X-955547Y3037586D01*
X-962405Y3044444D01*
X-969263Y3058160D01*
X-828802Y3173984D02*
G01*
X-774192Y3030728D01*
X-719836Y3173984D02*
G01*
X-774192Y3030728D01*
X-1066037Y2886963D02*
G01*
X-1072895Y2900679D01*
X-1086612Y2914142D01*
X-1100328Y2921000D01*
X-1127505Y2921000D01*
X-1141221Y2914142D01*
X-1154684Y2900679D01*
X-1161542Y2886963D01*
X-1168400Y2866389D01*
X-1168400Y2832354D01*
X-1161542Y2812034D01*
X-1154684Y2798318D01*
X-1141221Y2784602D01*
X-1127505Y2777744D01*
X-1100328Y2777744D01*
X-1086612Y2784602D01*
X-1072895Y2798318D01*
X-1066037Y2812034D01*
X-1066037Y2832354D01*
X-1100328Y2832354D02*
G01*
X-1066037Y2832354D01*
X-1021079Y2921000D02*
G01*
X-1021079Y2777744D01*
X-1021079Y2921000D02*
G01*
X-925576Y2777744D01*
X-925576Y2921000D02*
G01*
X-925576Y2777744D01*
X-880618Y2921000D02*
G01*
X-880618Y2777744D01*
X-880618Y2921000D02*
G01*
X-832865Y2921000D01*
X-812545Y2914142D01*
X-798829Y2900679D01*
X-791971Y2886963D01*
X-785113Y2866389D01*
X-785113Y2832354D01*
X-791971Y2812034D01*
X-798829Y2798318D01*
X-812545Y2784602D01*
X-832865Y2777744D01*
X-880618Y2777744D01*
X-1072895Y2646679D02*
G01*
X-1086612Y2660142D01*
X-1106931Y2667000D01*
X-1134363Y2667000D01*
X-1154684Y2660142D01*
X-1168400Y2646679D01*
X-1168400Y2632963D01*
X-1161542Y2619247D01*
X-1154684Y2612389D01*
X-1141221Y2605786D01*
X-1100328Y2592070D01*
X-1086612Y2585212D01*
X-1079754Y2578354D01*
X-1072895Y2564637D01*
X-1072895Y2544318D01*
X-1086612Y2530602D01*
X-1106931Y2523744D01*
X-1134363Y2523744D01*
X-1154684Y2530602D01*
X-1168400Y2544318D01*
X-1027937Y2667000D02*
G01*
X-1027937Y2523744D01*
X-1027937Y2667000D02*
G01*
X-980186Y2667000D01*
X-959865Y2660142D01*
X-946150Y2646679D01*
X-939292Y2632963D01*
X-932434Y2612389D01*
X-932434Y2578354D01*
X-939292Y2558034D01*
X-946150Y2544318D01*
X-959865Y2530602D01*
X-980186Y2523744D01*
X-1027937Y2523744D01*
X-832865Y2667000D02*
G01*
X-887476Y2523744D01*
X-832865Y2667000D02*
G01*
X-778510Y2523744D01*
X-867155Y2571495D02*
G01*
X-798829Y2571495D01*
X-1072895Y2392679D02*
G01*
X-1086612Y2406142D01*
X-1106931Y2413000D01*
X-1134363Y2413000D01*
X-1154684Y2406142D01*
X-1168400Y2392679D01*
X-1168400Y2378963D01*
X-1161542Y2365247D01*
X-1154684Y2358389D01*
X-1141221Y2351786D01*
X-1100328Y2338070D01*
X-1086612Y2331212D01*
X-1079754Y2324354D01*
X-1072895Y2310637D01*
X-1072895Y2290318D01*
X-1086612Y2276602D01*
X-1106931Y2269744D01*
X-1134363Y2269744D01*
X-1154684Y2276602D01*
X-1168400Y2290318D01*
X-925576Y2378963D02*
G01*
X-932434Y2392679D01*
X-946150Y2406142D01*
X-959865Y2413000D01*
X-987044Y2413000D01*
X-1000760Y2406142D01*
X-1014221Y2392679D01*
X-1021079Y2378963D01*
X-1027937Y2358389D01*
X-1027937Y2324354D01*
X-1021079Y2304034D01*
X-1014221Y2290318D01*
X-1000760Y2276602D01*
X-987044Y2269744D01*
X-959865Y2269744D01*
X-946150Y2276602D01*
X-932434Y2290318D01*
X-925576Y2304034D01*
X-880618Y2413000D02*
G01*
X-880618Y2269744D01*
X-880618Y2269744D02*
G01*
X-798829Y2269744D01*
X-1168400Y2159000D02*
G01*
X-1134363Y2015744D01*
X-1100328Y2159000D02*
G01*
X-1134363Y2015744D01*
X-1100328Y2159000D02*
G01*
X-1066037Y2015744D01*
X-1032002Y2159000D02*
G01*
X-1066037Y2015744D01*
X-932434Y2159000D02*
G01*
X-987044Y2015744D01*
X-932434Y2159000D02*
G01*
X-877823Y2015744D01*
X-966470Y2063495D02*
G01*
X-898397Y2063495D01*
X-832865Y2159000D02*
G01*
X-832865Y2015744D01*
X-737615Y2159000D02*
G01*
X-832865Y2063495D01*
X-798829Y2097786D02*
G01*
X-737615Y2015744D01*
X-692404Y2159000D02*
G01*
X-692404Y2015744D01*
X-692404Y2159000D02*
G01*
X-603757Y2159000D01*
X-692404Y2090928D02*
G01*
X-638047Y2090928D01*
X-692404Y2015744D02*
G01*
X-603757Y2015744D01*
X-1168400Y1905000D02*
G01*
X-1168400Y1761744D01*
X-1168400Y1905000D02*
G01*
X-1106931Y1905000D01*
X-1086612Y1898142D01*
X-1079754Y1891284D01*
X-1072895Y1877821D01*
X-1072895Y1864105D01*
X-1079754Y1850389D01*
X-1086612Y1843786D01*
X-1106931Y1836928D01*
X-1168400Y1836928D01*
X-1120647Y1836928D02*
G01*
X-1072895Y1761744D01*
X-932434Y1884679D02*
G01*
X-946150Y1898142D01*
X-966470Y1905000D01*
X-993902Y1905000D01*
X-1014221Y1898142D01*
X-1027937Y1884679D01*
X-1027937Y1870963D01*
X-1021079Y1857247D01*
X-1014221Y1850389D01*
X-1000760Y1843786D01*
X-959865Y1830070D01*
X-946150Y1823212D01*
X-939292Y1816354D01*
X-932434Y1802637D01*
X-932434Y1782318D01*
X-946150Y1768602D01*
X-966470Y1761744D01*
X-993902Y1761744D01*
X-1014221Y1768602D01*
X-1027937Y1782318D01*
X-839723Y1905000D02*
G01*
X-839723Y1761744D01*
X-887476Y1905000D02*
G01*
X-791971Y1905000D01*
X-1168400Y1651000D02*
G01*
X-1168400Y1507744D01*
X-1123442Y1651000D02*
G01*
X-1123442Y1507744D01*
X-1123442Y1651000D02*
G01*
X-1027937Y1507744D01*
X-1027937Y1651000D02*
G01*
X-1027937Y1507744D01*
X-935228Y1651000D02*
G01*
X-935228Y1507744D01*
X-982979Y1651000D02*
G01*
X-887476Y1651000D01*
X-318770Y2849623D02*
G01*
X-327913Y2867911D01*
X-346455Y2886453D01*
X-364744Y2895597D01*
X-401828Y2895597D01*
X-420370Y2886453D01*
X-438657Y2867911D01*
X-448055Y2849623D01*
X-457200Y2821683D01*
X-457200Y2775709D01*
X-448055Y2748023D01*
X-438657Y2729481D01*
X-420370Y2710939D01*
X-401828Y2701795D01*
X-364744Y2701795D01*
X-346455Y2710939D01*
X-327913Y2729481D01*
X-318770Y2748023D01*
X-119126Y2849623D02*
G01*
X-128270Y2867911D01*
X-146812Y2886453D01*
X-165354Y2895597D01*
X-202184Y2895597D01*
X-220726Y2886453D01*
X-239268Y2867911D01*
X-248412Y2849623D01*
X-257810Y2821683D01*
X-257810Y2775709D01*
X-248412Y2748023D01*
X-239268Y2729481D01*
X-220726Y2710939D01*
X-202184Y2701795D01*
X-165354Y2701795D01*
X-146812Y2710939D01*
X-128270Y2729481D01*
X-119126Y2748023D01*
X71120Y2867911D02*
G01*
X52578Y2886453D01*
X24892Y2895597D01*
X-11937Y2895597D01*
X-39623Y2886453D01*
X-58165Y2867911D01*
X-58165Y2849623D01*
X-49021Y2831081D01*
X-39623Y2821683D01*
X-21336Y2812539D01*
X34289Y2793997D01*
X52578Y2784853D01*
X61976Y2775709D01*
X71120Y2757167D01*
X71120Y2729481D01*
X52578Y2710939D01*
X24892Y2701795D01*
X-11937Y2701795D01*
X-39623Y2710939D01*
X-58165Y2729481D01*
X-410971Y2590797D02*
G01*
X-438657Y2581653D01*
X-448055Y2563111D01*
X-448055Y2544823D01*
X-438657Y2526281D01*
X-420370Y2516883D01*
X-383286Y2507739D01*
X-355600Y2498595D01*
X-337057Y2480053D01*
X-327913Y2461511D01*
X-327913Y2433825D01*
X-337057Y2415283D01*
X-346455Y2406139D01*
X-374142Y2396995D01*
X-410971Y2396995D01*
X-438657Y2406139D01*
X-448055Y2415283D01*
X-457200Y2433825D01*
X-457200Y2461511D01*
X-448055Y2480053D01*
X-429513Y2498595D01*
X-401828Y2507739D01*
X-364744Y2516883D01*
X-346455Y2526281D01*
X-337057Y2544823D01*
X-337057Y2563111D01*
X-346455Y2581653D01*
X-374142Y2590797D01*
X-410971Y2590797D01*
X-266954Y2553967D02*
G01*
X-248412Y2563111D01*
X-220726Y2590797D01*
X-220726Y2396995D01*
X-159765Y2553967D02*
G01*
X-141223Y2563111D01*
X-113537Y2590797D01*
X-113537Y2396995D01*
D11*
X-8242300Y1116584D02*
G01*
X-8242300Y1225550D01*
X-8307831Y1116584D02*
G01*
X-8297418Y1121663D01*
X-8287004Y1132078D01*
X-8281670Y1142492D01*
X-8276589Y1158239D01*
X-8276589Y1184147D01*
X-8281670Y1199642D01*
X-8287004Y1210055D01*
X-8297418Y1220470D01*
X-8307831Y1225550D01*
X-8328660Y1225550D01*
X-8338820Y1220470D01*
X-8349234Y1210055D01*
X-8354568Y1199642D01*
X-8359647Y1184147D01*
X-8359647Y1158239D01*
X-8354568Y1142492D01*
X-8349234Y1132078D01*
X-8338820Y1121663D01*
X-8328660Y1116584D01*
X-8307831Y1116584D01*
X-7773415Y2565400D02*
G01*
X-7664450Y2565400D01*
X-7773415Y2565400D02*
G01*
X-7773415Y2612136D01*
X-7768336Y2627629D01*
X-7763002Y2632963D01*
X-7752587Y2638044D01*
X-7742173Y2638044D01*
X-7731760Y2632963D01*
X-7726679Y2627629D01*
X-7721600Y2612136D01*
X-7721600Y2565400D02*
G01*
X-7721600Y2612136D01*
X-7716265Y2627629D01*
X-7711186Y2632963D01*
X-7700771Y2638044D01*
X-7685023Y2638044D01*
X-7674610Y2632963D01*
X-7669529Y2627629D01*
X-7664450Y2612136D01*
X-7664450Y2565400D01*
X-7773415Y2703576D02*
G01*
X-7768336Y2693162D01*
X-7757921Y2682747D01*
X-7747508Y2677668D01*
X-7731760Y2672334D01*
X-7705852Y2672334D01*
X-7690358Y2677668D01*
X-7679944Y2682747D01*
X-7669529Y2693162D01*
X-7664450Y2703576D01*
X-7664450Y2724404D01*
X-7669529Y2734818D01*
X-7679944Y2745231D01*
X-7690358Y2750312D01*
X-7705852Y2755645D01*
X-7731760Y2755645D01*
X-7747508Y2750312D01*
X-7757921Y2745231D01*
X-7768336Y2734818D01*
X-7773415Y2724404D01*
X-7773415Y2703576D01*
X-7773415Y2831337D02*
G01*
X-7664450Y2789936D01*
X-7773415Y2831337D02*
G01*
X-7664450Y2872994D01*
X-7700771Y2805429D02*
G01*
X-7700771Y2857500D01*
X-7773415Y2907284D02*
G01*
X-7664450Y2907284D01*
X-7773415Y2907284D02*
G01*
X-7773415Y2954020D01*
X-7768336Y2969513D01*
X-7763002Y2974847D01*
X-7752587Y2979928D01*
X-7742173Y2979928D01*
X-7731760Y2974847D01*
X-7726679Y2969513D01*
X-7721600Y2954020D01*
X-7721600Y2907284D01*
X-7721600Y2943605D02*
G01*
X-7664450Y2979928D01*
X-7773415Y3014218D02*
G01*
X-7664450Y3014218D01*
X-7773415Y3014218D02*
G01*
X-7773415Y3050539D01*
X-7768336Y3066287D01*
X-7757921Y3076702D01*
X-7747508Y3081781D01*
X-7731760Y3087115D01*
X-7705852Y3087115D01*
X-7690358Y3081781D01*
X-7679944Y3076702D01*
X-7669529Y3066287D01*
X-7664450Y3050539D01*
X-7664450Y3014218D01*
X-7752587Y3121405D02*
G01*
X-7757921Y3131820D01*
X-7773415Y3147313D01*
X-7664450Y3147313D01*
D12*
X-5040071Y1169365D02*
G01*
X-5090871Y1169365D01*
X-5063185Y1206449D01*
X-5076901Y1206449D01*
X-5086299Y1211021D01*
X-5090871Y1215593D01*
X-5095443Y1229309D01*
X-5095443Y1238707D01*
X-5090871Y1252423D01*
X-5081727Y1261821D01*
X-5067757Y1266393D01*
X-5053787Y1266393D01*
X-5040071Y1261821D01*
X-5035499Y1257249D01*
X-5030927Y1247851D01*
X-5125923Y1169365D02*
G01*
X-5163007Y1266393D01*
X-5199837Y1169365D02*
G01*
X-5163007Y1266393D01*
X-5239461Y1169365D02*
G01*
X-5290261Y1169365D01*
X-5262575Y1206449D01*
X-5276545Y1206449D01*
X-5285689Y1211021D01*
X-5290261Y1215593D01*
X-5295087Y1229309D01*
X-5295087Y1238707D01*
X-5290261Y1252423D01*
X-5281117Y1261821D01*
X-5267147Y1266393D01*
X-5253431Y1266393D01*
X-5239461Y1261821D01*
X-5234889Y1257249D01*
X-5230317Y1247851D01*
X-5100015Y1446479D02*
G01*
X-5095443Y1437335D01*
X-5086299Y1427937D01*
X-5076901Y1423365D01*
X-5058613Y1423365D01*
X-5049215Y1427937D01*
X-5040071Y1437335D01*
X-5035499Y1446479D01*
X-5030927Y1460449D01*
X-5030927Y1483309D01*
X-5035499Y1497279D01*
X-5040071Y1506423D01*
X-5049215Y1515821D01*
X-5058613Y1520393D01*
X-5076901Y1520393D01*
X-5086299Y1515821D01*
X-5095443Y1506423D01*
X-5100015Y1497279D01*
X-5100015Y1483309D01*
X-5076901Y1483309D02*
G01*
X-5100015Y1483309D01*
X-5130495Y1423365D02*
G01*
X-5130495Y1520393D01*
X-5130495Y1423365D02*
G01*
X-5195265Y1520393D01*
X-5195265Y1423365D02*
G01*
X-5195265Y1520393D01*
X-5225745Y1423365D02*
G01*
X-5225745Y1520393D01*
X-5225745Y1423365D02*
G01*
X-5258003Y1423365D01*
X-5271973Y1427937D01*
X-5281117Y1437335D01*
X-5285689Y1446479D01*
X-5290261Y1460449D01*
X-5290261Y1483309D01*
X-5285689Y1497279D01*
X-5281117Y1506423D01*
X-5271973Y1515821D01*
X-5258003Y1520393D01*
X-5225745Y1520393D01*
X-5030927Y1677365D02*
G01*
X-5030927Y1774393D01*
X-5030927Y1677365D02*
G01*
X-5063185Y1677365D01*
X-5076901Y1681937D01*
X-5086299Y1691335D01*
X-5090871Y1700479D01*
X-5095443Y1714449D01*
X-5095443Y1737309D01*
X-5090871Y1751279D01*
X-5086299Y1760423D01*
X-5076901Y1769821D01*
X-5063185Y1774393D01*
X-5030927Y1774393D01*
X-5125923Y1695907D02*
G01*
X-5135067Y1691335D01*
X-5149037Y1677365D01*
X-5149037Y1774393D01*
X-5234889Y1677365D02*
G01*
X-5188661Y1677365D01*
X-5184089Y1719021D01*
X-5188661Y1714449D01*
X-5202631Y1709623D01*
X-5216347Y1709623D01*
X-5230317Y1714449D01*
X-5239461Y1723593D01*
X-5244287Y1737309D01*
X-5244287Y1746707D01*
X-5239461Y1760423D01*
X-5230317Y1769821D01*
X-5216347Y1774393D01*
X-5202631Y1774393D01*
X-5188661Y1769821D01*
X-5184089Y1765249D01*
X-5179517Y1755851D01*
X-5030927Y1931365D02*
G01*
X-5030927Y2028393D01*
X-5030927Y1931365D02*
G01*
X-5063185Y1931365D01*
X-5076901Y1935937D01*
X-5086299Y1945335D01*
X-5090871Y1954479D01*
X-5095443Y1968449D01*
X-5095443Y1991309D01*
X-5090871Y2005279D01*
X-5086299Y2014423D01*
X-5076901Y2023821D01*
X-5063185Y2028393D01*
X-5030927Y2028393D01*
X-5130495Y1954479D02*
G01*
X-5130495Y1949907D01*
X-5135067Y1940509D01*
X-5139893Y1935937D01*
X-5149037Y1931365D01*
X-5167579Y1931365D01*
X-5176723Y1935937D01*
X-5181295Y1940509D01*
X-5185867Y1949907D01*
X-5185867Y1959051D01*
X-5181295Y1968449D01*
X-5172151Y1982165D01*
X-5125923Y2028393D01*
X-5190693Y2028393D01*
X-5030927Y2185365D02*
G01*
X-5030927Y2282393D01*
X-5030927Y2185365D02*
G01*
X-5063185Y2185365D01*
X-5076901Y2189937D01*
X-5086299Y2199335D01*
X-5090871Y2208479D01*
X-5095443Y2222449D01*
X-5095443Y2245309D01*
X-5090871Y2259279D01*
X-5086299Y2268423D01*
X-5076901Y2277821D01*
X-5063185Y2282393D01*
X-5030927Y2282393D01*
X-5172151Y2185365D02*
G01*
X-5125923Y2250135D01*
X-5195265Y2250135D01*
X-5172151Y2185365D02*
G01*
X-5172151Y2282393D01*
X-5030927Y2439365D02*
G01*
X-5030927Y2536393D01*
X-5030927Y2439365D02*
G01*
X-5063185Y2439365D01*
X-5076901Y2443937D01*
X-5086299Y2453335D01*
X-5090871Y2462479D01*
X-5095443Y2476449D01*
X-5095443Y2499309D01*
X-5090871Y2513279D01*
X-5086299Y2522423D01*
X-5076901Y2531821D01*
X-5063185Y2536393D01*
X-5030927Y2536393D01*
X-5125923Y2457907D02*
G01*
X-5135067Y2453335D01*
X-5149037Y2439365D01*
X-5149037Y2536393D01*
X-5234889Y2453335D02*
G01*
X-5230317Y2443937D01*
X-5216347Y2439365D01*
X-5207203Y2439365D01*
X-5193487Y2443937D01*
X-5184089Y2457907D01*
X-5179517Y2481021D01*
X-5179517Y2504135D01*
X-5184089Y2522423D01*
X-5193487Y2531821D01*
X-5207203Y2536393D01*
X-5211775Y2536393D01*
X-5225745Y2531821D01*
X-5234889Y2522423D01*
X-5239461Y2508707D01*
X-5239461Y2504135D01*
X-5234889Y2490165D01*
X-5225745Y2481021D01*
X-5211775Y2476449D01*
X-5207203Y2476449D01*
X-5193487Y2481021D01*
X-5184089Y2490165D01*
X-5179517Y2504135D01*
X-5030927Y2693365D02*
G01*
X-5030927Y2790393D01*
X-5030927Y2693365D02*
G01*
X-5063185Y2693365D01*
X-5076901Y2697937D01*
X-5086299Y2707335D01*
X-5090871Y2716479D01*
X-5095443Y2730449D01*
X-5095443Y2753309D01*
X-5090871Y2767279D01*
X-5086299Y2776423D01*
X-5076901Y2785821D01*
X-5063185Y2790393D01*
X-5030927Y2790393D01*
X-5125923Y2711907D02*
G01*
X-5135067Y2707335D01*
X-5149037Y2693365D01*
X-5149037Y2790393D01*
X-5244287Y2693365D02*
G01*
X-5198059Y2790393D01*
X-5179517Y2693365D02*
G01*
X-5244287Y2693365D01*
X-5030927Y2947365D02*
G01*
X-5030927Y3044393D01*
X-5030927Y2947365D02*
G01*
X-5063185Y2947365D01*
X-5076901Y2951937D01*
X-5086299Y2961335D01*
X-5090871Y2970479D01*
X-5095443Y2984449D01*
X-5095443Y3007309D01*
X-5090871Y3021279D01*
X-5086299Y3030423D01*
X-5076901Y3039821D01*
X-5063185Y3044393D01*
X-5030927Y3044393D01*
X-5181295Y2947365D02*
G01*
X-5135067Y2947365D01*
X-5130495Y2989021D01*
X-5135067Y2984449D01*
X-5149037Y2979623D01*
X-5163007Y2979623D01*
X-5176723Y2984449D01*
X-5185867Y2993593D01*
X-5190693Y3007309D01*
X-5190693Y3016707D01*
X-5185867Y3030423D01*
X-5176723Y3039821D01*
X-5163007Y3044393D01*
X-5149037Y3044393D01*
X-5135067Y3039821D01*
X-5130495Y3035249D01*
X-5125923Y3025851D01*
X-5030927Y3201365D02*
G01*
X-5030927Y3298393D01*
X-5030927Y3201365D02*
G01*
X-5063185Y3201365D01*
X-5076901Y3205937D01*
X-5086299Y3215335D01*
X-5090871Y3224479D01*
X-5095443Y3238449D01*
X-5095443Y3261309D01*
X-5090871Y3275279D01*
X-5086299Y3284423D01*
X-5076901Y3293821D01*
X-5063185Y3298393D01*
X-5030927Y3298393D01*
X-5125923Y3219907D02*
G01*
X-5135067Y3215335D01*
X-5149037Y3201365D01*
X-5149037Y3298393D01*
X-5202631Y3201365D02*
G01*
X-5188661Y3205937D01*
X-5184089Y3215335D01*
X-5184089Y3224479D01*
X-5188661Y3233623D01*
X-5198059Y3238449D01*
X-5216347Y3243021D01*
X-5230317Y3247593D01*
X-5239461Y3256737D01*
X-5244287Y3266135D01*
X-5244287Y3279851D01*
X-5239461Y3289249D01*
X-5234889Y3293821D01*
X-5221173Y3298393D01*
X-5202631Y3298393D01*
X-5188661Y3293821D01*
X-5184089Y3289249D01*
X-5179517Y3279851D01*
X-5179517Y3266135D01*
X-5184089Y3256737D01*
X-5193487Y3247593D01*
X-5207203Y3243021D01*
X-5225745Y3238449D01*
X-5234889Y3233623D01*
X-5239461Y3224479D01*
X-5239461Y3215335D01*
X-5234889Y3205937D01*
X-5221173Y3201365D01*
X-5202631Y3201365D01*
X-5030927Y3455365D02*
G01*
X-5030927Y3552393D01*
X-5030927Y3455365D02*
G01*
X-5063185Y3455365D01*
X-5076901Y3459937D01*
X-5086299Y3469335D01*
X-5090871Y3478479D01*
X-5095443Y3492449D01*
X-5095443Y3515309D01*
X-5090871Y3529279D01*
X-5086299Y3538423D01*
X-5076901Y3547821D01*
X-5063185Y3552393D01*
X-5030927Y3552393D01*
X-5125923Y3473907D02*
G01*
X-5135067Y3469335D01*
X-5149037Y3455365D01*
X-5149037Y3552393D01*
X-5239461Y3487623D02*
G01*
X-5234889Y3501593D01*
X-5225745Y3510737D01*
X-5211775Y3515309D01*
X-5207203Y3515309D01*
X-5193487Y3510737D01*
X-5184089Y3501593D01*
X-5179517Y3487623D01*
X-5179517Y3483051D01*
X-5184089Y3469335D01*
X-5193487Y3459937D01*
X-5207203Y3455365D01*
X-5211775Y3455365D01*
X-5225745Y3459937D01*
X-5234889Y3469335D01*
X-5239461Y3487623D01*
X-5239461Y3510737D01*
X-5234889Y3533851D01*
X-5225745Y3547821D01*
X-5211775Y3552393D01*
X-5202631Y3552393D01*
X-5188661Y3547821D01*
X-5184089Y3538423D01*
X-5030927Y3709365D02*
G01*
X-5030927Y3806393D01*
X-5030927Y3709365D02*
G01*
X-5063185Y3709365D01*
X-5076901Y3713937D01*
X-5086299Y3723335D01*
X-5090871Y3732479D01*
X-5095443Y3746449D01*
X-5095443Y3769309D01*
X-5090871Y3783279D01*
X-5086299Y3792423D01*
X-5076901Y3801821D01*
X-5063185Y3806393D01*
X-5030927Y3806393D01*
X-5130495Y3732479D02*
G01*
X-5130495Y3727907D01*
X-5135067Y3718509D01*
X-5139893Y3713937D01*
X-5149037Y3709365D01*
X-5167579Y3709365D01*
X-5176723Y3713937D01*
X-5181295Y3718509D01*
X-5185867Y3727907D01*
X-5185867Y3737051D01*
X-5181295Y3746449D01*
X-5172151Y3760165D01*
X-5125923Y3806393D01*
X-5190693Y3806393D01*
X-5221173Y3727907D02*
G01*
X-5230317Y3723335D01*
X-5244287Y3709365D01*
X-5244287Y3806393D01*
X-5030927Y3963365D02*
G01*
X-5030927Y4060393D01*
X-5030927Y3963365D02*
G01*
X-5063185Y3963365D01*
X-5076901Y3967937D01*
X-5086299Y3977335D01*
X-5090871Y3986479D01*
X-5095443Y4000449D01*
X-5095443Y4023309D01*
X-5090871Y4037279D01*
X-5086299Y4046423D01*
X-5076901Y4055821D01*
X-5063185Y4060393D01*
X-5030927Y4060393D01*
X-5135067Y3963365D02*
G01*
X-5185867Y3963365D01*
X-5158181Y4000449D01*
X-5172151Y4000449D01*
X-5181295Y4005021D01*
X-5185867Y4009593D01*
X-5190693Y4023309D01*
X-5190693Y4032707D01*
X-5185867Y4046423D01*
X-5176723Y4055821D01*
X-5163007Y4060393D01*
X-5149037Y4060393D01*
X-5135067Y4055821D01*
X-5130495Y4051249D01*
X-5125923Y4041851D01*
X-5030927Y4217365D02*
G01*
X-5030927Y4314393D01*
X-5030927Y4217365D02*
G01*
X-5063185Y4217365D01*
X-5076901Y4221937D01*
X-5086299Y4231335D01*
X-5090871Y4240479D01*
X-5095443Y4254449D01*
X-5095443Y4277309D01*
X-5090871Y4291279D01*
X-5086299Y4300423D01*
X-5076901Y4309821D01*
X-5063185Y4314393D01*
X-5030927Y4314393D01*
X-5125923Y4235907D02*
G01*
X-5135067Y4231335D01*
X-5149037Y4217365D01*
X-5149037Y4314393D01*
X-5030927Y4471365D02*
G01*
X-5030927Y4568393D01*
X-5030927Y4471365D02*
G01*
X-5063185Y4471365D01*
X-5076901Y4475937D01*
X-5086299Y4485335D01*
X-5090871Y4494479D01*
X-5095443Y4508449D01*
X-5095443Y4531309D01*
X-5090871Y4545279D01*
X-5086299Y4554423D01*
X-5076901Y4563821D01*
X-5063185Y4568393D01*
X-5030927Y4568393D01*
X-5130495Y4494479D02*
G01*
X-5130495Y4489907D01*
X-5135067Y4480509D01*
X-5139893Y4475937D01*
X-5149037Y4471365D01*
X-5167579Y4471365D01*
X-5176723Y4475937D01*
X-5181295Y4480509D01*
X-5185867Y4489907D01*
X-5185867Y4499051D01*
X-5181295Y4508449D01*
X-5172151Y4522165D01*
X-5125923Y4568393D01*
X-5190693Y4568393D01*
X-5225745Y4494479D02*
G01*
X-5225745Y4489907D01*
X-5230317Y4480509D01*
X-5234889Y4475937D01*
X-5244287Y4471365D01*
X-5262575Y4471365D01*
X-5271973Y4475937D01*
X-5276545Y4480509D01*
X-5281117Y4489907D01*
X-5281117Y4499051D01*
X-5276545Y4508449D01*
X-5267147Y4522165D01*
X-5221173Y4568393D01*
X-5285689Y4568393D01*
X-5030927Y4725365D02*
G01*
X-5030927Y4822393D01*
X-5030927Y4725365D02*
G01*
X-5063185Y4725365D01*
X-5076901Y4729937D01*
X-5086299Y4739335D01*
X-5090871Y4748479D01*
X-5095443Y4762449D01*
X-5095443Y4785309D01*
X-5090871Y4799279D01*
X-5086299Y4808423D01*
X-5076901Y4817821D01*
X-5063185Y4822393D01*
X-5030927Y4822393D01*
X-5130495Y4748479D02*
G01*
X-5130495Y4743907D01*
X-5135067Y4734509D01*
X-5139893Y4729937D01*
X-5149037Y4725365D01*
X-5167579Y4725365D01*
X-5176723Y4729937D01*
X-5181295Y4734509D01*
X-5185867Y4743907D01*
X-5185867Y4753051D01*
X-5181295Y4762449D01*
X-5172151Y4776165D01*
X-5125923Y4822393D01*
X-5190693Y4822393D01*
X-5230317Y4725365D02*
G01*
X-5281117Y4725365D01*
X-5253431Y4762449D01*
X-5267147Y4762449D01*
X-5276545Y4767021D01*
X-5281117Y4771593D01*
X-5285689Y4785309D01*
X-5285689Y4794707D01*
X-5281117Y4808423D01*
X-5271973Y4817821D01*
X-5258003Y4822393D01*
X-5244287Y4822393D01*
X-5230317Y4817821D01*
X-5225745Y4813249D01*
X-5221173Y4803851D01*
X-7023836Y1196467D02*
G01*
X-7060666Y1293240D01*
X-7097750Y1196467D02*
G01*
X-7060666Y1293240D01*
X-7128230Y1196467D02*
G01*
X-7128230Y1293240D01*
X-7158710Y1196467D02*
G01*
X-7158710Y1293240D01*
X-7158710Y1196467D02*
G01*
X-7223226Y1293240D01*
X-7223226Y1196467D02*
G01*
X-7223226Y1293240D01*
X-7093178Y1473580D02*
G01*
X-7088352Y1464182D01*
X-7079208Y1455038D01*
X-7070064Y1450467D01*
X-7051522Y1450467D01*
X-7042378Y1455038D01*
X-7032980Y1464182D01*
X-7028408Y1473580D01*
X-7023836Y1487296D01*
X-7023836Y1510411D01*
X-7028408Y1524380D01*
X-7032980Y1533525D01*
X-7042378Y1542669D01*
X-7051522Y1547240D01*
X-7070064Y1547240D01*
X-7079208Y1542669D01*
X-7088352Y1533525D01*
X-7093178Y1524380D01*
X-7093178Y1510411D01*
X-7070064Y1510411D02*
G01*
X-7093178Y1510411D01*
X-7023836Y1704467D02*
G01*
X-7023836Y1801240D01*
X-7023836Y1704467D02*
G01*
X-7056094Y1704467D01*
X-7070064Y1709038D01*
X-7079208Y1718182D01*
X-7083780Y1727580D01*
X-7088352Y1741296D01*
X-7088352Y1764411D01*
X-7083780Y1778380D01*
X-7079208Y1787525D01*
X-7070064Y1796669D01*
X-7056094Y1801240D01*
X-7023836Y1801240D01*
X-7118832Y1722754D02*
G01*
X-7128230Y1718182D01*
X-7141946Y1704467D01*
X-7141946Y1801240D01*
X-7181824Y1704467D02*
G01*
X-7232624Y1704467D01*
X-7204938Y1741296D01*
X-7218654Y1741296D01*
X-7227798Y1745869D01*
X-7232624Y1750440D01*
X-7237196Y1764411D01*
X-7237196Y1773554D01*
X-7232624Y1787525D01*
X-7223226Y1796669D01*
X-7209510Y1801240D01*
X-7195540Y1801240D01*
X-7181824Y1796669D01*
X-7176998Y1792096D01*
X-7172426Y1782953D01*
X-7023836Y1958467D02*
G01*
X-7023836Y2055240D01*
X-7023836Y1958467D02*
G01*
X-7056094Y1958467D01*
X-7070064Y1963038D01*
X-7079208Y1972182D01*
X-7083780Y1981580D01*
X-7088352Y1995296D01*
X-7088352Y2018411D01*
X-7083780Y2032380D01*
X-7079208Y2041525D01*
X-7070064Y2050669D01*
X-7056094Y2055240D01*
X-7023836Y2055240D01*
X-7118832Y1976754D02*
G01*
X-7128230Y1972182D01*
X-7141946Y1958467D01*
X-7141946Y2055240D01*
X-7176998Y1981580D02*
G01*
X-7176998Y1976754D01*
X-7181824Y1967611D01*
X-7186396Y1963038D01*
X-7195540Y1958467D01*
X-7214082Y1958467D01*
X-7223226Y1963038D01*
X-7227798Y1967611D01*
X-7232624Y1976754D01*
X-7232624Y1986153D01*
X-7227798Y1995296D01*
X-7218654Y2009267D01*
X-7172426Y2055240D01*
X-7237196Y2055240D01*
X-7023836Y2212467D02*
G01*
X-7023836Y2309240D01*
X-7023836Y2212467D02*
G01*
X-7056094Y2212467D01*
X-7070064Y2217038D01*
X-7079208Y2226182D01*
X-7083780Y2235580D01*
X-7088352Y2249296D01*
X-7088352Y2272411D01*
X-7083780Y2286380D01*
X-7079208Y2295525D01*
X-7070064Y2304669D01*
X-7056094Y2309240D01*
X-7023836Y2309240D01*
X-7118832Y2230754D02*
G01*
X-7128230Y2226182D01*
X-7141946Y2212467D01*
X-7141946Y2309240D01*
X-7218654Y2212467D02*
G01*
X-7172426Y2276982D01*
X-7241768Y2276982D01*
X-7218654Y2212467D02*
G01*
X-7218654Y2309240D01*
X-7023836Y2466467D02*
G01*
X-7023836Y2563240D01*
X-7023836Y2466467D02*
G01*
X-7056094Y2466467D01*
X-7070064Y2471038D01*
X-7079208Y2480182D01*
X-7083780Y2489580D01*
X-7088352Y2503296D01*
X-7088352Y2526411D01*
X-7083780Y2540380D01*
X-7079208Y2549525D01*
X-7070064Y2558669D01*
X-7056094Y2563240D01*
X-7023836Y2563240D01*
X-7123658Y2489580D02*
G01*
X-7123658Y2484754D01*
X-7128230Y2475611D01*
X-7132802Y2471038D01*
X-7141946Y2466467D01*
X-7160488Y2466467D01*
X-7169632Y2471038D01*
X-7174458Y2475611D01*
X-7179030Y2484754D01*
X-7179030Y2494153D01*
X-7174458Y2503296D01*
X-7165060Y2517267D01*
X-7118832Y2563240D01*
X-7183602Y2563240D01*
X-7278598Y2466467D02*
G01*
X-7232624Y2563240D01*
X-7214082Y2466467D02*
G01*
X-7278598Y2466467D01*
X-7023836Y2720467D02*
G01*
X-7023836Y2817240D01*
X-7023836Y2720467D02*
G01*
X-7056094Y2720467D01*
X-7070064Y2725038D01*
X-7079208Y2734182D01*
X-7083780Y2743580D01*
X-7088352Y2757296D01*
X-7088352Y2780411D01*
X-7083780Y2794380D01*
X-7079208Y2803525D01*
X-7070064Y2812669D01*
X-7056094Y2817240D01*
X-7023836Y2817240D01*
X-7123658Y2743580D02*
G01*
X-7123658Y2738754D01*
X-7128230Y2729611D01*
X-7132802Y2725038D01*
X-7141946Y2720467D01*
X-7160488Y2720467D01*
X-7169632Y2725038D01*
X-7174458Y2729611D01*
X-7179030Y2738754D01*
X-7179030Y2748153D01*
X-7174458Y2757296D01*
X-7165060Y2771267D01*
X-7118832Y2817240D01*
X-7183602Y2817240D01*
X-7269454Y2734182D02*
G01*
X-7264882Y2725038D01*
X-7250912Y2720467D01*
X-7241768Y2720467D01*
X-7227798Y2725038D01*
X-7218654Y2738754D01*
X-7214082Y2761869D01*
X-7214082Y2784982D01*
X-7218654Y2803525D01*
X-7227798Y2812669D01*
X-7241768Y2817240D01*
X-7246340Y2817240D01*
X-7260310Y2812669D01*
X-7269454Y2803525D01*
X-7274026Y2789554D01*
X-7274026Y2784982D01*
X-7269454Y2771267D01*
X-7260310Y2761869D01*
X-7246340Y2757296D01*
X-7241768Y2757296D01*
X-7227798Y2761869D01*
X-7218654Y2771267D01*
X-7214082Y2784982D01*
X-7023836Y2974467D02*
G01*
X-7023836Y3071240D01*
X-7023836Y2974467D02*
G01*
X-7056094Y2974467D01*
X-7070064Y2979038D01*
X-7079208Y2988182D01*
X-7083780Y2997580D01*
X-7088352Y3011296D01*
X-7088352Y3034411D01*
X-7083780Y3048380D01*
X-7079208Y3057525D01*
X-7070064Y3066669D01*
X-7056094Y3071240D01*
X-7023836Y3071240D01*
X-7123658Y2997580D02*
G01*
X-7123658Y2992754D01*
X-7128230Y2983611D01*
X-7132802Y2979038D01*
X-7141946Y2974467D01*
X-7160488Y2974467D01*
X-7169632Y2979038D01*
X-7174458Y2983611D01*
X-7179030Y2992754D01*
X-7179030Y3002153D01*
X-7174458Y3011296D01*
X-7165060Y3025267D01*
X-7118832Y3071240D01*
X-7183602Y3071240D01*
X-7269454Y2974467D02*
G01*
X-7223226Y2974467D01*
X-7218654Y3015869D01*
X-7223226Y3011296D01*
X-7237196Y3006725D01*
X-7250912Y3006725D01*
X-7264882Y3011296D01*
X-7274026Y3020440D01*
X-7278598Y3034411D01*
X-7278598Y3043554D01*
X-7274026Y3057525D01*
X-7264882Y3066669D01*
X-7250912Y3071240D01*
X-7237196Y3071240D01*
X-7223226Y3066669D01*
X-7218654Y3062096D01*
X-7214082Y3052953D01*
X-7023836Y3228467D02*
G01*
X-7023836Y3325240D01*
X-7023836Y3228467D02*
G01*
X-7056094Y3228467D01*
X-7070064Y3233038D01*
X-7079208Y3242182D01*
X-7083780Y3251580D01*
X-7088352Y3265296D01*
X-7088352Y3288411D01*
X-7083780Y3302380D01*
X-7079208Y3311525D01*
X-7070064Y3320669D01*
X-7056094Y3325240D01*
X-7023836Y3325240D01*
X-7128230Y3228467D02*
G01*
X-7179030Y3228467D01*
X-7151344Y3265296D01*
X-7165060Y3265296D01*
X-7174458Y3269869D01*
X-7179030Y3274440D01*
X-7183602Y3288411D01*
X-7183602Y3297554D01*
X-7179030Y3311525D01*
X-7169632Y3320669D01*
X-7155916Y3325240D01*
X-7141946Y3325240D01*
X-7128230Y3320669D01*
X-7123658Y3316096D01*
X-7118832Y3306953D01*
X-7223226Y3228467D02*
G01*
X-7274026Y3228467D01*
X-7246340Y3265296D01*
X-7260310Y3265296D01*
X-7269454Y3269869D01*
X-7274026Y3274440D01*
X-7278598Y3288411D01*
X-7278598Y3297554D01*
X-7274026Y3311525D01*
X-7264882Y3320669D01*
X-7250912Y3325240D01*
X-7237196Y3325240D01*
X-7223226Y3320669D01*
X-7218654Y3316096D01*
X-7214082Y3306953D01*
X-7023836Y3482467D02*
G01*
X-7023836Y3579240D01*
X-7023836Y3482467D02*
G01*
X-7056094Y3482467D01*
X-7070064Y3487038D01*
X-7079208Y3496182D01*
X-7083780Y3505580D01*
X-7088352Y3519296D01*
X-7088352Y3542411D01*
X-7083780Y3556380D01*
X-7079208Y3565525D01*
X-7070064Y3574669D01*
X-7056094Y3579240D01*
X-7023836Y3579240D01*
X-7128230Y3482467D02*
G01*
X-7179030Y3482467D01*
X-7151344Y3519296D01*
X-7165060Y3519296D01*
X-7174458Y3523869D01*
X-7179030Y3528440D01*
X-7183602Y3542411D01*
X-7183602Y3551554D01*
X-7179030Y3565525D01*
X-7169632Y3574669D01*
X-7155916Y3579240D01*
X-7141946Y3579240D01*
X-7128230Y3574669D01*
X-7123658Y3570096D01*
X-7118832Y3560953D01*
X-7218654Y3505580D02*
G01*
X-7218654Y3500754D01*
X-7223226Y3491611D01*
X-7227798Y3487038D01*
X-7237196Y3482467D01*
X-7255738Y3482467D01*
X-7264882Y3487038D01*
X-7269454Y3491611D01*
X-7274026Y3500754D01*
X-7274026Y3510153D01*
X-7269454Y3519296D01*
X-7260310Y3533267D01*
X-7214082Y3579240D01*
X-7278598Y3579240D01*
X-7023836Y3736467D02*
G01*
X-7023836Y3833240D01*
X-7023836Y3736467D02*
G01*
X-7056094Y3736467D01*
X-7070064Y3741038D01*
X-7079208Y3750182D01*
X-7083780Y3759580D01*
X-7088352Y3773296D01*
X-7088352Y3796411D01*
X-7083780Y3810380D01*
X-7079208Y3819525D01*
X-7070064Y3828669D01*
X-7056094Y3833240D01*
X-7023836Y3833240D01*
X-7128230Y3736467D02*
G01*
X-7179030Y3736467D01*
X-7151344Y3773296D01*
X-7165060Y3773296D01*
X-7174458Y3777869D01*
X-7179030Y3782440D01*
X-7183602Y3796411D01*
X-7183602Y3805554D01*
X-7179030Y3819525D01*
X-7169632Y3828669D01*
X-7155916Y3833240D01*
X-7141946Y3833240D01*
X-7128230Y3828669D01*
X-7123658Y3824096D01*
X-7118832Y3814953D01*
X-7269454Y3736467D02*
G01*
X-7223226Y3736467D01*
X-7218654Y3777869D01*
X-7223226Y3773296D01*
X-7237196Y3768725D01*
X-7250912Y3768725D01*
X-7264882Y3773296D01*
X-7274026Y3782440D01*
X-7278598Y3796411D01*
X-7278598Y3805554D01*
X-7274026Y3819525D01*
X-7264882Y3828669D01*
X-7250912Y3833240D01*
X-7237196Y3833240D01*
X-7223226Y3828669D01*
X-7218654Y3824096D01*
X-7214082Y3814953D01*
X-7023836Y3990467D02*
G01*
X-7023836Y4087240D01*
X-7023836Y3990467D02*
G01*
X-7056094Y3990467D01*
X-7070064Y3995038D01*
X-7079208Y4004182D01*
X-7083780Y4013580D01*
X-7088352Y4027296D01*
X-7088352Y4050411D01*
X-7083780Y4064380D01*
X-7079208Y4073525D01*
X-7070064Y4082669D01*
X-7056094Y4087240D01*
X-7023836Y4087240D01*
X-7128230Y3990467D02*
G01*
X-7179030Y3990467D01*
X-7151344Y4027296D01*
X-7165060Y4027296D01*
X-7174458Y4031869D01*
X-7179030Y4036440D01*
X-7183602Y4050411D01*
X-7183602Y4059554D01*
X-7179030Y4073525D01*
X-7169632Y4082669D01*
X-7155916Y4087240D01*
X-7141946Y4087240D01*
X-7128230Y4082669D01*
X-7123658Y4078096D01*
X-7118832Y4068953D01*
X-7260310Y3990467D02*
G01*
X-7214082Y4054982D01*
X-7283424Y4054982D01*
X-7260310Y3990467D02*
G01*
X-7260310Y4087240D01*
X-7023836Y4244467D02*
G01*
X-7060666Y4341240D01*
X-7097750Y4244467D02*
G01*
X-7060666Y4341240D01*
X-7128230Y4244467D02*
G01*
X-7128230Y4341240D01*
X-7128230Y4244467D02*
G01*
X-7192746Y4341240D01*
X-7192746Y4244467D02*
G01*
X-7192746Y4341240D01*
X-7023836Y4498467D02*
G01*
X-7060666Y4595240D01*
X-7097750Y4498467D02*
G01*
X-7060666Y4595240D01*
X-7128230Y4498467D02*
G01*
X-7128230Y4595240D01*
X-7128230Y4498467D02*
G01*
X-7169632Y4498467D01*
X-7183602Y4503038D01*
X-7188174Y4507611D01*
X-7192746Y4516754D01*
X-7192746Y4530725D01*
X-7188174Y4539869D01*
X-7183602Y4544440D01*
X-7169632Y4549267D01*
X-7128230Y4549267D01*
X-7023836Y4752467D02*
G01*
X-7023836Y4849240D01*
X-7023836Y4752467D02*
G01*
X-7083780Y4752467D01*
X-7023836Y4798440D02*
G01*
X-7060666Y4798440D01*
X-7023836Y4849240D02*
G01*
X-7083780Y4849240D01*
X-7114260Y4752467D02*
G01*
X-7114260Y4849240D01*
X-7114260Y4752467D02*
G01*
X-7179030Y4849240D01*
X-7179030Y4752467D02*
G01*
X-7179030Y4849240D01*
D13*
X-6568439Y3532631D02*
G01*
X-6447281Y3532631D01*
X-6568439Y3532631D02*
G01*
X-6568439Y3607815D01*
X-6510781Y3532631D02*
G01*
X-6510781Y3578860D01*
X-6447281Y3532631D02*
G01*
X-6447281Y3607815D01*
X-6551168Y3726687D02*
G01*
X-6562597Y3715004D01*
X-6568439Y3697731D01*
X-6568439Y3674618D01*
X-6562597Y3657345D01*
X-6551168Y3645915D01*
X-6539484Y3645915D01*
X-6528054Y3651504D01*
X-6522212Y3657345D01*
X-6516370Y3669029D01*
X-6504939Y3703573D01*
X-6499097Y3715004D01*
X-6493510Y3720845D01*
X-6481826Y3726687D01*
X-6464554Y3726687D01*
X-6452870Y3715004D01*
X-6447281Y3697731D01*
X-6447281Y3674618D01*
X-6452870Y3657345D01*
X-6464554Y3645915D01*
X-6568439Y3764787D02*
G01*
X-6447281Y3764787D01*
X-6568439Y3764787D02*
G01*
X-6568439Y3816604D01*
X-6562597Y3834129D01*
X-6557010Y3839718D01*
X-6545326Y3845560D01*
X-6528054Y3845560D01*
X-6516370Y3839718D01*
X-6510781Y3834129D01*
X-6504939Y3816604D01*
X-6504939Y3764787D01*
X-6568439Y3883660D02*
G01*
X-6447281Y3883660D01*
X-6568439Y3883660D02*
G01*
X-6568439Y3935729D01*
X-6562597Y3953002D01*
X-6557010Y3958589D01*
X-6545326Y3964431D01*
X-6533895Y3964431D01*
X-6522212Y3958589D01*
X-6516370Y3953002D01*
X-6510781Y3935729D01*
X-6510781Y3883660D01*
X-6510781Y3924045D02*
G01*
X-6447281Y3964431D01*
X-6568439Y4002531D02*
G01*
X-6447281Y4002531D01*
X-6568439Y4002531D02*
G01*
X-6568439Y4077715D01*
X-6510781Y4002531D02*
G01*
X-6510781Y4048760D01*
X-6447281Y4002531D02*
G01*
X-6447281Y4077715D01*
X-6551168Y4196587D02*
G01*
X-6562597Y4184904D01*
X-6568439Y4167631D01*
X-6568439Y4144518D01*
X-6562597Y4127245D01*
X-6551168Y4115815D01*
X-6539484Y4115815D01*
X-6528054Y4121404D01*
X-6522212Y4127245D01*
X-6516370Y4138929D01*
X-6504939Y4173473D01*
X-6499097Y4184904D01*
X-6493510Y4190745D01*
X-6481826Y4196587D01*
X-6464554Y4196587D01*
X-6452870Y4184904D01*
X-6447281Y4167631D01*
X-6447281Y4144518D01*
X-6452870Y4127245D01*
X-6464554Y4115815D01*
X-6551168Y4315460D02*
G01*
X-6562597Y4304029D01*
X-6568439Y4286504D01*
X-6568439Y4263389D01*
X-6562597Y4246118D01*
X-6551168Y4234687D01*
X-6539484Y4234687D01*
X-6528054Y4240529D01*
X-6522212Y4246118D01*
X-6516370Y4257802D01*
X-6504939Y4292345D01*
X-6499097Y4304029D01*
X-6493510Y4309618D01*
X-6481826Y4315460D01*
X-6464554Y4315460D01*
X-6452870Y4304029D01*
X-6447281Y4286504D01*
X-6447281Y4263389D01*
X-6452870Y4246118D01*
X-6464554Y4234687D01*
X-6568439Y4353560D02*
G01*
X-6447281Y4353560D01*
X-6568439Y4391660D02*
G01*
X-6447281Y4391660D01*
X-6568439Y4391660D02*
G01*
X-6568439Y4466589D01*
X-6510781Y4391660D02*
G01*
X-6510781Y4437887D01*
D12*
X-5980176Y3282695D02*
G01*
X-5883147Y3282695D01*
X-5980176Y3282695D02*
G01*
X-5980176Y3342639D01*
X-5933947Y3282695D02*
G01*
X-5933947Y3319526D01*
X-5883147Y3282695D02*
G01*
X-5883147Y3342639D01*
X-5966205Y3437889D02*
G01*
X-5975604Y3428745D01*
X-5980176Y3414776D01*
X-5980176Y3396234D01*
X-5975604Y3382518D01*
X-5966205Y3373120D01*
X-5957062Y3373120D01*
X-5947663Y3377945D01*
X-5943092Y3382518D01*
X-5938520Y3391662D01*
X-5929376Y3419347D01*
X-5924804Y3428745D01*
X-5919978Y3433318D01*
X-5910834Y3437889D01*
X-5896863Y3437889D01*
X-5887720Y3428745D01*
X-5883147Y3414776D01*
X-5883147Y3396234D01*
X-5887720Y3382518D01*
X-5896863Y3373120D01*
X-5980176Y3468370D02*
G01*
X-5883147Y3468370D01*
X-5980176Y3468370D02*
G01*
X-5980176Y3510026D01*
X-5975604Y3523742D01*
X-5970778Y3528313D01*
X-5961634Y3532886D01*
X-5947663Y3532886D01*
X-5938520Y3528313D01*
X-5933947Y3523742D01*
X-5929376Y3510026D01*
X-5929376Y3468370D01*
X-5924804Y3563365D02*
G01*
X-5924804Y3646678D01*
X-5980176Y3686302D02*
G01*
X-5980176Y3737102D01*
X-5943092Y3709415D01*
X-5943092Y3723386D01*
X-5938520Y3732529D01*
X-5933947Y3737102D01*
X-5919978Y3741673D01*
X-5910834Y3741673D01*
X-5896863Y3737102D01*
X-5887720Y3727957D01*
X-5883147Y3713987D01*
X-5883147Y3700271D01*
X-5887720Y3686302D01*
X-5892292Y3681729D01*
X-5901689Y3677157D01*
X-5957062Y3776726D02*
G01*
X-5961634Y3776726D01*
X-5970778Y3781552D01*
X-5975604Y3786123D01*
X-5980176Y3795268D01*
X-5980176Y3813810D01*
X-5975604Y3822954D01*
X-5970778Y3827526D01*
X-5961634Y3832352D01*
X-5952489Y3832352D01*
X-5943092Y3827526D01*
X-5929376Y3818381D01*
X-5883147Y3772154D01*
X-5883147Y3836923D01*
X-5924804Y3867404D02*
G01*
X-5924804Y3950462D01*
X-5980176Y3980942D02*
G01*
X-5883147Y4004055D01*
X-5980176Y4027170D02*
G01*
X-5883147Y4004055D01*
X-5980176Y4027170D02*
G01*
X-5883147Y4050284D01*
X-5980176Y4073397D02*
G01*
X-5883147Y4050284D01*
X-5980176Y4103878D02*
G01*
X-5883147Y4103878D01*
X-5980176Y4103878D02*
G01*
X-5980176Y4145279D01*
X-5975604Y4159250D01*
X-5970778Y4163821D01*
X-5961634Y4168394D01*
X-5952489Y4168394D01*
X-5943092Y4163821D01*
X-5938520Y4159250D01*
X-5933947Y4145279D01*
X-5933947Y4103878D01*
X-5933947Y4136136D02*
G01*
X-5883147Y4168394D01*
X-5980176Y4226560D02*
G01*
X-5975604Y4217415D01*
X-5966205Y4208271D01*
X-5957062Y4203445D01*
X-5943092Y4198873D01*
X-5919978Y4198873D01*
X-5906262Y4203445D01*
X-5896863Y4208271D01*
X-5887720Y4217415D01*
X-5883147Y4226560D01*
X-5883147Y4245102D01*
X-5887720Y4254245D01*
X-5896863Y4263644D01*
X-5906262Y4268215D01*
X-5919978Y4272787D01*
X-5943092Y4272787D01*
X-5957062Y4268215D01*
X-5966205Y4263644D01*
X-5975604Y4254245D01*
X-5980176Y4245102D01*
X-5980176Y4226560D01*
X-5980176Y4330954D02*
G01*
X-5975604Y4321810D01*
X-5966205Y4312665D01*
X-5957062Y4307839D01*
X-5943092Y4303268D01*
X-5919978Y4303268D01*
X-5906262Y4307839D01*
X-5896863Y4312665D01*
X-5887720Y4321810D01*
X-5883147Y4330954D01*
X-5883147Y4349495D01*
X-5887720Y4358639D01*
X-5896863Y4368037D01*
X-5906262Y4372610D01*
X-5919978Y4377181D01*
X-5943092Y4377181D01*
X-5957062Y4372610D01*
X-5966205Y4368037D01*
X-5975604Y4358639D01*
X-5980176Y4349495D01*
X-5980176Y4330954D01*
X-5980176Y4407662D02*
G01*
X-5883147Y4407662D01*
X-5980176Y4407662D02*
G01*
X-5883147Y4444745D01*
X-5980176Y4481576D02*
G01*
X-5883147Y4444745D01*
X-5980176Y4481576D02*
G01*
X-5883147Y4481576D01*
X-5924804Y4512055D02*
G01*
X-5924804Y4595113D01*
X-5980176Y4634992D02*
G01*
X-5980176Y4685792D01*
X-5943092Y4658105D01*
X-5943092Y4671821D01*
X-5938520Y4680965D01*
X-5933947Y4685792D01*
X-5919978Y4690363D01*
X-5910834Y4690363D01*
X-5896863Y4685792D01*
X-5887720Y4676394D01*
X-5883147Y4662678D01*
X-5883147Y4648707D01*
X-5887720Y4634992D01*
X-5892292Y4630165D01*
X-5901689Y4625594D01*
X-5957062Y4725415D02*
G01*
X-5961634Y4725415D01*
X-5970778Y4729987D01*
X-5975604Y4734560D01*
X-5980176Y4743957D01*
X-5980176Y4762245D01*
X-5975604Y4771644D01*
X-5970778Y4776215D01*
X-5961634Y4780787D01*
X-5952489Y4780787D01*
X-5943092Y4776215D01*
X-5929376Y4767071D01*
X-5883147Y4720844D01*
X-5883147Y4785360D01*
D10*
X-591845Y8520607D02*
G01*
X-785901Y8520607D01*
X-591845Y8520607D02*
G01*
X-591845Y8437295D01*
X-600989Y8409609D01*
X-610387Y8400465D01*
X-628675Y8391321D01*
X-647217Y8391321D01*
X-665759Y8400465D01*
X-674903Y8409609D01*
X-684301Y8437295D01*
X-684301Y8520607D02*
G01*
X-684301Y8437295D01*
X-693445Y8409609D01*
X-702589Y8400465D01*
X-721131Y8391321D01*
X-748817Y8391321D01*
X-767359Y8400465D01*
X-776503Y8409609D01*
X-785901Y8437295D01*
X-785901Y8520607D01*
X-591845Y8330361D02*
G01*
X-785901Y8330361D01*
X-591845Y8330361D02*
G01*
X-785901Y8256447D01*
X-591845Y8182533D02*
G01*
X-785901Y8256447D01*
X-591845Y8182533D02*
G01*
X-785901Y8182533D01*
X-591845Y8121573D02*
G01*
X-785901Y8121573D01*
X-591845Y8121573D02*
G01*
X-591845Y8001431D01*
X-684301Y8121573D02*
G01*
X-684301Y8047659D01*
X-785901Y8121573D02*
G01*
X-785901Y8001431D01*
X-638073Y7931327D02*
G01*
X-628675Y7931327D01*
X-610387Y7921929D01*
X-600989Y7912785D01*
X-591845Y7894243D01*
X-591845Y7857413D01*
X-600989Y7838871D01*
X-610387Y7829727D01*
X-628675Y7820329D01*
X-647217Y7820329D01*
X-665759Y7829727D01*
X-693445Y7848015D01*
X-785901Y7940471D01*
X-785901Y7811185D01*
X-591845Y7703997D02*
G01*
X-600989Y7731683D01*
X-619531Y7741081D01*
X-638073Y7741081D01*
X-656361Y7731683D01*
X-665759Y7713141D01*
X-674903Y7676311D01*
X-684301Y7648625D01*
X-702589Y7630083D01*
X-721131Y7620939D01*
X-748817Y7620939D01*
X-767359Y7630083D01*
X-776503Y7639481D01*
X-785901Y7667167D01*
X-785901Y7703997D01*
X-776503Y7731683D01*
X-767359Y7741081D01*
X-748817Y7750225D01*
X-721131Y7750225D01*
X-702589Y7741081D01*
X-684301Y7722539D01*
X-674903Y7694853D01*
X-665759Y7657769D01*
X-656361Y7639481D01*
X-638073Y7630083D01*
X-619531Y7630083D01*
X-600989Y7639481D01*
X-591845Y7667167D01*
X-591845Y7703997D01*
X-591845Y7504607D02*
G01*
X-600989Y7532293D01*
X-628675Y7550581D01*
X-674903Y7559979D01*
X-702589Y7559979D01*
X-748817Y7550581D01*
X-776503Y7532293D01*
X-785901Y7504607D01*
X-785901Y7486065D01*
X-776503Y7458379D01*
X-748817Y7439837D01*
X-702589Y7430693D01*
X-674903Y7430693D01*
X-628675Y7439837D01*
X-600989Y7458379D01*
X-591845Y7486065D01*
X-591845Y7504607D01*
X-1360906Y8665590D02*
G01*
X-1317218Y8551037D01*
X-1273530Y8665590D02*
G01*
X-1317218Y8551037D01*
X-1155928Y8638159D02*
G01*
X-1161262Y8649080D01*
X-1172184Y8660003D01*
X-1183106Y8665590D01*
X-1204950Y8665590D01*
X-1215872Y8660003D01*
X-1226794Y8649080D01*
X-1232128Y8638159D01*
X-1237716Y8621903D01*
X-1237716Y8594725D01*
X-1232128Y8578214D01*
X-1226794Y8567293D01*
X-1215872Y8556370D01*
X-1204950Y8551037D01*
X-1183106Y8551037D01*
X-1172184Y8556370D01*
X-1161262Y8567293D01*
X-1155928Y8578214D01*
X-1038072Y8638159D02*
G01*
X-1043406Y8649080D01*
X-1054328Y8660003D01*
X-1065250Y8665590D01*
X-1087094Y8665590D01*
X-1098016Y8660003D01*
X-1108938Y8649080D01*
X-1114272Y8638159D01*
X-1119860Y8621903D01*
X-1119860Y8594725D01*
X-1114272Y8578214D01*
X-1108938Y8567293D01*
X-1098016Y8556370D01*
X-1087094Y8551037D01*
X-1065250Y8551037D01*
X-1054328Y8556370D01*
X-1043406Y8567293D01*
X-1038072Y8578214D01*
X-1279118Y8388172D02*
G01*
X-1284452Y8399094D01*
X-1295374Y8410016D01*
X-1306296Y8415604D01*
X-1328140Y8415604D01*
X-1339062Y8410016D01*
X-1349984Y8399094D01*
X-1355572Y8388172D01*
X-1360906Y8371916D01*
X-1360906Y8344738D01*
X-1355572Y8328228D01*
X-1349984Y8317306D01*
X-1339062Y8306384D01*
X-1328140Y8301050D01*
X-1306296Y8301050D01*
X-1295374Y8306384D01*
X-1284452Y8317306D01*
X-1279118Y8328228D01*
X-1279118Y8344738D01*
X-1306296Y8344738D02*
G01*
X-1279118Y8344738D01*
X-1243050Y8415604D02*
G01*
X-1243050Y8301050D01*
X-1243050Y8415604D02*
G01*
X-1166850Y8301050D01*
X-1166850Y8415604D02*
G01*
X-1166850Y8301050D01*
X-1130782Y8415604D02*
G01*
X-1130782Y8301050D01*
X-1130782Y8415604D02*
G01*
X-1092428Y8415604D01*
X-1076172Y8410016D01*
X-1065250Y8399094D01*
X-1059916Y8388172D01*
X-1054328Y8371916D01*
X-1054328Y8344738D01*
X-1059916Y8328228D01*
X-1065250Y8317306D01*
X-1076172Y8306384D01*
X-1092428Y8301050D01*
X-1130782Y8301050D01*
X-1284452Y8149081D02*
G01*
X-1295374Y8160004D01*
X-1311884Y8165592D01*
X-1333728Y8165592D01*
X-1349984Y8160004D01*
X-1360906Y8149081D01*
X-1360906Y8138160D01*
X-1355572Y8127237D01*
X-1349984Y8121904D01*
X-1339062Y8116315D01*
X-1306296Y8105394D01*
X-1295374Y8100060D01*
X-1290040Y8094726D01*
X-1284452Y8083804D01*
X-1284452Y8067294D01*
X-1295374Y8056371D01*
X-1311884Y8051037D01*
X-1333728Y8051037D01*
X-1349984Y8056371D01*
X-1360906Y8067294D01*
X-1166850Y8138160D02*
G01*
X-1172184Y8149081D01*
X-1183106Y8160004D01*
X-1194028Y8165592D01*
X-1215872Y8165592D01*
X-1226794Y8160004D01*
X-1237716Y8149081D01*
X-1243050Y8138160D01*
X-1248638Y8121904D01*
X-1248638Y8094726D01*
X-1243050Y8078215D01*
X-1237716Y8067294D01*
X-1226794Y8056371D01*
X-1215872Y8051037D01*
X-1194028Y8051037D01*
X-1183106Y8056371D01*
X-1172184Y8067294D01*
X-1166850Y8078215D01*
X-1130782Y8165592D02*
G01*
X-1130782Y8051037D01*
X-1130782Y8051037D02*
G01*
X-1065250Y8051037D01*
X-1284452Y7874076D02*
G01*
X-1295374Y7884998D01*
X-1311884Y7890586D01*
X-1333728Y7890586D01*
X-1349984Y7884998D01*
X-1360906Y7874076D01*
X-1360906Y7863154D01*
X-1355572Y7852232D01*
X-1349984Y7846898D01*
X-1339062Y7841310D01*
X-1306296Y7830388D01*
X-1295374Y7825054D01*
X-1290040Y7819720D01*
X-1284452Y7808798D01*
X-1284452Y7792288D01*
X-1295374Y7781366D01*
X-1311884Y7776032D01*
X-1333728Y7776032D01*
X-1349984Y7781366D01*
X-1360906Y7792288D01*
X-1248638Y7890586D02*
G01*
X-1248638Y7776032D01*
X-1248638Y7890586D02*
G01*
X-1210284Y7890586D01*
X-1194028Y7884998D01*
X-1183106Y7874076D01*
X-1177518Y7863154D01*
X-1172184Y7846898D01*
X-1172184Y7819720D01*
X-1177518Y7803210D01*
X-1183106Y7792288D01*
X-1194028Y7781366D01*
X-1210284Y7776032D01*
X-1248638Y7776032D01*
X-1092428Y7890586D02*
G01*
X-1136116Y7776032D01*
X-1092428Y7890586D02*
G01*
X-1048994Y7776032D01*
X-1119860Y7814132D02*
G01*
X-1065250Y7814132D01*
X-1279118Y7613167D02*
G01*
X-1284452Y7624089D01*
X-1295374Y7635011D01*
X-1306296Y7640599D01*
X-1328140Y7640599D01*
X-1339062Y7635011D01*
X-1349984Y7624089D01*
X-1355572Y7613167D01*
X-1360906Y7596911D01*
X-1360906Y7569733D01*
X-1355572Y7553223D01*
X-1349984Y7542301D01*
X-1339062Y7531379D01*
X-1328140Y7526045D01*
X-1306296Y7526045D01*
X-1295374Y7531379D01*
X-1284452Y7542301D01*
X-1279118Y7553223D01*
X-1166850Y7624089D02*
G01*
X-1177518Y7635011D01*
X-1194028Y7640599D01*
X-1215872Y7640599D01*
X-1232128Y7635011D01*
X-1243050Y7624089D01*
X-1243050Y7613167D01*
X-1237716Y7602245D01*
X-1232128Y7596911D01*
X-1221206Y7591323D01*
X-1188440Y7580401D01*
X-1177518Y7575067D01*
X-1172184Y7569733D01*
X-1166850Y7558811D01*
X-1166850Y7542301D01*
X-1177518Y7531379D01*
X-1194028Y7526045D01*
X-1215872Y7526045D01*
X-1232128Y7531379D01*
X-1243050Y7542301D01*
X-1130782Y7640599D02*
G01*
X-1130782Y7526045D01*
X-1130782Y7640599D02*
G01*
X-1081760Y7640599D01*
X-1065250Y7635011D01*
X-1059916Y7629677D01*
X-1054328Y7618755D01*
X-1054328Y7607833D01*
X-1059916Y7596911D01*
X-1065250Y7591323D01*
X-1081760Y7585989D01*
X-1130782Y7585989D02*
G01*
X-1081760Y7585989D01*
X-1065250Y7580401D01*
X-1059916Y7575067D01*
X-1054328Y7564145D01*
X-1054328Y7547889D01*
X-1059916Y7536967D01*
X-1065250Y7531379D01*
X-1081760Y7526045D01*
X-1130782Y7526045D01*
X-1284452Y7374077D02*
G01*
X-1295374Y7384999D01*
X-1311884Y7390587D01*
X-1333728Y7390587D01*
X-1349984Y7384999D01*
X-1360906Y7374077D01*
X-1360906Y7363155D01*
X-1355572Y7352233D01*
X-1349984Y7346899D01*
X-1339062Y7341311D01*
X-1306296Y7330389D01*
X-1295374Y7325055D01*
X-1290040Y7319721D01*
X-1284452Y7308799D01*
X-1284452Y7292289D01*
X-1295374Y7281367D01*
X-1311884Y7276033D01*
X-1333728Y7276033D01*
X-1349984Y7281367D01*
X-1360906Y7292289D01*
X-1248638Y7390587D02*
G01*
X-1248638Y7276033D01*
X-1248638Y7390587D02*
G01*
X-1210284Y7390587D01*
X-1194028Y7384999D01*
X-1183106Y7374077D01*
X-1177518Y7363155D01*
X-1172184Y7346899D01*
X-1172184Y7319721D01*
X-1177518Y7303211D01*
X-1183106Y7292289D01*
X-1194028Y7281367D01*
X-1210284Y7276033D01*
X-1248638Y7276033D01*
X-1103350Y7390587D02*
G01*
X-1114272Y7384999D01*
X-1125194Y7374077D01*
X-1130782Y7363155D01*
X-1136116Y7346899D01*
X-1136116Y7319721D01*
X-1130782Y7303211D01*
X-1125194Y7292289D01*
X-1114272Y7281367D01*
X-1103350Y7276033D01*
X-1081760Y7276033D01*
X-1070838Y7281367D01*
X-1059916Y7292289D01*
X-1054328Y7303211D01*
X-1048994Y7319721D01*
X-1048994Y7346899D01*
X-1054328Y7363155D01*
X-1059916Y7374077D01*
X-1070838Y7384999D01*
X-1081760Y7390587D01*
X-1103350Y7390587D01*
D11*
X-1270000Y8941815D02*
G01*
X-1270000Y8832850D01*
X-1270000Y8941815D02*
G01*
X-1223263Y8941815D01*
X-1207770Y8936736D01*
X-1202436Y8931402D01*
X-1197355Y8920987D01*
X-1197355Y8910574D01*
X-1202436Y8900160D01*
X-1207770Y8895079D01*
X-1223263Y8890000D01*
X-1270000Y8890000D02*
G01*
X-1223263Y8890000D01*
X-1207770Y8884665D01*
X-1202436Y8879586D01*
X-1197355Y8869171D01*
X-1197355Y8853424D01*
X-1202436Y8843010D01*
X-1207770Y8837929D01*
X-1223263Y8832850D01*
X-1270000Y8832850D01*
X-1163065Y8941815D02*
G01*
X-1163065Y8832850D01*
X-1163065Y8941815D02*
G01*
X-1121410Y8832850D01*
X-1079754Y8941815D02*
G01*
X-1121410Y8832850D01*
X-1079754Y8941815D02*
G01*
X-1079754Y8832850D01*
X-1045463Y8941815D02*
G01*
X-1045463Y8832850D01*
X-1045463Y8941815D02*
G01*
X-977900Y8941815D01*
X-1045463Y8890000D02*
G01*
X-1004062Y8890000D01*
X-1045463Y8832850D02*
G01*
X-977900Y8832850D01*
X-938529Y8915908D02*
G01*
X-938529Y8920987D01*
X-933450Y8931402D01*
X-928115Y8936736D01*
X-917702Y8941815D01*
X-896873Y8941815D01*
X-886460Y8936736D01*
X-881379Y8931402D01*
X-876300Y8920987D01*
X-876300Y8910574D01*
X-881379Y8900160D01*
X-891794Y8884665D01*
X-943610Y8832850D01*
X-870965Y8832850D01*
X-810768Y8941815D02*
G01*
X-826262Y8936736D01*
X-831595Y8926321D01*
X-831595Y8915908D01*
X-826262Y8905494D01*
X-815847Y8900160D01*
X-795020Y8895079D01*
X-779526Y8890000D01*
X-769112Y8879586D01*
X-764031Y8869171D01*
X-764031Y8853424D01*
X-769112Y8843010D01*
X-774445Y8837929D01*
X-789939Y8832850D01*
X-810768Y8832850D01*
X-826262Y8837929D01*
X-831595Y8843010D01*
X-836676Y8853424D01*
X-836676Y8869171D01*
X-831595Y8879586D01*
X-821181Y8890000D01*
X-805434Y8895079D01*
X-784860Y8900160D01*
X-774445Y8905494D01*
X-769112Y8915908D01*
X-769112Y8926321D01*
X-774445Y8936736D01*
X-789939Y8941815D01*
X-810768Y8941815D01*
X-698500Y8941815D02*
G01*
X-713994Y8936736D01*
X-724407Y8920987D01*
X-729742Y8895079D01*
X-729742Y8879586D01*
X-724407Y8853424D01*
X-713994Y8837929D01*
X-698500Y8832850D01*
X-688086Y8832850D01*
X-672592Y8837929D01*
X-662178Y8853424D01*
X-656844Y8879586D01*
X-656844Y8895079D01*
X-662178Y8920987D01*
X-672592Y8936736D01*
X-688086Y8941815D01*
X-698500Y8941815D01*
X-1193800Y4090415D02*
G01*
X-1193800Y3981450D01*
X-1193800Y4090415D02*
G01*
X-1157478Y4090415D01*
X-1141729Y4085336D01*
X-1131570Y4074921D01*
X-1126236Y4064507D01*
X-1121155Y4048760D01*
X-1121155Y4022852D01*
X-1126236Y4007357D01*
X-1131570Y3996944D01*
X-1141729Y3986529D01*
X-1157478Y3981450D01*
X-1193800Y3981450D01*
X-1013968Y4074921D02*
G01*
X-1024381Y4085336D01*
X-1040129Y4090415D01*
X-1060704Y4090415D01*
X-1076452Y4085336D01*
X-1086865Y4074921D01*
X-1086865Y4064507D01*
X-1081531Y4054094D01*
X-1076452Y4048760D01*
X-1066037Y4043679D01*
X-1034795Y4033265D01*
X-1024381Y4028186D01*
X-1019302Y4022852D01*
X-1013968Y4012437D01*
X-1013968Y3996944D01*
X-1024381Y3986529D01*
X-1040129Y3981450D01*
X-1060704Y3981450D01*
X-1076452Y3986529D01*
X-1086865Y3996944D01*
X-969263Y4090415D02*
G01*
X-912113Y4090415D01*
X-943355Y4048760D01*
X-927862Y4048760D01*
X-917447Y4043679D01*
X-912113Y4038600D01*
X-907034Y4022852D01*
X-907034Y4012437D01*
X-912113Y3996944D01*
X-922528Y3986529D01*
X-938276Y3981450D01*
X-953770Y3981450D01*
X-969263Y3986529D01*
X-974597Y3991610D01*
X-979678Y4002023D01*
X-867410Y4064507D02*
G01*
X-867410Y4069587D01*
X-862329Y4080002D01*
X-857250Y4085336D01*
X-846836Y4090415D01*
X-826007Y4090415D01*
X-815594Y4085336D01*
X-810260Y4080002D01*
X-805179Y4069587D01*
X-805179Y4059173D01*
X-810260Y4048760D01*
X-820673Y4033265D01*
X-872744Y3981450D01*
X-800100Y3981450D01*
X-755395Y4090415D02*
G01*
X-698245Y4090415D01*
X-729234Y4048760D01*
X-713739Y4048760D01*
X-703326Y4043679D01*
X-698245Y4038600D01*
X-692912Y4022852D01*
X-692912Y4012437D01*
X-698245Y3996944D01*
X-708660Y3986529D01*
X-724154Y3981450D01*
X-739647Y3981450D01*
X-755395Y3986529D01*
X-760476Y3991610D01*
X-765810Y4002023D01*
X-658621Y4069587D02*
G01*
X-648207Y4074921D01*
X-632713Y4090415D01*
X-632713Y3981450D01*
D10*
X-2185162Y5883147D02*
G01*
X-2178304Y5869431D01*
X-2164587Y5855970D01*
X-2150871Y5849112D01*
X-2123694Y5849112D01*
X-2109978Y5855970D01*
X-2096515Y5869431D01*
X-2089657Y5883147D01*
X-2082800Y5903721D01*
X-2082800Y5937757D01*
X-2089657Y5958078D01*
X-2096515Y5971794D01*
X-2109978Y5985510D01*
X-2123694Y5992368D01*
X-2150871Y5992368D01*
X-2164587Y5985510D01*
X-2178304Y5971794D01*
X-2185162Y5958078D01*
X-2185162Y5937757D01*
X-2150871Y5937757D02*
G01*
X-2185162Y5937757D01*
X-2230120Y5849112D02*
G01*
X-2230120Y5992368D01*
X-2230120Y5849112D02*
G01*
X-2325623Y5992368D01*
X-2325623Y5849112D02*
G01*
X-2325623Y5992368D01*
X-2370581Y5849112D02*
G01*
X-2370581Y5992368D01*
X-2370581Y5849112D02*
G01*
X-2418334Y5849112D01*
X-2438654Y5855970D01*
X-2452370Y5869431D01*
X-2459228Y5883147D01*
X-2466086Y5903721D01*
X-2466086Y5937757D01*
X-2459228Y5958078D01*
X-2452370Y5971794D01*
X-2438654Y5985510D01*
X-2418334Y5992368D01*
X-2370581Y5992368D01*
X-2082800Y5595112D02*
G01*
X-2137410Y5738368D01*
X-2191765Y5595112D02*
G01*
X-2137410Y5738368D01*
X-2339086Y5629147D02*
G01*
X-2332228Y5615431D01*
X-2318765Y5601970D01*
X-2305050Y5595112D01*
X-2277871Y5595112D01*
X-2264155Y5601970D01*
X-2250439Y5615431D01*
X-2243836Y5629147D01*
X-2236978Y5649721D01*
X-2236978Y5683757D01*
X-2243836Y5704078D01*
X-2250439Y5717794D01*
X-2264155Y5731510D01*
X-2277871Y5738368D01*
X-2305050Y5738368D01*
X-2318765Y5731510D01*
X-2332228Y5717794D01*
X-2339086Y5704078D01*
X-2486405Y5629147D02*
G01*
X-2479547Y5615431D01*
X-2466086Y5601970D01*
X-2452370Y5595112D01*
X-2425192Y5595112D01*
X-2411476Y5601970D01*
X-2397760Y5615431D01*
X-2390902Y5629147D01*
X-2384044Y5649721D01*
X-2384044Y5683757D01*
X-2390902Y5704078D01*
X-2397760Y5717794D01*
X-2411476Y5731510D01*
X-2425192Y5738368D01*
X-2452370Y5738368D01*
X-2466086Y5731510D01*
X-2479547Y5717794D01*
X-2486405Y5704078D01*
X-2178304Y5361431D02*
G01*
X-2164587Y5347970D01*
X-2144268Y5341112D01*
X-2116836Y5341112D01*
X-2096515Y5347970D01*
X-2082800Y5361431D01*
X-2082800Y5375147D01*
X-2089657Y5388863D01*
X-2096515Y5395721D01*
X-2109978Y5402326D01*
X-2150871Y5416042D01*
X-2164587Y5422900D01*
X-2171445Y5429757D01*
X-2178304Y5443473D01*
X-2178304Y5463794D01*
X-2164587Y5477510D01*
X-2144268Y5484368D01*
X-2116836Y5484368D01*
X-2096515Y5477510D01*
X-2082800Y5463794D01*
X-2223262Y5341112D02*
G01*
X-2223262Y5484368D01*
X-2223262Y5341112D02*
G01*
X-2271013Y5341112D01*
X-2291334Y5347970D01*
X-2305050Y5361431D01*
X-2311907Y5375147D01*
X-2318765Y5395721D01*
X-2318765Y5429757D01*
X-2311907Y5450078D01*
X-2305050Y5463794D01*
X-2291334Y5477510D01*
X-2271013Y5484368D01*
X-2223262Y5484368D01*
X-2418334Y5341112D02*
G01*
X-2363723Y5484368D01*
X-2418334Y5341112D02*
G01*
X-2472689Y5484368D01*
X-2384044Y5436615D02*
G01*
X-2452370Y5436615D01*
X-2178304Y5107431D02*
G01*
X-2164587Y5093970D01*
X-2144268Y5087112D01*
X-2116836Y5087112D01*
X-2096515Y5093970D01*
X-2082800Y5107431D01*
X-2082800Y5121147D01*
X-2089657Y5134863D01*
X-2096515Y5141721D01*
X-2109978Y5148326D01*
X-2150871Y5162042D01*
X-2164587Y5168900D01*
X-2171445Y5175757D01*
X-2178304Y5189473D01*
X-2178304Y5209794D01*
X-2164587Y5223510D01*
X-2144268Y5230368D01*
X-2116836Y5230368D01*
X-2096515Y5223510D01*
X-2082800Y5209794D01*
X-2325623Y5121147D02*
G01*
X-2318765Y5107431D01*
X-2305050Y5093970D01*
X-2291334Y5087112D01*
X-2264155Y5087112D01*
X-2250439Y5093970D01*
X-2236978Y5107431D01*
X-2230120Y5121147D01*
X-2223262Y5141721D01*
X-2223262Y5175757D01*
X-2230120Y5196078D01*
X-2236978Y5209794D01*
X-2250439Y5223510D01*
X-2264155Y5230368D01*
X-2291334Y5230368D01*
X-2305050Y5223510D01*
X-2318765Y5209794D01*
X-2325623Y5196078D01*
X-2370581Y5087112D02*
G01*
X-2370581Y5230368D01*
X-2370581Y5230368D02*
G01*
X-2452370Y5230368D01*
X-2178304Y4853431D02*
G01*
X-2164587Y4839970D01*
X-2144268Y4833112D01*
X-2116836Y4833112D01*
X-2096515Y4839970D01*
X-2082800Y4853431D01*
X-2082800Y4867147D01*
X-2089657Y4880863D01*
X-2096515Y4887721D01*
X-2109978Y4894326D01*
X-2150871Y4908042D01*
X-2164587Y4914900D01*
X-2171445Y4921757D01*
X-2178304Y4935473D01*
X-2178304Y4955794D01*
X-2164587Y4969510D01*
X-2144268Y4976368D01*
X-2116836Y4976368D01*
X-2096515Y4969510D01*
X-2082800Y4955794D01*
X-2264155Y4833112D02*
G01*
X-2250439Y4839970D01*
X-2236978Y4853431D01*
X-2230120Y4867147D01*
X-2223262Y4887721D01*
X-2223262Y4921757D01*
X-2230120Y4942078D01*
X-2236978Y4955794D01*
X-2250439Y4969510D01*
X-2264155Y4976368D01*
X-2291334Y4976368D01*
X-2305050Y4969510D01*
X-2318765Y4955794D01*
X-2325623Y4942078D01*
X-2332228Y4921757D01*
X-2332228Y4887721D01*
X-2325623Y4867147D01*
X-2318765Y4853431D01*
X-2305050Y4839970D01*
X-2291334Y4833112D01*
X-2264155Y4833112D01*
X-2284729Y4948936D02*
G01*
X-2325623Y4989829D01*
X-2377439Y4833112D02*
G01*
X-2411476Y4976368D01*
X-2445512Y4833112D02*
G01*
X-2411476Y4976368D01*
X-2445512Y4833112D02*
G01*
X-2479547Y4976368D01*
X-2513584Y4833112D02*
G01*
X-2479547Y4976368D01*
X-2096515Y4579112D02*
G01*
X-2171445Y4579112D01*
X-2130552Y4633721D01*
X-2150871Y4633721D01*
X-2164587Y4640326D01*
X-2171445Y4647184D01*
X-2178304Y4667757D01*
X-2178304Y4681473D01*
X-2171445Y4701794D01*
X-2157729Y4715510D01*
X-2137410Y4722368D01*
X-2116836Y4722368D01*
X-2096515Y4715510D01*
X-2089657Y4708652D01*
X-2082800Y4694936D01*
X-2230120Y4613147D02*
G01*
X-2230120Y4606289D01*
X-2236978Y4592828D01*
X-2243836Y4585970D01*
X-2257297Y4579112D01*
X-2284729Y4579112D01*
X-2298192Y4585970D01*
X-2305050Y4592828D01*
X-2311907Y4606289D01*
X-2311907Y4620005D01*
X-2305050Y4633721D01*
X-2291334Y4654042D01*
X-2223262Y4722368D01*
X-2318765Y4722368D01*
X-2363723Y4579112D02*
G01*
X-2363723Y4722368D01*
X-2459228Y4579112D02*
G01*
X-2363723Y4674615D01*
X-2397760Y4640326D02*
G01*
X-2459228Y4722368D01*
X-8426450Y5239765D02*
G01*
X-8360918Y5239765D01*
X-8393684Y5207000D02*
G01*
X-8393684Y5272531D01*
D11*
X-8675115Y5080000D02*
G01*
X-8566150Y5080000D01*
X-8566150Y5080000D02*
G01*
X-8566150Y5142229D01*
X-8675115Y5176520D02*
G01*
X-8566150Y5176520D01*
X-8675115Y5176520D02*
G01*
X-8675115Y5244084D01*
X-8623300Y5176520D02*
G01*
X-8623300Y5218176D01*
X-8566150Y5176520D02*
G01*
X-8566150Y5244084D01*
X-8675115Y5278373D02*
G01*
X-8566150Y5278373D01*
X-8675115Y5278373D02*
G01*
X-8675115Y5314950D01*
X-8670036Y5330444D01*
X-8659621Y5340857D01*
X-8649208Y5345937D01*
X-8633460Y5351271D01*
X-8607552Y5351271D01*
X-8592058Y5345937D01*
X-8581644Y5340857D01*
X-8571229Y5330444D01*
X-8566150Y5314950D01*
X-8566150Y5278373D01*
X-8654287Y5385562D02*
G01*
X-8659621Y5395976D01*
X-8675115Y5411470D01*
X-8566150Y5411470D01*
X-8612886Y5445760D02*
G01*
X-8612886Y5539231D01*
X-8675115Y5573521D02*
G01*
X-8566150Y5573521D01*
X-8675115Y5573521D02*
G01*
X-8675115Y5620257D01*
X-8670036Y5636005D01*
X-8664702Y5641086D01*
X-8654287Y5646420D01*
X-8643874Y5646420D01*
X-8633460Y5641086D01*
X-8628379Y5636005D01*
X-8623300Y5620257D01*
X-8623300Y5573521D01*
X-8623300Y5609844D02*
G01*
X-8566150Y5646420D01*
D10*
X-8426450Y4439665D02*
G01*
X-8360918Y4439665D01*
X-8393684Y4406900D02*
G01*
X-8393684Y4472431D01*
D11*
X-8675115Y4216400D02*
G01*
X-8566150Y4216400D01*
X-8566150Y4216400D02*
G01*
X-8566150Y4278629D01*
X-8675115Y4312920D02*
G01*
X-8566150Y4312920D01*
X-8675115Y4312920D02*
G01*
X-8675115Y4380484D01*
X-8623300Y4312920D02*
G01*
X-8623300Y4354576D01*
X-8566150Y4312920D02*
G01*
X-8566150Y4380484D01*
X-8675115Y4414773D02*
G01*
X-8566150Y4414773D01*
X-8675115Y4414773D02*
G01*
X-8675115Y4451350D01*
X-8670036Y4466844D01*
X-8659621Y4477257D01*
X-8649208Y4482337D01*
X-8633460Y4487671D01*
X-8607552Y4487671D01*
X-8592058Y4482337D01*
X-8581644Y4477257D01*
X-8571229Y4466844D01*
X-8566150Y4451350D01*
X-8566150Y4414773D01*
X-8649208Y4527042D02*
G01*
X-8654287Y4527042D01*
X-8664702Y4532376D01*
X-8670036Y4537455D01*
X-8675115Y4547870D01*
X-8675115Y4568697D01*
X-8670036Y4579112D01*
X-8664702Y4584192D01*
X-8654287Y4589526D01*
X-8643874Y4589526D01*
X-8633460Y4584192D01*
X-8617965Y4573778D01*
X-8566150Y4521962D01*
X-8566150Y4594605D01*
X-8612886Y4628895D02*
G01*
X-8612886Y4722368D01*
X-8675115Y4756657D02*
G01*
X-8623300Y4798313D01*
X-8566150Y4798313D01*
X-8675115Y4839970D02*
G01*
X-8623300Y4798313D01*
D10*
X-8389365Y3524250D02*
G01*
X-8389365Y3589781D01*
X-8356600Y3557015D02*
G01*
X-8422131Y3557015D01*
D11*
X-8662415Y3390900D02*
G01*
X-8553450Y3390900D01*
X-8553450Y3390900D02*
G01*
X-8553450Y3453129D01*
X-8662415Y3487420D02*
G01*
X-8553450Y3487420D01*
X-8662415Y3487420D02*
G01*
X-8662415Y3554984D01*
X-8610600Y3487420D02*
G01*
X-8610600Y3529076D01*
X-8553450Y3487420D02*
G01*
X-8553450Y3554984D01*
X-8662415Y3589273D02*
G01*
X-8553450Y3589273D01*
X-8662415Y3589273D02*
G01*
X-8662415Y3625850D01*
X-8657336Y3641344D01*
X-8646921Y3651757D01*
X-8636508Y3656837D01*
X-8620760Y3662171D01*
X-8594852Y3662171D01*
X-8579358Y3656837D01*
X-8568944Y3651757D01*
X-8558529Y3641344D01*
X-8553450Y3625850D01*
X-8553450Y3589273D01*
X-8662415Y3706876D02*
G01*
X-8662415Y3764026D01*
X-8620760Y3732784D01*
X-8620760Y3748278D01*
X-8615679Y3758692D01*
X-8610600Y3764026D01*
X-8594852Y3769105D01*
X-8584437Y3769105D01*
X-8568944Y3764026D01*
X-8558529Y3753612D01*
X-8553450Y3737863D01*
X-8553450Y3722370D01*
X-8558529Y3706876D01*
X-8563610Y3701542D01*
X-8574024Y3696462D01*
X-8600186Y3803395D02*
G01*
X-8600186Y3896868D01*
X-8636508Y4009136D02*
G01*
X-8646921Y4004055D01*
X-8657336Y3993642D01*
X-8662415Y3983228D01*
X-8662415Y3962400D01*
X-8657336Y3951986D01*
X-8646921Y3941571D01*
X-8636508Y3936492D01*
X-8620760Y3931157D01*
X-8594852Y3931157D01*
X-8579358Y3936492D01*
X-8568944Y3941571D01*
X-8558529Y3951986D01*
X-8553450Y3962400D01*
X-8553450Y3983228D01*
X-8558529Y3993642D01*
X-8568944Y4004055D01*
X-8579358Y4009136D01*
X-8594852Y4009136D01*
X-8594852Y3983228D02*
G01*
X-8594852Y4009136D01*
X-4255515Y7950187D02*
G01*
X-4146550Y7950187D01*
X-4255515Y7950187D02*
G01*
X-4255515Y7996923D01*
X-4250436Y8012417D01*
X-4245102Y8017751D01*
X-4234687Y8022831D01*
X-4224273Y8022831D01*
X-4213860Y8017751D01*
X-4208779Y8012417D01*
X-4203700Y7996923D01*
X-4203700Y7950187D01*
X-4203700Y7986509D02*
G01*
X-4146550Y8022831D01*
X-4234687Y8057121D02*
G01*
X-4240021Y8067535D01*
X-4255515Y8083283D01*
X-4146550Y8083283D01*
X-4242815Y4660887D02*
G01*
X-4133850Y4660887D01*
X-4242815Y4660887D02*
G01*
X-4242815Y4707623D01*
X-4237736Y4723117D01*
X-4232402Y4728451D01*
X-4221987Y4733531D01*
X-4211573Y4733531D01*
X-4201160Y4728451D01*
X-4196079Y4723117D01*
X-4191000Y4707623D01*
X-4191000Y4660887D01*
X-4191000Y4697209D02*
G01*
X-4133850Y4733531D01*
X-4216907Y4773155D02*
G01*
X-4221987Y4773155D01*
X-4232402Y4778235D01*
X-4237736Y4783569D01*
X-4242815Y4793983D01*
X-4242815Y4814557D01*
X-4237736Y4824971D01*
X-4232402Y4830305D01*
X-4221987Y4835385D01*
X-4211573Y4835385D01*
X-4201160Y4830305D01*
X-4185665Y4819891D01*
X-4133850Y4767821D01*
X-4133850Y4840719D01*
X-4255515Y1447787D02*
G01*
X-4146550Y1447787D01*
X-4255515Y1447787D02*
G01*
X-4255515Y1494523D01*
X-4250436Y1510017D01*
X-4245102Y1515351D01*
X-4234687Y1520431D01*
X-4224273Y1520431D01*
X-4213860Y1515351D01*
X-4208779Y1510017D01*
X-4203700Y1494523D01*
X-4203700Y1447787D01*
X-4203700Y1484109D02*
G01*
X-4146550Y1520431D01*
X-4255515Y1565135D02*
G01*
X-4255515Y1622285D01*
X-4213860Y1591297D01*
X-4213860Y1606791D01*
X-4208779Y1617205D01*
X-4203700Y1622285D01*
X-4187952Y1627619D01*
X-4177537Y1627619D01*
X-4162044Y1622285D01*
X-4151629Y1611871D01*
X-4146550Y1596377D01*
X-4146550Y1580883D01*
X-4151629Y1565135D01*
X-4156710Y1560055D01*
X-4167123Y1554721D01*
X-1739900Y928115D02*
G01*
X-1739900Y819150D01*
X-1739900Y928115D02*
G01*
X-1693163Y928115D01*
X-1677670Y923036D01*
X-1672336Y917702D01*
X-1667255Y907287D01*
X-1667255Y896873D01*
X-1672336Y886460D01*
X-1677670Y881379D01*
X-1693163Y876300D01*
X-1739900Y876300D01*
X-1703578Y876300D02*
G01*
X-1667255Y819150D01*
X-1632965Y928115D02*
G01*
X-1591310Y876300D01*
X-1591310Y819150D01*
X-1549654Y928115D02*
G01*
X-1591310Y876300D01*
X-1437639Y902207D02*
G01*
X-1442720Y912621D01*
X-1453134Y923036D01*
X-1463547Y928115D01*
X-1484376Y928115D01*
X-1494789Y923036D01*
X-1504950Y912621D01*
X-1510284Y902207D01*
X-1515363Y886460D01*
X-1515363Y860552D01*
X-1510284Y845057D01*
X-1504950Y834644D01*
X-1494789Y824229D01*
X-1484376Y819150D01*
X-1463547Y819150D01*
X-1453134Y824229D01*
X-1442720Y834644D01*
X-1437639Y845057D01*
X-1437639Y860552D01*
X-1463547Y860552D02*
G01*
X-1437639Y860552D01*
X-1403350Y865886D02*
G01*
X-1309623Y865886D01*
X-1275334Y928115D02*
G01*
X-1275334Y819150D01*
X-1275334Y819150D02*
G01*
X-1213104Y819150D01*
X-1178813Y928115D02*
G01*
X-1178813Y819150D01*
X-1178813Y928115D02*
G01*
X-1111250Y928115D01*
X-1178813Y876300D02*
G01*
X-1137157Y876300D01*
X-1178813Y819150D02*
G01*
X-1111250Y819150D01*
X-1076960Y928115D02*
G01*
X-1076960Y819150D01*
X-1076960Y928115D02*
G01*
X-1040637Y928115D01*
X-1024889Y923036D01*
X-1014729Y912621D01*
X-1009395Y902207D01*
X-1004315Y886460D01*
X-1004315Y860552D01*
X-1009395Y845057D01*
X-1014729Y834644D01*
X-1024889Y824229D01*
X-1040637Y819150D01*
X-1076960Y819150D01*
D10*
X-1834134Y637539D02*
G01*
X-1834134Y538987D01*
X-1866900Y637539D02*
G01*
X-1801113Y637539D01*
X-1770379Y604773D02*
G01*
X-1770379Y538987D01*
X-1770379Y576579D02*
G01*
X-1765554Y590550D01*
X-1756155Y599947D01*
X-1746757Y604773D01*
X-1732787Y604773D01*
X-1645412Y604773D02*
G01*
X-1645412Y538987D01*
X-1645412Y590550D02*
G01*
X-1654810Y599947D01*
X-1664207Y604773D01*
X-1678431Y604773D01*
X-1687829Y599947D01*
X-1696973Y590550D01*
X-1701800Y576579D01*
X-1701800Y567181D01*
X-1696973Y553212D01*
X-1687829Y543813D01*
X-1678431Y538987D01*
X-1664207Y538987D01*
X-1654810Y543813D01*
X-1645412Y553212D01*
X-1577086Y637539D02*
G01*
X-1586484Y637539D01*
X-1595881Y632968D01*
X-1600454Y618744D01*
X-1600454Y538987D01*
X-1614423Y604773D02*
G01*
X-1581657Y604773D01*
X-1508505Y637539D02*
G01*
X-1517904Y637539D01*
X-1527302Y632968D01*
X-1531873Y618744D01*
X-1531873Y538987D01*
X-1546097Y604773D02*
G01*
X-1513078Y604773D01*
X-1477518Y637539D02*
G01*
X-1472945Y632968D01*
X-1468120Y637539D01*
X-1472945Y642112D01*
X-1477518Y637539D01*
X-1472945Y604773D02*
G01*
X-1472945Y538987D01*
X-1380997Y590550D02*
G01*
X-1390395Y599947D01*
X-1399794Y604773D01*
X-1413763Y604773D01*
X-1423162Y599947D01*
X-1432560Y590550D01*
X-1437131Y576579D01*
X-1437131Y567181D01*
X-1432560Y553212D01*
X-1423162Y543813D01*
X-1413763Y538987D01*
X-1399794Y538987D01*
X-1390395Y543813D01*
X-1380997Y553212D01*
X-1277620Y637539D02*
G01*
X-1277620Y538987D01*
X-1277620Y538987D02*
G01*
X-1221486Y538987D01*
X-1190497Y637539D02*
G01*
X-1185671Y632968D01*
X-1181100Y637539D01*
X-1185671Y642112D01*
X-1190497Y637539D01*
X-1185671Y604773D02*
G01*
X-1185671Y538987D01*
X-1093723Y604773D02*
G01*
X-1093723Y529589D01*
X-1098550Y515620D01*
X-1103121Y510794D01*
X-1112520Y506221D01*
X-1126744Y506221D01*
X-1136142Y510794D01*
X-1093723Y590550D02*
G01*
X-1103121Y599947D01*
X-1112520Y604773D01*
X-1126744Y604773D01*
X-1136142Y599947D01*
X-1145539Y590550D01*
X-1150112Y576579D01*
X-1150112Y567181D01*
X-1145539Y553212D01*
X-1136142Y543813D01*
X-1126744Y538987D01*
X-1112520Y538987D01*
X-1103121Y543813D01*
X-1093723Y553212D01*
X-1062989Y637539D02*
G01*
X-1062989Y538987D01*
X-1062989Y585978D02*
G01*
X-1048765Y599947D01*
X-1039368Y604773D01*
X-1025397Y604773D01*
X-1016000Y599947D01*
X-1011173Y585978D01*
X-1011173Y538987D01*
X-966215Y637539D02*
G01*
X-966215Y557784D01*
X-961644Y543813D01*
X-952245Y538987D01*
X-942847Y538987D01*
X-980439Y604773D02*
G01*
X-947420Y604773D01*
D14*
X-1785183Y226987D02*
G01*
X-1794703Y230400D01*
X-1807456Y230220D01*
X-1817154Y226987D01*
X-1830085Y214055D01*
X-1833138Y204538D01*
X-1833318Y191785D01*
X-1830085Y182087D01*
X-1823620Y169156D01*
X-1807634Y153169D01*
X-1794703Y146705D01*
X-1785005Y143471D01*
X-1772074Y143471D01*
X-1762554Y146524D01*
X-1749623Y159456D01*
X-1746389Y169156D01*
X-1746389Y182087D01*
X-1749800Y191604D01*
X-1759501Y201305D01*
X-1775485Y185318D02*
G01*
X-1759501Y201305D01*
X-1757344Y241894D02*
G01*
X-1712264Y196814D01*
X-1738127Y222676D02*
G01*
X-1744593Y235249D01*
X-1744593Y248180D01*
X-1741360Y257881D01*
X-1731662Y267578D01*
X-1691251Y269554D02*
G01*
X-1652635Y308170D01*
X-1658922Y314454D01*
X-1668619Y317687D01*
X-1675086Y317687D01*
X-1684784Y314454D01*
X-1694484Y304756D01*
X-1697537Y295236D01*
X-1697537Y282305D01*
X-1691251Y269554D01*
X-1684784Y263088D01*
X-1671853Y256623D01*
X-1658922Y256623D01*
X-1649402Y259676D01*
X-1639704Y269374D01*
X-1636471Y279072D01*
X-1636471Y292006D01*
X-1631442Y329361D02*
G01*
X-1593006Y367799D01*
X-1599293Y374083D01*
X-1608813Y377497D01*
X-1615277Y377497D01*
X-1624977Y374263D01*
X-1634675Y364566D01*
X-1637908Y354865D01*
X-1637728Y342115D01*
X-1631442Y329361D01*
X-1624977Y322897D01*
X-1612044Y316430D01*
X-1599293Y316252D01*
X-1589592Y319483D01*
X-1579895Y329184D01*
X-1576661Y338881D01*
X-1576842Y351635D01*
X-1590850Y408388D02*
G01*
X-1545770Y363308D01*
X-1577919Y395457D02*
G01*
X-1578099Y414675D01*
X-1574866Y424373D01*
X-1565168Y434073D01*
X-1555648Y437126D01*
X-1542717Y430659D01*
X-1510568Y398510D01*
X-1608002Y185318D02*
G01*
X-1550169Y178854D01*
X-1514787Y143471D01*
X-1556636Y236684D02*
G01*
X-1550169Y178854D01*
X-1493773Y216209D02*
G01*
X-1455158Y254825D01*
X-1461444Y261112D01*
X-1471145Y264345D01*
X-1477609Y264345D01*
X-1487129Y261292D01*
X-1496827Y251592D01*
X-1500060Y241894D01*
X-1500060Y228963D01*
X-1493773Y216209D01*
X-1487309Y209745D01*
X-1474376Y203278D01*
X-1461444Y203278D01*
X-1451747Y206512D01*
X-1442046Y216209D01*
X-1438993Y225729D01*
X-1438993Y238660D01*
X-1475633Y317687D02*
G01*
X-1408102Y250156D01*
X-1454442Y338881D02*
G01*
X-1386908Y271350D01*
X-1394632Y353788D02*
G01*
X-1397866Y344088D01*
X-1397866Y331157D01*
X-1391399Y318584D01*
X-1384932Y312120D01*
X-1372181Y305475D01*
X-1359250Y305475D01*
X-1349550Y308706D01*
X-1339852Y318406D01*
X-1336799Y327924D01*
X-1336799Y340857D01*
X-1343266Y353788D01*
X-1349730Y360253D01*
X-1362483Y366539D01*
X-1375415Y366539D01*
X-1384932Y363486D01*
X-1394632Y353788D01*
X-1347754Y400664D02*
G01*
X-1289743Y368515D01*
X-1322072Y426349D02*
G01*
X-1289743Y368515D01*
X-1322072Y426349D02*
G01*
X-1264058Y394200D01*
X-1296207Y452211D02*
G01*
X-1264058Y394200D01*
X-1328602Y211002D02*
G01*
X-1261071Y143471D01*
X-1328602Y211002D02*
G01*
X-1299687Y239920D01*
X-1286756Y246385D01*
X-1280289Y246385D01*
X-1270769Y243331D01*
X-1264305Y236865D01*
X-1261071Y227167D01*
X-1261071Y220703D01*
X-1267538Y207769D01*
X-1296454Y178854D01*
X-1274003Y201305D02*
G01*
X-1215991Y188551D01*
X-1220660Y235610D02*
G01*
X-1182225Y274045D01*
X-1188511Y280329D01*
X-1198209Y283563D01*
X-1204495Y283743D01*
X-1214193Y280509D01*
X-1223893Y270812D01*
X-1227127Y261112D01*
X-1226946Y248361D01*
X-1220660Y235610D01*
X-1214193Y229143D01*
X-1201262Y222676D01*
X-1188511Y222498D01*
X-1178811Y225729D01*
X-1169113Y235430D01*
X-1165880Y245127D01*
X-1166060Y257881D01*
X-1164084Y375521D02*
G01*
X-1096553Y307990D01*
X-1131935Y343372D02*
G01*
X-1144866Y343372D01*
X-1154386Y340319D01*
X-1164084Y330619D01*
X-1167317Y320921D01*
X-1167317Y307990D01*
X-1160851Y295417D01*
X-1154386Y288952D01*
X-1141633Y282305D01*
X-1128702Y282305D01*
X-1119004Y285539D01*
X-1109304Y295236D01*
X-1106251Y304756D01*
X-1106251Y317687D01*
X-1010483Y226984D02*
G01*
X-1020003Y230398D01*
X-1032756Y230217D01*
X-1042454Y226984D01*
X-1055385Y214053D01*
X-1058438Y204536D01*
X-1058618Y191782D01*
X-1055385Y182084D01*
X-1048920Y169153D01*
X-1032934Y153167D01*
X-1020003Y146702D01*
X-1010305Y143469D01*
X-997374Y143469D01*
X-987854Y146522D01*
X-974923Y159453D01*
X-971689Y169153D01*
X-971689Y182084D01*
X-975100Y191602D01*
X-984801Y201302D01*
X-1000785Y185315D02*
G01*
X-984801Y201302D01*
X-1005095Y264342D02*
G01*
X-937564Y196811D01*
X-1005095Y264342D02*
G01*
X-892662Y241714D01*
X-960193Y309245D02*
G01*
X-892662Y241714D01*
X-939002Y330438D02*
G01*
X-871468Y262905D01*
X-939002Y330438D02*
G01*
X-916551Y352889D01*
X-903620Y359354D01*
X-890866Y359534D01*
X-881169Y356301D01*
X-868238Y349834D01*
X-852251Y333849D01*
X-845786Y320918D01*
X-842553Y311221D01*
X-842553Y298287D01*
X-849020Y285356D01*
X-871468Y262905D01*
D10*
X-4972812Y7734300D02*
G01*
X-5049265Y7705344D01*
X-4972812Y7676387D02*
G01*
X-5049265Y7705344D01*
X-4991100Y7597647D02*
G01*
X-4983734Y7601458D01*
X-4976621Y7608570D01*
X-4972812Y7615936D01*
X-4972812Y7630668D01*
X-4976621Y7637526D01*
X-4983734Y7645145D01*
X-4991100Y7648447D01*
X-5002021Y7652258D01*
X-5020055Y7652258D01*
X-5030978Y7648447D01*
X-5038344Y7645145D01*
X-5045710Y7637526D01*
X-5049265Y7630668D01*
X-5049265Y7615936D01*
X-5045710Y7608570D01*
X-5038344Y7601458D01*
X-5030978Y7597647D01*
X-4991100Y7519162D02*
G01*
X-4983734Y7522971D01*
X-4976621Y7530084D01*
X-4972812Y7537195D01*
X-4972812Y7551673D01*
X-4976621Y7559294D01*
X-4983734Y7566660D01*
X-4991100Y7570215D01*
X-5002021Y7573771D01*
X-5020055Y7573771D01*
X-5030978Y7570215D01*
X-5038344Y7566660D01*
X-5045710Y7559294D01*
X-5049265Y7551673D01*
X-5049265Y7537195D01*
X-5045710Y7530084D01*
X-5038344Y7522971D01*
X-5030978Y7519162D01*
X-4991100Y7920989D02*
G01*
X-4983734Y7924800D01*
X-4976621Y7931912D01*
X-4972812Y7939278D01*
X-4972812Y7953755D01*
X-4976621Y7961121D01*
X-4983734Y7968234D01*
X-4991100Y7972044D01*
X-5002021Y7975600D01*
X-5020055Y7975600D01*
X-5030978Y7972044D01*
X-5038344Y7968234D01*
X-5045710Y7961121D01*
X-5049265Y7953755D01*
X-5049265Y7939278D01*
X-5045710Y7931912D01*
X-5038344Y7924800D01*
X-5030978Y7920989D01*
X-5020055Y7920989D01*
X-5020055Y7939278D02*
G01*
X-5020055Y7920989D01*
X-4972812Y7897113D02*
G01*
X-5049265Y7897113D01*
X-4972812Y7897113D02*
G01*
X-5049265Y7846060D01*
X-4972812Y7846060D02*
G01*
X-5049265Y7846060D01*
X-4972812Y7822184D02*
G01*
X-5049265Y7822184D01*
X-4972812Y7822184D02*
G01*
X-4972812Y7796784D01*
X-4976621Y7785862D01*
X-4983734Y7778495D01*
X-4991100Y7774939D01*
X-5002021Y7771129D01*
X-5020055Y7771129D01*
X-5030978Y7774939D01*
X-5038344Y7778495D01*
X-5045710Y7785862D01*
X-5049265Y7796784D01*
X-5049265Y7822184D01*
X-4981702Y7411465D02*
G01*
X-4974589Y7418831D01*
X-4970779Y7429754D01*
X-4970779Y7444231D01*
X-4974589Y7455154D01*
X-4981702Y7462265D01*
X-4989068Y7462265D01*
X-4996179Y7458963D01*
X-4999989Y7455154D01*
X-5003545Y7447787D01*
X-5010912Y7426197D01*
X-5014468Y7418831D01*
X-5018023Y7415276D01*
X-5025389Y7411465D01*
X-5036312Y7411465D01*
X-5043678Y7418831D01*
X-5047234Y7429754D01*
X-5047234Y7444231D01*
X-5043678Y7455154D01*
X-5036312Y7462265D01*
X-4989068Y7332979D02*
G01*
X-4981702Y7336789D01*
X-4974589Y7343902D01*
X-4970779Y7351013D01*
X-4970779Y7365745D01*
X-4974589Y7373112D01*
X-4981702Y7380223D01*
X-4989068Y7384034D01*
X-4999989Y7387589D01*
X-5018023Y7387589D01*
X-5028945Y7384034D01*
X-5036312Y7380223D01*
X-5043678Y7373112D01*
X-5047234Y7365745D01*
X-5047234Y7351013D01*
X-5043678Y7343902D01*
X-5036312Y7336789D01*
X-5028945Y7332979D01*
X-4970779Y7309104D02*
G01*
X-5047234Y7309104D01*
X-5047234Y7309104D02*
G01*
X-5047234Y7265162D01*
X-4982718Y7176515D02*
G01*
X-4975605Y7183628D01*
X-4971795Y7194550D01*
X-4971795Y7209028D01*
X-4975605Y7219950D01*
X-4982718Y7227315D01*
X-4990084Y7227315D01*
X-4997195Y7223760D01*
X-5001005Y7219950D01*
X-5004562Y7212837D01*
X-5011928Y7190994D01*
X-5015484Y7183628D01*
X-5019039Y7180071D01*
X-5026405Y7176515D01*
X-5037328Y7176515D01*
X-5044694Y7183628D01*
X-5048250Y7194550D01*
X-5048250Y7209028D01*
X-5044694Y7219950D01*
X-5037328Y7227315D01*
X-4971795Y7152386D02*
G01*
X-5048250Y7152386D01*
X-4971795Y7152386D02*
G01*
X-4971795Y7126986D01*
X-4975605Y7116063D01*
X-4982718Y7108697D01*
X-4990084Y7105142D01*
X-5001005Y7101586D01*
X-5019039Y7101586D01*
X-5029962Y7105142D01*
X-5037328Y7108697D01*
X-5044694Y7116063D01*
X-5048250Y7126986D01*
X-5048250Y7152386D01*
X-4971795Y7048500D02*
G01*
X-5048250Y7077455D01*
X-4971795Y7048500D02*
G01*
X-5048250Y7019289D01*
X-5022850Y7066534D02*
G01*
X-5022850Y7030212D01*
X-5877052Y8325358D02*
G01*
X-5862573Y8339836D01*
X-5855207Y8361679D01*
X-5855207Y8390889D01*
X-5862573Y8412734D01*
X-5877052Y8427212D01*
X-5891784Y8427212D01*
X-5906262Y8419845D01*
X-5913373Y8412734D01*
X-5920739Y8398002D01*
X-5935218Y8354568D01*
X-5942584Y8339836D01*
X-5949950Y8332723D01*
X-5964428Y8325358D01*
X-5986271Y8325358D01*
X-6000750Y8339836D01*
X-6008115Y8361679D01*
X-6008115Y8390889D01*
X-6000750Y8412734D01*
X-5986271Y8427212D01*
X-5877052Y8175497D02*
G01*
X-5862573Y8190229D01*
X-5855207Y8211820D01*
X-5855207Y8241029D01*
X-5862573Y8262873D01*
X-5877052Y8277352D01*
X-5891784Y8277352D01*
X-5906262Y8270239D01*
X-5913373Y8262873D01*
X-5920739Y8248395D01*
X-5935218Y8204708D01*
X-5942584Y8190229D01*
X-5949950Y8182863D01*
X-5964428Y8175497D01*
X-5986271Y8175497D01*
X-6000750Y8190229D01*
X-6008115Y8211820D01*
X-6008115Y8241029D01*
X-6000750Y8262873D01*
X-5986271Y8277352D01*
X-5855207Y8127492D02*
G01*
X-6008115Y8127492D01*
X-5855207Y8127492D02*
G01*
X-5855207Y8076692D01*
X-5862573Y8054847D01*
X-5877052Y8040370D01*
X-5891784Y8033004D01*
X-5913373Y8025637D01*
X-5949950Y8025637D01*
X-5971539Y8033004D01*
X-5986271Y8040370D01*
X-6000750Y8054847D01*
X-6008115Y8076692D01*
X-6008115Y8127492D01*
X-5884418Y7977631D02*
G01*
X-5877052Y7963154D01*
X-5855207Y7941310D01*
X-6008115Y7941310D01*
X-5884418Y7893304D02*
G01*
X-5877052Y7878826D01*
X-5855207Y7856981D01*
X-6008115Y7856981D01*
X-5855207Y7765287D02*
G01*
X-5862573Y7787131D01*
X-5884418Y7801863D01*
X-5920739Y7808976D01*
X-5942584Y7808976D01*
X-5978905Y7801863D01*
X-6000750Y7787131D01*
X-6008115Y7765287D01*
X-6008115Y7750810D01*
X-6000750Y7728965D01*
X-5978905Y7714487D01*
X-5942584Y7707121D01*
X-5920739Y7707121D01*
X-5884418Y7714487D01*
X-5862573Y7728965D01*
X-5855207Y7750810D01*
X-5855207Y7765287D01*
X-5877052Y7571994D02*
G01*
X-5862573Y7579105D01*
X-5855207Y7600950D01*
X-5855207Y7615681D01*
X-5862573Y7637271D01*
X-5884418Y7652004D01*
X-5920739Y7659115D01*
X-5957062Y7659115D01*
X-5986271Y7652004D01*
X-6000750Y7637271D01*
X-6008115Y7615681D01*
X-6008115Y7608315D01*
X-6000750Y7586471D01*
X-5986271Y7571994D01*
X-5964428Y7564628D01*
X-5957062Y7564628D01*
X-5935218Y7571994D01*
X-5920739Y7586471D01*
X-5913373Y7608315D01*
X-5913373Y7615681D01*
X-5920739Y7637271D01*
X-5935218Y7652004D01*
X-5957062Y7659115D01*
X-5884418Y7404608D02*
G01*
X-5877052Y7390129D01*
X-5855207Y7368286D01*
X-6008115Y7368286D01*
X-5891784Y7312913D02*
G01*
X-5884418Y7312913D01*
X-5869939Y7305802D01*
X-5862573Y7298436D01*
X-5855207Y7283958D01*
X-5855207Y7254747D01*
X-5862573Y7240270D01*
X-5869939Y7233158D01*
X-5884418Y7225792D01*
X-5898895Y7225792D01*
X-5913373Y7233158D01*
X-5935218Y7247636D01*
X-6008115Y7320279D01*
X-6008115Y7218426D01*
X-5855207Y7134097D02*
G01*
X-5862573Y7155942D01*
X-5877052Y7163308D01*
X-5891784Y7163308D01*
X-5906262Y7155942D01*
X-5913373Y7141463D01*
X-5920739Y7112254D01*
X-5928105Y7090410D01*
X-5942584Y7075931D01*
X-5957062Y7068565D01*
X-5978905Y7068565D01*
X-5993384Y7075931D01*
X-6000750Y7083297D01*
X-6008115Y7105142D01*
X-6008115Y7134097D01*
X-6000750Y7155942D01*
X-5993384Y7163308D01*
X-5978905Y7170420D01*
X-5957062Y7170420D01*
X-5942584Y7163308D01*
X-5928105Y7148576D01*
X-5920739Y7126731D01*
X-5913373Y7097776D01*
X-5906262Y7083297D01*
X-5891784Y7075931D01*
X-5877052Y7075931D01*
X-5862573Y7083297D01*
X-5855207Y7105142D01*
X-5855207Y7134097D01*
X-5906262Y7020560D02*
G01*
X-6008115Y6940550D01*
X-5906262Y6940550D02*
G01*
X-6008115Y7020560D01*
X-5877052Y6805421D02*
G01*
X-5862573Y6812787D01*
X-5855207Y6834378D01*
X-5855207Y6849110D01*
X-5862573Y6870954D01*
X-5884418Y6885431D01*
X-5920739Y6892544D01*
X-5957062Y6892544D01*
X-5986271Y6885431D01*
X-6000750Y6870954D01*
X-6008115Y6849110D01*
X-6008115Y6841744D01*
X-6000750Y6819900D01*
X-5986271Y6805421D01*
X-5964428Y6798055D01*
X-5957062Y6798055D01*
X-5935218Y6805421D01*
X-5920739Y6819900D01*
X-5913373Y6841744D01*
X-5913373Y6849110D01*
X-5920739Y6870954D01*
X-5935218Y6885431D01*
X-5957062Y6892544D01*
X-5855207Y6677405D02*
G01*
X-5957062Y6750050D01*
X-5957062Y6641084D01*
X-5855207Y6677405D02*
G01*
X-6008115Y6677405D01*
D11*
X-4522978Y7839455D02*
G01*
X-4512563Y7849870D01*
X-4507484Y7865363D01*
X-4507484Y7886192D01*
X-4512563Y7901686D01*
X-4522978Y7912100D01*
X-4533392Y7912100D01*
X-4543805Y7907020D01*
X-4549139Y7901686D01*
X-4554220Y7891271D01*
X-4564634Y7860029D01*
X-4569713Y7849870D01*
X-4575047Y7844536D01*
X-4585462Y7839455D01*
X-4600955Y7839455D01*
X-4611370Y7849870D01*
X-4616450Y7865363D01*
X-4616450Y7886192D01*
X-4611370Y7901686D01*
X-4600955Y7912100D01*
X-4522978Y7732268D02*
G01*
X-4512563Y7742681D01*
X-4507484Y7758429D01*
X-4507484Y7779004D01*
X-4512563Y7794752D01*
X-4522978Y7805165D01*
X-4533392Y7805165D01*
X-4543805Y7799831D01*
X-4549139Y7794752D01*
X-4554220Y7784337D01*
X-4564634Y7753095D01*
X-4569713Y7742681D01*
X-4575047Y7737602D01*
X-4585462Y7732268D01*
X-4600955Y7732268D01*
X-4611370Y7742681D01*
X-4616450Y7758429D01*
X-4616450Y7779004D01*
X-4611370Y7794752D01*
X-4600955Y7805165D01*
X-4507484Y7697978D02*
G01*
X-4616450Y7697978D01*
X-4507484Y7697978D02*
G01*
X-4507484Y7661655D01*
X-4512563Y7646162D01*
X-4522978Y7635747D01*
X-4533392Y7630413D01*
X-4549139Y7625334D01*
X-4575047Y7625334D01*
X-4590542Y7630413D01*
X-4600955Y7635747D01*
X-4611370Y7646162D01*
X-4616450Y7661655D01*
X-4616450Y7697978D01*
X-4528312Y7591044D02*
G01*
X-4522978Y7580629D01*
X-4507484Y7565136D01*
X-4616450Y7565136D01*
X-4528312Y7530845D02*
G01*
X-4522978Y7520431D01*
X-4507484Y7504684D01*
X-4616450Y7504684D01*
X-4507484Y7439405D02*
G01*
X-4512563Y7454900D01*
X-4528312Y7465313D01*
X-4554220Y7470394D01*
X-4569713Y7470394D01*
X-4595876Y7465313D01*
X-4611370Y7454900D01*
X-4616450Y7439405D01*
X-4616450Y7428992D01*
X-4611370Y7413244D01*
X-4595876Y7402829D01*
X-4569713Y7397750D01*
X-4554220Y7397750D01*
X-4528312Y7402829D01*
X-4512563Y7413244D01*
X-4507484Y7428992D01*
X-4507484Y7439405D01*
X-4522978Y7301229D02*
G01*
X-4512563Y7306310D01*
X-4507484Y7321804D01*
X-4507484Y7332218D01*
X-4512563Y7347965D01*
X-4528312Y7358379D01*
X-4554220Y7363460D01*
X-4580128Y7363460D01*
X-4600955Y7358379D01*
X-4611370Y7347965D01*
X-4616450Y7332218D01*
X-4616450Y7327137D01*
X-4611370Y7311389D01*
X-4600955Y7301229D01*
X-4585462Y7295895D01*
X-4580128Y7295895D01*
X-4564634Y7301229D01*
X-4554220Y7311389D01*
X-4549139Y7327137D01*
X-4549139Y7332218D01*
X-4554220Y7347965D01*
X-4564634Y7358379D01*
X-4580128Y7363460D01*
D15*
X-1549400Y1371600D02*
G01*
X-1549400Y3530600D01*
X119126Y3530600D01*
X127000Y3530600D01*
X254000Y3402584D01*
X254000Y1503426D01*
X254000Y1498600D01*
X101600Y1371600D01*
X-1549400Y1371600D01*
D16*
X-8382002Y3035297D02*
G01*
X-8382002Y1447797D01*
D10*
X-8382002Y1447797D02*
G01*
X-8382002Y1257297D01*
X-8128002Y1257297D01*
X-8128002Y3035297D01*
X-8382002Y3035297D01*
D17*
X-7576794Y482701D02*
G01*
X-7376795Y282702D01*
X-6576796Y282702D01*
X-6576796Y57708D01*
X-6626783Y7696D01*
X-5751804Y7696D01*
X-5801791Y57708D01*
X-5801791Y282702D01*
X-4876800Y282702D01*
X-4676800Y482701D01*
X-4676800Y5382691D01*
X-4876800Y5582691D01*
X-7376795Y5582691D01*
X-7576794Y5382691D01*
X-7576794Y482701D01*
X-5801791Y282702D02*
G01*
X-5801791Y707694D01*
X-5851804Y757707D01*
X-6526784Y757707D01*
X-6576796Y707694D01*
X-6576796Y282702D01*
X-6326809Y332714D02*
G01*
X-6326809Y182702D01*
X-6301790Y182702D01*
X-6301790Y132689D01*
X-6451803Y132689D01*
X-6451803Y182702D01*
X-6426809Y182702D01*
X-6426809Y332714D01*
X-6326809Y332714D01*
X-5951804Y332714D02*
G01*
X-6051804Y332714D01*
X-6051804Y182702D01*
X-6076797Y182702D01*
X-6076797Y132689D01*
X-5926810Y132689D01*
X-5926810Y182702D01*
X-5951804Y182702D01*
X-5951804Y332714D01*
X-6426809Y1307693D02*
G01*
X-6326809Y1307693D01*
X-6326809Y1382699D01*
X-6426809Y1382699D01*
X-6426809Y1307693D01*
X-6426809Y1257706D01*
X-6701789Y1257706D01*
X-6701789Y1382699D01*
X-6826808Y1382699D01*
X-6826808Y1682699D01*
X-6701789Y1682699D01*
X-6701789Y1382699D01*
X-6426809Y1757705D02*
G01*
X-6326809Y1757705D01*
X-6326809Y1682699D01*
X-6426809Y1682699D01*
X-6426809Y1757705D01*
X-6426809Y1807692D01*
X-6701789Y1807692D01*
X-6701789Y1682699D01*
X-6426809Y1382699D02*
G01*
X-6426809Y1482699D01*
X-6426809Y1582699D01*
X-6326809Y1582699D01*
X-6326809Y1482699D01*
X-6426809Y1482699D01*
X-6426809Y1682699D02*
G01*
X-6426809Y1582699D01*
X-5901791Y1282700D02*
G01*
X-5901791Y1332712D01*
X-5951804Y1332712D01*
X-5951804Y1382699D01*
X-5951804Y1432712D01*
X-5951804Y1482699D01*
X-5951804Y1532686D01*
X-5951804Y1582699D01*
X-5951804Y1632686D01*
X-5951804Y1682699D01*
X-5951804Y1732686D01*
X-5901791Y1732686D01*
X-5851804Y1732686D01*
X-5801791Y1732686D01*
X-5751804Y1732686D01*
X-5701792Y1732686D01*
X-5651804Y1732686D01*
X-5601792Y1732686D01*
X-5551804Y1732686D01*
X-5551804Y1682699D01*
X-5551804Y1632686D01*
X-5551804Y1582699D01*
X-5551804Y1532686D01*
X-5551804Y1482699D01*
X-5551804Y1432712D01*
X-5551804Y1382699D01*
X-5551804Y1332712D01*
X-5601792Y1332712D01*
X-5651804Y1332712D01*
X-5701792Y1332712D01*
X-5751804Y1332712D01*
X-5801791Y1332712D01*
X-5851804Y1332712D01*
X-5901791Y1332712D01*
X-5951804Y1382699D02*
G01*
X-6001791Y1382699D01*
X-6001791Y1432712D02*
G01*
X-5951804Y1432712D01*
X-6001791Y1482699D02*
G01*
X-5951804Y1482699D01*
X-6001791Y1532686D02*
G01*
X-5951804Y1532686D01*
X-6001791Y1582699D02*
G01*
X-5951804Y1582699D01*
X-6001791Y1632686D02*
G01*
X-5951804Y1632686D01*
X-6001791Y1682699D02*
G01*
X-5951804Y1682699D01*
X-5901791Y1732686D02*
G01*
X-5901791Y1782698D01*
X-5851804Y1782698D02*
G01*
X-5851804Y1732686D01*
X-5801791Y1782698D02*
G01*
X-5801791Y1732686D01*
X-5751804Y1782698D02*
G01*
X-5751804Y1732686D01*
X-5701792Y1782698D02*
G01*
X-5701792Y1732686D01*
X-5651804Y1782698D02*
G01*
X-5651804Y1732686D01*
X-5601792Y1782698D02*
G01*
X-5601792Y1732686D01*
X-5601792Y1332712D02*
G01*
X-5601792Y1282700D01*
X-5651804Y1282700D02*
G01*
X-5651804Y1332712D01*
X-5701792Y1282700D02*
G01*
X-5701792Y1332712D01*
X-5751804Y1282700D02*
G01*
X-5751804Y1332712D01*
X-5801791Y1282700D02*
G01*
X-5801791Y1332712D01*
X-5851804Y1282700D02*
G01*
X-5851804Y1332712D01*
X-5551804Y1682699D02*
G01*
X-5501792Y1682699D01*
X-5501792Y1632686D02*
G01*
X-5551804Y1632686D01*
X-5501792Y1582699D02*
G01*
X-5551804Y1582699D01*
X-5501792Y1532686D02*
G01*
X-5551804Y1532686D01*
X-5501792Y1482699D02*
G01*
X-5551804Y1482699D01*
X-5501792Y1432712D02*
G01*
X-5551804Y1432712D01*
X-5501792Y1382699D02*
G01*
X-5551804Y1382699D01*
X-5076799Y557707D02*
G01*
X-5076799Y1007694D01*
X-5176799Y1007694D01*
X-5326786Y1007694D01*
X-5426811Y1007694D01*
X-5426811Y557707D01*
X-5326786Y557707D01*
X-5176799Y557707D01*
X-5076799Y557707D01*
X-5326786Y1007694D02*
G01*
X-5326786Y1107694D01*
X-5176799Y1107694D01*
X-5176799Y1007694D01*
X-5326786Y557707D02*
G01*
X-5326786Y457707D01*
X-5176799Y457707D01*
X-5176799Y557707D01*
X-6926808Y5582691D02*
G01*
X-6926808Y3082696D01*
X-5326786Y3082696D01*
X-5326786Y5582691D01*
X-6926808Y5582691D01*
X-6826808Y3182696D02*
G01*
X-5426811Y3182696D01*
X-5426811Y4882692D01*
X-6826808Y4882692D01*
X-6826808Y3182696D01*
D18*
X-6676796Y4982692D02*
G01*
X-6676796Y5482691D01*
X-6526784Y5482691D01*
X-6526784Y5082692D01*
X-6376796Y5082692D01*
X-6376796Y5482691D01*
X-6176797Y5482691D01*
X-6176797Y5082692D01*
X-5976797Y5082692D01*
X-5976797Y5482691D01*
X-5776798Y5482691D01*
X-5576798Y5482691D01*
X-5576798Y4932705D01*
X-5776798Y5482691D02*
G01*
X-5776798Y4932705D01*
D17*
X-6926808Y557707D02*
G01*
X-6926808Y1007694D01*
X-7026783Y1007694D01*
X-7176795Y1007694D01*
X-7276795Y1007694D01*
X-7276795Y557707D01*
X-7176795Y557707D01*
X-7026783Y557707D01*
X-6926808Y557707D01*
X-7176795Y1007694D02*
G01*
X-7176795Y1107694D01*
X-7026783Y1107694D01*
X-7026783Y1007694D01*
X-7176795Y557707D02*
G01*
X-7176795Y457707D01*
X-7026783Y457707D01*
X-7026783Y557707D01*
D15*
X-1685899Y8780602D02*
G01*
X-385902Y8780602D01*
X-385902Y7180605D01*
X-1685899Y7180605D01*
X-1685899Y7180605D01*
X-1685899Y8780602D01*
X-1565910Y8780602D01*
X-1589852Y5676900D02*
G01*
X-1905000Y5676900D01*
X-1905000Y4914900D01*
X-1592178Y4914900D01*
X893698Y4157598D02*
G01*
X-2925419Y4157598D01*
X-2925419Y6434201D01*
X893698Y6434201D01*
X893698Y4157598D01*
X-8128205Y5498845D02*
G01*
X-8382993Y5499379D01*
X-8128205Y4698745D02*
G01*
X-8382993Y4699279D01*
X-8128205Y3885945D02*
G01*
X-8382993Y3886479D01*
X-3510000Y7065187D02*
G01*
X-4109999Y7065187D01*
X-4109999Y7065187D02*
G01*
X-4109999Y8835186D01*
X-4109999Y8835186D02*
G01*
X-3510000Y8835186D01*
X-3510000Y8835186D02*
G01*
X-3510000Y7065187D01*
X-3497300Y3775887D02*
G01*
X-4097299Y3775887D01*
X-4097299Y3775887D02*
G01*
X-4097299Y5545886D01*
X-4097299Y5545886D02*
G01*
X-3497300Y5545886D01*
X-3497300Y5545886D02*
G01*
X-3497300Y3775887D01*
X-3510000Y562787D02*
G01*
X-4109999Y562787D01*
X-4109999Y562787D02*
G01*
X-4109999Y2332786D01*
X-4109999Y2332786D02*
G01*
X-3510000Y2332786D01*
X-3510000Y2332786D02*
G01*
X-3510000Y562787D01*
X-2434285Y736600D02*
G01*
X-334289Y736600D01*
X-334289Y-228600D01*
X-2434285Y-228600D01*
X-2434285Y736600D01*
X-7216800Y8877300D02*
G01*
X-5016804Y8877300D01*
X-5016804Y8877300D02*
G01*
X-4886807Y8877300D01*
X-4686807Y8677300D02*
G01*
X-4686807Y6347307D01*
X-4886807Y6147307D02*
G01*
X-7216800Y6147307D01*
X-7010400Y8877300D02*
G01*
X-7010400Y6177305D01*
X-7010400Y6177305D02*
G01*
X-7010400Y6147307D01*
X-5110403Y8877300D02*
G01*
X-5110403Y6147307D01*
X-7416800Y8674100D02*
G01*
X-7416800Y8374100D01*
X-7216800Y8174101D01*
X-7216800Y6844106D01*
X-7416800Y6644106D01*
X-7416800Y6344107D01*
D17*
G75*
G01*
X-5251806Y907694D02*
G03*
X-5251145Y907694I331J-124993D01*
G75*
G01*
X-7101789Y907694D02*
G03*
X-7101129Y907694I330J-124993D01*
D15*
G75*
G01*
X-8381746Y5498846D02*
G03*
X-8128254Y5498846I126746J-190246D01*
G75*
G01*
X-8381746Y4698746D02*
G03*
X-8128254Y4698746I126746J-190246D01*
G75*
G01*
X-8381746Y3885946D02*
G03*
X-8128254Y3885946I126746J-190246D01*
G75*
G01*
X-7416800Y8677300D02*
G02*
X-7216800Y8877300I200000J0D01*
G75*
G01*
X-4886960Y8877554D02*
G02*
X-4687062Y8677656I0J-199898D01*
G75*
G01*
X-4686046Y6345682D02*
G02*
X-4885944Y6145784I-199898J0D01*
G75*
G01*
X-7217156Y6147308D02*
G02*
X-7417054Y6347206I0J199898D01*
G75*
G01
X388899Y5295900D02*
G03X388899Y5295900I-1023899J0D01*
D19*
G75*
G01
X-2494001Y6095898D02*
G03X-2494001Y6095898I-24994J0D01*
M02*
