G04 Layer: TopSolderMaskLayer*
G04 EasyEDA v6.5.23, 2023-06-28 09:07:18*
G04 df611495b25e4bdeb4d342b309801e4c,9d485ff6e355438eacffb324f9111ecc,10*
G04 Gerber Generator version 0.2*
G04 Scale: 100 percent, Rotated: No, Reflected: No *
G04 Dimensions in millimeters *
G04 leading zeros omitted , absolute positions ,4 integer and 5 decimal *
%FSLAX45Y45*%
%MOMM*%

%AMMACRO1*1,1,$1,$2,$3*1,1,$1,$4,$5*1,1,$1,0-$2,0-$3*1,1,$1,0-$4,0-$5*20,1,$1,$2,$3,$4,$5,0*20,1,$1,$4,$5,0-$2,0-$3,0*20,1,$1,0-$2,0-$3,0-$4,0-$5,0*20,1,$1,0-$4,0-$5,$2,$3,0*4,1,4,$2,$3,$4,$5,0-$2,0-$3,0-$4,0-$5,$2,$3,0*%
%ADD10C,2.1016*%
%ADD11R,1.6764X1.6764*%
%ADD12C,1.6764*%
%ADD13C,2.0320*%
%ADD14C,1.6256*%
%ADD15MACRO1,0.1016X0.762X0.762X0.762X-0.762*%
%ADD16C,2.0032*%
%ADD17C,1.8532*%
%ADD18C,1.9812*%
%ADD19C,2.1360*%

%LPD*%
D10*
G01*
X-1295400Y1574800D03*
G01*
X-1295400Y1828800D03*
G01*
X-1295400Y2082800D03*
G01*
X-1295400Y2336800D03*
G01*
X-1295400Y2590800D03*
G01*
X-1295400Y2844800D03*
G01*
X-1295400Y3098800D03*
G01*
X-1295400Y3352800D03*
D11*
G01*
X-8255000Y1384300D03*
D12*
G01*
X-8255000Y1638300D03*
G01*
X-8255000Y1892300D03*
G01*
X-8255000Y2146300D03*
G01*
X-8255000Y2400300D03*
G01*
X-8255000Y2654300D03*
G01*
X-8255000Y2908300D03*
D13*
G01*
X-4876800Y1282700D03*
G01*
X-4876800Y1536700D03*
G01*
X-4876800Y1790700D03*
G01*
X-4876800Y2044700D03*
G01*
X-4876800Y2298700D03*
G01*
X-4876800Y2552700D03*
G01*
X-4876800Y2806700D03*
G01*
X-4876800Y3060700D03*
G01*
X-4876800Y3314700D03*
G01*
X-4876800Y3568700D03*
G01*
X-4876800Y3822700D03*
G01*
X-4876800Y4076700D03*
G01*
X-4876800Y4330700D03*
G01*
X-4876800Y4584700D03*
G01*
X-4876800Y4838700D03*
G01*
X-7416800Y1282700D03*
G01*
X-7416800Y1536700D03*
G01*
X-7416800Y1790700D03*
G01*
X-7416800Y2044700D03*
G01*
X-7416800Y2298700D03*
G01*
X-7416800Y2552700D03*
G01*
X-7416800Y2806700D03*
G01*
X-7416800Y3060700D03*
G01*
X-7416800Y3314700D03*
G01*
X-7416800Y3568700D03*
G01*
X-7416800Y3822700D03*
G01*
X-7416800Y4076700D03*
G01*
X-7416800Y4330700D03*
G01*
X-7416800Y4584700D03*
G01*
X-7416800Y4838700D03*
D14*
G01*
X-1485900Y7340600D03*
G01*
X-1485900Y7594600D03*
G01*
X-1485900Y7848600D03*
G01*
X-1485900Y8102600D03*
G01*
X-1485900Y8356600D03*
D15*
G01*
X-1485900Y8610600D03*
D16*
G01*
X-2667000Y5930900D03*
G01*
X-2667000Y5676900D03*
G01*
X-2667000Y5422900D03*
G01*
X-2667000Y5168900D03*
G01*
X-2667000Y4914900D03*
G01*
X-2667000Y4660900D03*
D17*
G01*
X-8255000Y5181600D03*
G01*
X-8255000Y5435600D03*
G01*
X-8255000Y4381500D03*
G01*
X-8255000Y4635500D03*
G01*
X-8255000Y3568700D03*
G01*
X-8255000Y3822700D03*
D18*
G01*
X-3810000Y6865188D03*
G01*
X-3810000Y9035186D03*
G01*
X-3797300Y3575888D03*
G01*
X-3797300Y5745886D03*
G01*
X-3810000Y362788D03*
G01*
X-3810000Y2532786D03*
D19*
G01*
X-1765300Y0D03*
G01*
X-1511300Y0D03*
G01*
X-1257300Y0D03*
G01*
X-1003300Y0D03*
D15*
G01*
X-4856810Y7886700D03*
D14*
G01*
X-4856734Y7632700D03*
G01*
X-4856734Y7378700D03*
G01*
X-4856734Y7124700D03*
M02*
